<?xml version="1.0" encoding="UTF-8"?> <svg xmlns="http://www.w3.org/2000/svg" width="742" height="73" viewBox="0 0 742 73" fill="none"><path fill-rule="evenodd" clip-rule="evenodd" d="M31 0.999936H40.9999C57.5685 0.999936 70.9999 14.4311 70.9999 30.9999V40.9999C70.9999 57.5682 57.5685 70.9998 40.9999 70.9998H31C14.4315 70.9998 0.999936 57.5682 0.999936 40.9999V30.9999C0.999936 14.4311 14.4315 0.999936 31 0.999936Z" fill="white"></path><path fill-rule="evenodd" clip-rule="evenodd" d="M36.5 16.9999C51.1355 16.9999 62.9999 28.8644 62.9999 43.4999C62.9999 58.1353 51.1355 69.9999 36.5 69.9999C21.8644 69.9999 9.99995 58.1353 9.99995 43.4999C9.99995 28.8644 21.8644 16.9999 36.5 16.9999Z" fill="url(#paint0_linear_7350_18869)"></path><path fill-rule="evenodd" clip-rule="evenodd" d="M31 0.999936H40.9999C57.5685 0.999936 70.9999 14.4311 70.9999 30.9999V40.9999C70.9999 57.5682 57.5685 70.9998 40.9999 70.9998H31C14.4315 70.9998 0.999936 57.5682 0.999936 40.9999V30.9999C0.999936 14.4311 14.4315 0.999936 31 0.999936Z" fill="url(#paint1_linear_7350_18869)"></path><g clip-path="url(#clip0_7350_18869)"><path d="M17.5464 42.6816C17.3 42.6816 17.1016 42.88 17.1016 43.1264C17.1016 43.3728 17.3 43.5712 17.5464 43.5712C17.7928 43.5712 17.9912 43.3728 17.9912 43.1264C17.9912 42.88 17.7928 42.6816 17.5464 42.6816Z" fill="white"></path><path d="M54.845 29.5078H49.5106C49.453 29.5078 49.3986 29.5206 49.3442 29.543L49.3122 29.5591L49.293 29.5271C49.1938 29.3511 49.0914 29.1783 48.9922 29.0215C48.5698 28.3431 48.0802 27.6967 47.5394 27.0983C47.4274 26.9767 47.2706 26.9062 47.1042 26.9062C46.957 26.9062 46.8194 26.9606 46.7106 27.0566C46.5954 27.1622 46.5282 27.3062 46.5186 27.463C46.5122 27.6198 46.5634 27.7702 46.669 27.8854C47.6674 28.9894 48.4514 30.2439 48.9922 31.6199C49.5522 33.0439 49.837 34.551 49.837 36.0966C49.837 37.1846 49.693 38.2631 49.4146 39.2999C49.1394 40.3111 48.7362 41.2806 48.2146 42.1862C47.1874 43.975 45.709 45.4854 43.9394 46.5574C43.805 46.6374 43.7122 46.7686 43.6738 46.919C43.6354 47.0694 43.661 47.2294 43.741 47.3638C43.8466 47.5398 44.0354 47.6454 44.2434 47.6454C44.349 47.6454 44.4546 47.6166 44.5442 47.559L44.5634 47.5462C46.4898 46.375 48.1026 44.7238 49.2258 42.7686C49.7986 41.7734 50.2402 40.7111 50.5378 39.6071C50.845 38.4679 51.0018 37.287 51.0018 36.0966C51.0018 34.4038 50.6914 32.7527 50.0738 31.1911C49.9778 30.9447 49.8626 30.6854 49.7154 30.3718L49.6898 30.3142H54.8322C55.0562 30.3142 55.2354 30.1318 55.2354 29.911C55.2354 29.6902 55.053 29.5078 54.8322 29.5078H54.845Z" fill="white"></path><path d="M56.6167 29.4658C56.3703 29.4658 56.1719 29.6642 56.1719 29.9106C56.1719 30.157 56.3703 30.3554 56.6167 30.3554C56.8631 30.3554 57.0615 30.157 57.0615 29.9106C57.0615 29.6642 56.8631 29.4658 56.6167 29.4658Z" fill="white"></path><path d="M26.4942 29.77C26.747 29.9268 27.0926 29.8436 27.2462 29.5972C27.787 28.7332 28.4334 27.9396 29.1662 27.2356C29.9022 26.5284 30.7214 25.9172 31.6014 25.4148C32.5006 24.9028 33.4574 24.5092 34.4494 24.2436C35.4734 23.9684 36.5358 23.8276 37.611 23.8276C39.2398 23.8276 40.8238 24.1412 42.315 24.762C42.3822 24.7908 42.4526 24.8036 42.523 24.8036C42.7438 24.8036 42.9422 24.6724 43.0286 24.4676C43.083 24.3332 43.083 24.1828 43.0286 24.0484C42.9742 23.914 42.8686 23.8084 42.7342 23.7508C41.9374 23.4212 41.1054 23.1652 40.2606 22.9956C38.2574 22.5924 36.1326 22.6564 34.1646 23.1844C33.083 23.4756 32.0398 23.9044 31.0606 24.4612C30.1038 25.0084 29.211 25.674 28.4078 26.4452C27.6078 27.2132 26.907 28.074 26.3182 29.0116C26.2414 29.1332 26.2158 29.2804 26.2478 29.4244C26.2798 29.5652 26.3662 29.6868 26.491 29.7636L26.4942 29.77Z" fill="white"></path><path d="M41.688 47.623C41.624 47.623 41.56 47.6326 41.4992 47.6518H41.4864C41.3296 47.7094 41.2016 47.8214 41.128 47.9718C41.0544 48.1222 41.0416 48.2918 41.096 48.4486C41.2048 48.7686 41.5632 48.951 41.8864 48.8454C42.0464 48.791 42.1776 48.679 42.2512 48.5286C42.3248 48.3782 42.3376 48.2086 42.2832 48.0486C42.1968 47.7926 41.96 47.623 41.6912 47.623H41.688Z" fill="white"></path><path d="M39.3217 48.4069C39.1969 48.2949 39.0305 48.2437 38.8705 48.2597C37.6385 48.3845 36.3521 48.3205 35.1457 48.0741C34.3617 47.9141 33.5905 47.6741 32.8513 47.3637C32.1313 47.0597 31.4337 46.6789 30.7745 46.2373C30.1281 45.7989 29.5169 45.2965 28.9633 44.7429C28.4097 44.1893 27.9073 43.5813 27.4689 42.9317C27.0273 42.2789 26.6497 41.5813 26.3425 40.8549C26.0321 40.1189 25.7921 39.3477 25.6289 38.5605C25.4657 37.7541 25.3793 36.9253 25.3793 36.0965C25.3793 35.8341 25.4081 35.5557 25.4369 35.2645L25.4625 35.0117C25.4753 34.8549 25.4305 34.7045 25.3281 34.5829C25.2289 34.4613 25.0881 34.3877 24.9313 34.3749C24.7649 34.3621 24.6049 34.4165 24.4833 34.5253C24.3745 34.6245 24.3073 34.7589 24.2945 34.9061C24.2881 34.9893 24.2785 35.0725 24.2689 35.1653C24.2401 35.4405 24.2081 35.7541 24.2081 36.0997C24.2081 37.0085 24.3009 37.9141 24.4801 38.8005C24.5377 39.0853 24.6145 39.3861 24.7137 39.7445L24.7265 39.7957H17.3537L17.3473 39.7669C17.1489 38.9989 16.4577 38.4645 15.6673 38.4645C14.7073 38.4645 13.9297 39.2453 13.9297 40.2021C13.9297 41.1589 14.7105 41.9397 15.6673 41.9397C16.4577 41.9397 17.1489 41.4053 17.3473 40.6373L17.3537 40.6085H24.9889L24.9985 40.6341C25.0881 40.8869 25.1777 41.1109 25.2641 41.3189C25.4497 41.7573 25.6737 42.2117 25.9297 42.6661L25.9617 42.7269H19.3249C19.1009 42.7269 18.9217 42.9093 18.9217 43.1301C18.9217 43.3509 19.1041 43.5333 19.3249 43.5333H26.4577L26.4737 43.5493L26.4993 43.5909C26.9793 44.2981 27.5297 44.9669 28.1345 45.5749C28.7393 46.1797 29.4081 46.7301 30.1185 47.2101C30.8353 47.6933 31.6033 48.1093 32.3937 48.4453C33.2033 48.7877 34.0513 49.0501 34.9089 49.2261C36.2273 49.4949 37.6385 49.5653 38.9889 49.4277C39.1457 49.4117 39.2833 49.3349 39.3825 49.2133C39.4817 49.0917 39.5265 48.9381 39.5105 48.7845C39.4977 48.6405 39.4273 48.5061 39.3185 48.4069H39.3217ZM15.6641 41.1269C15.1521 41.1269 14.7361 40.7109 14.7361 40.1989C14.7361 39.6869 15.1521 39.2709 15.6641 39.2709C16.1761 39.2709 16.5921 39.6869 16.5921 40.1989C16.5921 40.7109 16.1761 41.1269 15.6641 41.1269Z" fill="white"></path><path d="M44.6316 26.1353C44.9132 26.3305 45.3132 26.2537 45.5052 25.9849C45.6012 25.8473 45.6396 25.6841 45.6108 25.5177C45.582 25.3513 45.4924 25.2073 45.3548 25.1113C45.2492 25.0377 45.1244 24.9961 44.9932 24.9961C44.7916 24.9961 44.5996 25.0953 44.4812 25.2617C44.2828 25.5433 44.35 25.9369 44.6316 26.1353V26.1353Z" fill="white"></path><path d="M34.2526 27.9559C34.1246 27.7063 33.8686 27.5527 33.5902 27.5527C33.4782 27.5527 33.3631 27.5815 33.2575 27.6327H33.2478C33.0718 27.7287 32.9407 27.8823 32.8799 28.0743C32.8191 28.2631 32.835 28.4647 32.9278 28.6407C33.0558 28.8903 33.3086 29.0439 33.5902 29.0439C33.7086 29.0439 33.8239 29.0151 33.9295 28.9607C34.2943 28.7719 34.4383 28.3207 34.2495 27.9591L34.2526 27.9559Z" fill="white"></path><path d="M37.6092 26.6592C37.2956 26.6592 36.9788 26.6752 36.6684 26.704C36.4924 26.72 36.3324 26.8064 36.2204 26.944C36.1084 27.0816 36.0572 27.2544 36.0732 27.4304C36.0892 27.5968 36.166 27.7472 36.2876 27.8592C36.4252 27.984 36.614 28.048 36.7964 28.0256C37.0652 28 37.3372 27.9872 37.606 27.9872C38.5916 27.9872 39.5516 28.16 40.4636 28.5056C41.3436 28.8384 42.1532 29.3152 42.8732 29.9328C43.5868 30.544 44.182 31.264 44.6492 32.0768C45.1228 32.9088 45.446 33.808 45.6028 34.752C45.6284 34.9088 45.7084 35.0496 45.83 35.152C45.9772 35.2736 46.1756 35.328 46.3676 35.2992C46.7292 35.2384 46.9724 34.896 46.9148 34.5344C46.7324 33.4336 46.358 32.3872 45.8044 31.4176C45.2636 30.4704 44.566 29.632 43.7372 28.9216C42.902 28.208 41.958 27.648 40.9308 27.2608C39.8716 26.8608 38.7516 26.6592 37.606 26.6592H37.6092Z" fill="white"></path><path d="M45.5679 40.8166C45.5327 40.6438 45.4335 40.4934 45.2831 40.3942C45.1743 40.3206 45.0463 40.2822 44.9151 40.2822C44.6911 40.2822 44.4831 40.3942 44.3615 40.5798C43.6319 41.6742 42.6399 42.583 41.4943 43.2134C40.9119 43.5334 40.2911 43.7798 39.6447 43.9462C38.9823 44.119 38.2943 44.2054 37.6031 44.2054C37.2351 44.2054 36.9375 44.503 36.9375 44.871C36.9375 45.239 37.2351 45.5366 37.6031 45.5366C38.4063 45.5366 39.2063 45.4342 39.9775 45.2358C40.7263 45.0406 41.4495 44.7526 42.1311 44.3814C43.4687 43.6486 44.6207 42.5894 45.4655 41.319C45.5647 41.1718 45.5999 40.9926 45.5647 40.8198L45.5679 40.8166Z" fill="white"></path><path d="M46.3449 37.1937C46.2937 37.1841 46.2457 37.1777 46.1945 37.1777C46.0249 37.1777 45.8585 37.2353 45.7241 37.3409C45.5897 37.4465 45.4969 37.6001 45.4617 37.7665C45.4201 37.9617 45.4585 38.1601 45.5673 38.3265C45.6761 38.4929 45.8425 38.6081 46.0377 38.6497C46.2521 38.6945 46.4857 38.6401 46.6585 38.5025C46.7929 38.3969 46.8857 38.2433 46.9209 38.0769C47.0041 37.6737 46.7481 37.2801 46.3449 37.1937Z" fill="white"></path><path d="M31.4487 29.8214C31.3271 29.7158 31.1703 29.6582 31.0103 29.6582C30.8183 29.6582 30.6359 29.7414 30.5079 29.8854C29.7719 30.727 29.1959 31.6806 28.7959 32.7238C28.3831 33.8022 28.1719 34.9382 28.1719 36.0998C28.1719 37.3734 28.4215 38.6086 28.9143 39.7734C29.1511 40.3334 29.4455 40.8742 29.7847 41.3766C30.1207 41.8758 30.5079 42.3462 30.9367 42.7718C31.1863 43.0214 31.6279 43.0214 31.8775 42.7718C32.0023 42.647 32.0727 42.4806 32.0727 42.3014C32.0727 42.1222 32.0023 41.9558 31.8775 41.831C31.1319 41.0854 30.5495 40.2182 30.1399 39.255C29.7175 38.2566 29.5031 37.1942 29.5031 36.0998C29.5031 35.0982 29.6823 34.1222 30.0375 33.1974C30.3799 32.3078 30.8727 31.4854 31.5095 30.759C31.6279 30.6246 31.6855 30.455 31.6727 30.2758C31.6599 30.0998 31.5799 29.9366 31.4487 29.8214V29.8214Z" fill="white"></path><path d="M37.5282 36.6568C38.8978 36.6568 39.9314 35.0536 39.9314 32.9256C39.9314 30.2024 38.0914 29.9912 37.5282 29.9912C36.965 29.9912 35.125 30.2024 35.125 32.9256C35.125 35.0536 36.1586 36.6568 37.5282 36.6568ZM37.5282 31.0792C38.4114 31.0792 38.8434 31.684 38.8434 32.9256C38.8434 34.484 38.149 35.5688 37.5282 35.5688C36.9074 35.5688 36.213 34.484 36.213 32.9256C36.213 31.684 36.6418 31.0792 37.5282 31.0792V31.0792Z" fill="white"></path><path d="M33.8096 41.3061H41.2464C41.5472 41.3061 41.7904 41.0629 41.7904 40.7621C41.7904 38.1253 40.2192 37.4277 39.3872 37.4277C39.1024 37.4277 38.8688 37.6613 38.8592 37.9557C38.8496 38.2469 39.0864 38.4965 39.384 38.5157C39.5344 38.5253 40.2928 38.6309 40.584 39.7317C40.6128 39.8469 40.5904 39.9717 40.5168 40.0645C40.4432 40.1573 40.3312 40.2149 40.2128 40.2149H34.8432C34.7248 40.2149 34.6128 40.1605 34.5392 40.0645C34.4656 39.9685 34.44 39.8469 34.472 39.7317C34.7632 38.6309 35.528 38.5253 35.6784 38.5157C35.976 38.5093 36.2128 38.2629 36.2128 37.9717C36.2128 37.6805 35.9696 37.4277 35.6688 37.4277C34.8368 37.4277 33.2656 38.1253 33.2656 40.7621C33.2656 41.0629 33.5088 41.3061 33.8096 41.3061V41.3061Z" fill="white"></path></g><path fill-rule="evenodd" clip-rule="evenodd" d="M365 0.999936H375C391.568 0.999936 405 14.4311 405 30.9999V40.9999C405 57.5682 391.568 70.9998 375 70.9998H365C348.431 70.9998 335 57.5682 335 40.9999V30.9999C335 14.4311 348.431 0.999936 365 0.999936Z" fill="white"></path><path fill-rule="evenodd" clip-rule="evenodd" d="M370.5 16.9999C385.135 16.9999 397 28.8644 397 43.4999C397 58.1353 385.135 69.9999 370.5 69.9999C355.864 69.9999 344 58.1353 344 43.4999C344 28.8644 355.864 16.9999 370.5 16.9999Z" fill="url(#paint2_linear_7350_18869)"></path><path fill-rule="evenodd" clip-rule="evenodd" d="M366 0.999936H376C392.568 0.999936 406 14.4311 406 30.9999V40.9999C406 57.5682 392.568 70.9998 376 70.9998H366C349.431 70.9998 336 57.5682 336 40.9999V30.9999C336 14.4311 349.431 0.999936 366 0.999936Z" fill="url(#paint3_linear_7350_18869)"></path><path d="M367.141 50.5408C367.099 50.5408 367.055 50.5376 367.01 50.528C361.131 49.3344 356.559 44.7616 355.365 38.88C355.33 38.7104 355.365 38.5408 355.458 38.4C355.551 38.256 355.698 38.16 355.864 38.1248C355.899 38.1184 355.941 38.1152 355.983 38.1152C356.29 38.1152 356.559 38.3296 356.619 38.6272C357.711 44.0032 361.89 48.1856 367.269 49.2768C367.615 49.3472 367.839 49.6864 367.768 50.032C367.707 50.3296 367.445 50.544 367.141 50.544V50.5408Z" fill="white"></path><path d="M372.859 50.5421C372.555 50.5421 372.292 50.3277 372.232 50.0301C372.161 49.6845 372.385 49.3453 372.731 49.2749C378.107 48.1837 382.289 44.0045 383.38 38.6253C383.441 38.3309 383.707 38.1133 384.017 38.1133C384.059 38.1133 384.1 38.1165 384.142 38.1261C384.305 38.1581 384.449 38.2573 384.545 38.3981C384.638 38.5421 384.673 38.7117 384.638 38.8781C383.444 44.7597 378.872 49.3325 372.99 50.5261C372.948 50.5325 372.904 50.5389 372.862 50.5389L372.859 50.5421Z" fill="white"></path><path d="M384.008 33.6778C383.707 33.6778 383.441 33.4634 383.38 33.1658C382.289 27.7898 378.11 23.6106 372.731 22.5162C372.385 22.4458 372.161 22.1066 372.232 21.761C372.292 21.4634 372.558 21.249 372.868 21.249C372.91 21.249 372.952 21.2522 372.993 21.2618C378.872 22.4554 383.444 27.0282 384.638 32.9098C384.673 33.0794 384.638 33.249 384.545 33.3898C384.452 33.5338 384.305 33.6298 384.139 33.665C384.097 33.6714 384.052 33.6778 384.011 33.6778H384.008Z" fill="white"></path><path d="M355.992 33.6778C355.951 33.6778 355.906 33.6746 355.861 33.665C355.698 33.633 355.554 33.5338 355.458 33.393C355.365 33.249 355.33 33.0794 355.365 32.913C356.559 27.0282 361.131 22.4554 367.013 21.2586C367.048 21.2522 367.09 21.249 367.131 21.249C367.442 21.249 367.707 21.4634 367.768 21.761C367.839 22.1066 367.615 22.4458 367.269 22.5162C361.89 23.6074 357.711 27.7866 356.619 33.1658C356.559 33.4634 356.296 33.6778 355.992 33.6778V33.6778Z" fill="white"></path><path d="M369.997 50.8297C369.645 50.8297 369.357 50.5417 369.357 50.1897V47.2841C369.357 47.1209 369.232 46.9865 369.069 46.9737C366.461 46.7561 364 45.6137 362.141 43.7545C360.282 41.8953 359.139 39.4345 358.922 36.8265C358.909 36.6633 358.771 36.5385 358.611 36.5385H355.702C355.35 36.5385 355.062 36.2505 355.062 35.8985C355.062 35.5465 355.35 35.2585 355.702 35.2585H358.611C358.774 35.2585 358.909 35.1337 358.922 34.9705C359.139 32.3625 360.282 29.9017 362.141 28.0425C364 26.1833 366.461 25.0409 369.069 24.8233C369.232 24.8105 369.357 24.6729 369.357 24.5129V21.6009C369.357 21.2489 369.645 20.9609 369.997 20.9609C370.349 20.9609 370.637 21.2489 370.637 21.6009V24.5097C370.637 24.6729 370.762 24.8073 370.925 24.8201C373.533 25.0377 375.994 26.1801 377.853 28.0393C379.712 29.8985 380.854 32.3593 381.072 34.9673C381.085 35.1305 381.222 35.2553 381.382 35.2553H384.288C384.64 35.2553 384.928 35.5433 384.928 35.8953C384.928 36.2473 384.64 36.5353 384.288 36.5353H381.382C381.219 36.5353 381.085 36.6601 381.072 36.8233C380.854 39.4313 379.712 41.8921 377.853 43.7513C375.994 45.6105 373.533 46.7529 370.925 46.9705C370.762 46.9833 370.637 47.1209 370.637 47.2809V50.1865C370.637 50.5385 370.349 50.8265 369.997 50.8265V50.8297ZM369.997 26.0553C364.57 26.0553 360.157 30.4713 360.157 35.8953C360.157 41.3193 364.573 45.7353 369.997 45.7353C375.421 45.7353 379.837 41.3193 379.837 35.8953C379.837 30.4713 375.421 26.0553 369.997 26.0553Z" fill="white"></path><path d="M370.006 40.1126C367.561 40.1126 365.57 38.1222 365.57 35.6774C365.57 33.2326 367.561 31.2422 370.006 31.2422C372.45 31.2422 374.441 33.2326 374.441 35.6774C374.441 38.1222 372.45 40.1126 370.006 40.1126ZM370.006 32.5254C368.268 32.5254 366.857 33.9398 366.857 35.6742C366.857 37.4086 368.271 38.823 370.006 38.823C371.74 38.823 373.154 37.4086 373.154 35.6742C373.154 33.9398 371.74 32.5254 370.006 32.5254V32.5254Z" fill="white"></path><path fill-rule="evenodd" clip-rule="evenodd" d="M701 0.999936H711C727.568 0.999936 741 14.4311 741 30.9999V40.9999C741 57.5682 727.568 70.9998 711 70.9998H701C684.431 70.9998 671 57.5682 671 40.9999V30.9999C671 14.4311 684.431 0.999936 701 0.999936Z" fill="white"></path><path fill-rule="evenodd" clip-rule="evenodd" d="M706.5 16.9999C721.135 16.9999 733 28.8644 733 43.4999C733 58.1353 721.135 69.9999 706.5 69.9999C691.864 69.9999 680 58.1353 680 43.4999C680 28.8644 691.864 16.9999 706.5 16.9999Z" fill="url(#paint4_linear_7350_18869)"></path><path fill-rule="evenodd" clip-rule="evenodd" d="M701 0.999936H711C727.568 0.999936 741 14.4311 741 30.9999V40.9999C741 57.5682 727.568 70.9998 711 70.9998H701C684.431 70.9998 671 57.5682 671 40.9999V30.9999C671 14.4311 684.431 0.999936 701 0.999936Z" fill="url(#paint5_linear_7350_18869)"></path><path d="M688.273 38.6337C688.293 38.4673 688.315 38.2977 688.337 38.1377C688.315 38.3009 688.293 38.4673 688.273 38.6337Z" fill="white"></path><path d="M689.07 35.1869C689.086 35.1517 689.106 35.1101 689.122 35.0781C689.102 35.1101 689.086 35.1517 689.07 35.1869Z" fill="white"></path><path d="M689.234 34.9022C689.247 34.8798 689.263 34.8542 689.276 34.835C689.263 34.8542 689.247 34.8798 689.234 34.9022Z" fill="white"></path><path d="M688.156 39.8687C688.172 39.6767 688.188 39.4847 688.204 39.2959C688.185 39.4847 688.169 39.6767 688.156 39.8687Z" fill="white"></path><path d="M689.406 34.6909C689.406 34.6909 689.422 34.6717 689.432 34.6621C689.422 34.6685 689.416 34.6813 689.406 34.6909Z" fill="white"></path><path d="M688.445 37.4428C688.468 37.318 688.49 37.19 688.513 37.0684C688.49 37.19 688.468 37.3148 688.445 37.4428Z" fill="white"></path><path d="M688.664 36.3866C688.686 36.3002 688.706 36.2138 688.728 36.1338C688.706 36.2138 688.686 36.3034 688.664 36.3866Z" fill="white"></path><path d="M688.93 35.52C688.949 35.472 688.965 35.4208 688.984 35.376C688.965 35.4208 688.949 35.472 688.93 35.52Z" fill="white"></path><path d="M688.211 39.2542C688.23 39.0718 688.249 38.8862 688.269 38.707C688.246 38.8862 688.23 39.0686 688.211 39.2542Z" fill="white"></path><path d="M688.082 41.8973C688.069 41.8653 688.066 41.8301 688.062 41.7949C688.062 41.8301 688.069 41.8653 688.082 41.8973Z" fill="white"></path><path d="M688.797 35.9266C688.816 35.8626 688.835 35.7922 688.854 35.7314C688.835 35.7922 688.816 35.8626 688.797 35.9266Z" fill="white"></path><path d="M688.369 42.0928C688.286 42.0928 688.206 42.0608 688.148 42C688.206 42.0608 688.286 42.0928 688.369 42.0928Z" fill="white"></path><path d="M693.067 42.093C693.025 42.093 692.984 42.0834 692.945 42.0674C692.984 42.0834 693.022 42.093 693.067 42.093Z" fill="white"></path><path d="M691.188 42.0926C691.357 42.0926 691.495 41.955 691.495 41.7822C691.495 41.955 691.357 42.0926 691.188 42.0926Z" fill="white"></path><path d="M692.123 37.3662C691.774 37.3662 691.492 37.651 691.492 37.9998C691.492 37.651 691.777 37.3662 692.123 37.3662C692.385 37.3662 692.609 37.5262 692.705 37.7534C692.609 37.5262 692.385 37.3662 692.123 37.3662Z" fill="white"></path><path d="M688.352 38.0346C688.374 37.8842 688.396 37.7338 688.419 37.5898C688.396 37.7338 688.374 37.8842 688.352 38.0346Z" fill="white"></path><path d="M692.688 33.4044C692.688 33.4044 692.691 33.3948 692.694 33.3916C692.694 33.3948 692.691 33.4012 692.688 33.4044Z" fill="white"></path><path d="M688.152 39.8975C688.104 40.5215 688.075 41.1551 688.062 41.7759C688.062 41.7599 688.062 41.7439 688.062 41.7247C688.075 41.1199 688.104 40.5023 688.152 39.8975Z" fill="white"></path><path d="M688.547 36.8924C688.569 36.7868 688.588 36.6812 688.614 36.582C688.592 36.6812 688.569 36.7868 688.547 36.8924Z" fill="white"></path><path d="M714.301 40.8314C713.894 40.4186 713.408 40.201 712.89 40.201H712.611C712.49 40.201 712.378 40.2042 712.272 40.2042C711.459 40.2042 711.018 40.1338 710.458 39.4778C710.336 39.337 710.163 39.2538 709.978 39.2538C709.827 39.2538 709.68 39.3082 709.568 39.4074C709.44 39.5194 709.36 39.673 709.347 39.8426C709.334 40.0122 709.389 40.1754 709.498 40.3034C710.419 41.385 711.312 41.4746 712.301 41.4746C712.403 41.4746 712.509 41.4746 712.614 41.4746H712.883C712.998 41.4746 713.174 41.5002 713.398 41.7274C714.787 43.1386 714.96 48.7066 714.973 49.337C714.973 49.4202 714.944 49.5002 714.886 49.561C714.829 49.6218 714.749 49.6538 714.666 49.6538H711.853C711.683 49.6538 711.546 49.5162 711.546 49.3434V45.5642C711.546 45.2154 711.261 44.9306 710.915 44.9306C710.57 44.9306 710.285 45.2154 710.285 45.5642V49.3434C710.285 49.5162 710.147 49.6538 709.978 49.6538H702.461C702.291 49.6538 702.154 49.5162 702.154 49.3434V45.5642C702.154 45.2154 701.869 44.9306 701.523 44.9306C701.178 44.9306 700.893 45.2154 700.893 45.5642V49.3434C700.893 49.5162 700.755 49.6538 700.586 49.6538H697.773C697.69 49.6538 697.61 49.6218 697.552 49.561C697.494 49.5002 697.462 49.4202 697.466 49.337C697.488 48.3834 697.651 43.8586 698.758 42.0954H693.066C693.024 42.0954 692.982 42.0858 692.944 42.0698C692.832 42.0218 692.755 41.913 692.755 41.785V38.0058C692.755 37.9194 692.736 37.8362 692.704 37.7594C692.608 37.5322 692.384 37.3722 692.122 37.3722C691.773 37.3722 691.491 37.657 691.491 38.0058V41.785C691.491 41.9578 691.354 42.0954 691.184 42.0954H688.371C688.288 42.0954 688.208 42.0634 688.15 42.0026C688.122 41.9738 688.099 41.9386 688.083 41.9002C688.07 41.8682 688.067 41.833 688.064 41.7978C688.064 41.7914 688.061 41.785 688.061 41.7786C688.074 41.1578 688.102 40.5242 688.15 39.9002C688.15 39.8906 688.15 39.881 688.15 39.8714C688.166 39.6794 688.182 39.4874 688.198 39.2986C688.198 39.2858 688.198 39.2698 688.202 39.257C688.221 39.0746 688.24 38.889 688.259 38.7098C688.259 38.6842 688.266 38.6618 688.269 38.6362C688.288 38.4698 688.31 38.3002 688.333 38.1402C688.336 38.105 688.342 38.073 688.349 38.0378C688.371 37.8874 688.394 37.737 688.416 37.593C688.426 37.5418 688.432 37.497 688.442 37.4458C688.464 37.321 688.486 37.193 688.509 37.0714C688.522 37.0106 688.534 36.953 688.547 36.8954C688.57 36.7898 688.589 36.6842 688.614 36.585C688.63 36.5178 688.646 36.457 688.662 36.3898C688.685 36.3034 688.704 36.217 688.726 36.137C688.746 36.0634 688.768 35.9962 688.79 35.929C688.81 35.865 688.829 35.7946 688.848 35.7338C688.874 35.6602 688.899 35.593 688.925 35.5258C688.944 35.4778 688.96 35.4266 688.979 35.3818C689.008 35.3114 689.04 35.2538 689.069 35.1898C689.085 35.1546 689.104 35.113 689.12 35.081C689.155 35.017 689.19 34.9626 689.229 34.9082C689.242 34.8858 689.258 34.8602 689.27 34.841C689.312 34.7834 689.357 34.7386 689.405 34.6938C689.414 34.6842 689.421 34.6746 689.43 34.665C689.485 34.6202 689.539 34.585 689.597 34.5626C689.632 34.5498 689.667 34.5434 689.706 34.5434L690.042 34.5498C690.154 34.5498 690.262 34.5562 690.371 34.5562C691.059 34.5562 691.795 34.4762 692.598 33.5418C692.634 33.5002 692.659 33.4586 692.682 33.4138C692.682 33.4106 692.685 33.4042 692.688 33.401C692.752 33.2634 692.758 33.1066 692.717 32.9594C692.72 32.9626 692.726 32.9658 692.73 32.969C692.698 32.8474 692.634 32.7354 692.531 32.6458C692.416 32.5466 692.269 32.4922 692.118 32.4922C691.936 32.4922 691.76 32.5722 691.642 32.713C691.219 33.2058 690.957 33.289 690.374 33.289C690.282 33.289 690.179 33.289 690.061 33.2858H689.693C689.392 33.2826 688.941 33.3754 688.512 33.8106C687.194 35.1482 686.762 39.4554 686.79 42.7386C686.79 43.0842 687.075 43.369 687.421 43.369H696.512C696.608 43.369 696.694 43.4138 696.755 43.4874C696.813 43.561 696.835 43.6602 696.813 43.753C696.179 46.3866 696.182 49.6698 696.189 50.3002C696.192 50.6458 696.477 50.9274 696.819 50.9274H715.613C715.958 50.9274 716.24 50.6458 716.243 50.297C716.278 46.8826 715.789 42.3546 714.294 40.8378L714.301 40.8314Z" fill="white"></path><path d="M688.266 38.7074C688.266 38.6818 688.272 38.6594 688.275 38.6338C688.275 38.6594 688.269 38.6818 688.266 38.7074Z" fill="white"></path><path d="M688.153 41.9969C688.124 41.9681 688.102 41.9329 688.086 41.8945C688.102 41.9329 688.124 41.9681 688.153 41.9969Z" fill="white"></path><path d="M688.336 38.1376C688.339 38.1024 688.346 38.0704 688.352 38.0352C688.346 38.0704 688.342 38.1024 688.336 38.1376Z" fill="white"></path><path d="M688.852 35.7314C688.877 35.6578 688.903 35.5906 688.928 35.5234C688.903 35.5938 688.877 35.6578 688.852 35.7314Z" fill="white"></path><path d="M692.602 33.5362C692.637 33.4946 692.662 33.453 692.685 33.4082C692.662 33.453 692.637 33.4978 692.602 33.5362Z" fill="white"></path><path d="M689.713 34.541C689.674 34.541 689.639 34.5474 689.604 34.5602C689.546 34.5826 689.492 34.6178 689.438 34.6626C689.492 34.6178 689.546 34.5826 689.604 34.5602C689.639 34.5474 689.674 34.541 689.713 34.541Z" fill="white"></path><path d="M690.377 34.5499C690.268 34.5499 690.159 34.5499 690.047 34.5435L689.711 34.5371L690.047 34.5435C690.159 34.5435 690.268 34.5499 690.377 34.5499Z" fill="white"></path><path d="M692.754 41.7824V38.0032C692.754 37.9168 692.735 37.8336 692.703 37.7568C692.735 37.8336 692.754 37.9168 692.754 38.0032V41.7824C692.754 41.9104 692.831 42.0224 692.943 42.0672C692.831 42.0192 692.754 41.9104 692.754 41.7824Z" fill="white"></path><path d="M692.688 33.3918C692.751 33.2542 692.768 33.1038 692.729 32.9598C692.726 32.9566 692.72 32.9534 692.716 32.9502C692.758 33.0974 692.751 33.251 692.688 33.3918Z" fill="white"></path><path d="M699.55 41.4722H699.819C699.937 41.4722 700.052 41.4754 700.164 41.4754C701.137 41.4754 702.014 41.389 702.939 40.3042C703.047 40.1762 703.102 40.013 703.089 39.8434C703.076 39.6738 702.999 39.5202 702.871 39.4114C702.756 39.3122 702.609 39.2578 702.459 39.2578C702.273 39.2578 702.1 39.3378 701.982 39.4786C701.415 40.1378 700.996 40.205 700.103 40.205C700.017 40.205 699.55 40.205 699.55 40.205C699.031 40.205 698.542 40.4226 698.139 40.8354C697.886 41.0914 697.655 41.4466 697.435 41.917C697.383 42.0258 697.275 42.093 697.156 42.093H698.756C698.846 41.9522 698.939 41.8274 699.038 41.725C699.262 41.4978 699.438 41.4722 699.553 41.4722H699.55Z" fill="white"></path><path d="M688.984 35.3756C689.013 35.3052 689.045 35.2476 689.074 35.1836C689.045 35.2444 689.013 35.3052 688.984 35.3756Z" fill="white"></path><path d="M688.617 36.5819C688.633 36.5147 688.649 36.4539 688.665 36.3867C688.649 36.4507 688.633 36.5147 688.617 36.5819Z" fill="white"></path><path d="M688.516 37.0686C688.528 37.0078 688.541 36.9502 688.554 36.8926C688.541 36.9534 688.528 37.0078 688.516 37.0686Z" fill="white"></path><path d="M689.273 34.8347C689.315 34.7771 689.36 34.7323 689.408 34.6875C689.363 34.7291 689.318 34.7739 689.273 34.8347Z" fill="white"></path><path d="M688.727 36.1338C688.746 36.0602 688.768 35.993 688.791 35.9258C688.768 35.9962 688.749 36.0602 688.727 36.1338Z" fill="white"></path><path d="M689.125 35.0751C689.16 35.0111 689.195 34.9567 689.234 34.9023C689.199 34.9567 689.16 35.0111 689.125 35.0751Z" fill="white"></path><path d="M688.422 37.5906C688.431 37.5394 688.438 37.4946 688.447 37.4434C688.438 37.4914 688.428 37.5394 688.422 37.5906Z" fill="white"></path><path d="M695.964 31.5486C698.082 31.5486 699.743 29.0558 699.743 25.875C699.743 23.0686 698.367 21.459 695.964 21.459C693.56 21.459 692.188 23.0686 692.188 25.875C692.188 29.0558 693.845 31.5486 695.964 31.5486ZM695.964 22.7294C697.656 22.7294 698.479 23.7566 698.479 25.875C698.479 28.5086 697.18 30.2782 695.964 30.2782C694.747 30.2782 693.448 28.5086 693.448 25.875C693.448 23.7598 694.271 22.7294 695.964 22.7294V22.7294Z" fill="white"></path><path d="M716.451 31.5769C714.333 31.5769 712.672 29.0841 712.672 25.9033C712.672 23.0969 714.048 21.4873 716.451 21.4873C718.854 21.4873 720.227 23.0969 720.227 25.9033C720.227 29.0841 718.569 31.5769 716.451 31.5769ZM716.451 22.7577C714.758 22.7577 713.936 23.7849 713.936 25.9033C713.936 28.5369 715.235 30.3065 716.451 30.3065C717.667 30.3065 718.966 28.5369 718.966 25.9033C718.966 23.7881 718.144 22.7577 716.451 22.7577V22.7577Z" fill="white"></path><path d="M696.796 50.9474C696.451 50.9474 696.169 50.6658 696.166 50.317C696.131 46.9026 696.62 42.3746 698.115 40.8578C698.521 40.445 699.007 40.2274 699.526 40.2274H699.804C699.923 40.2274 700.038 40.2306 700.143 40.2306C700.956 40.2306 701.398 40.1602 701.958 39.5042C702.079 39.3634 702.252 39.2802 702.438 39.2802C702.588 39.2802 702.732 39.3346 702.847 39.4338C702.975 39.5458 703.055 39.6994 703.068 39.869C703.081 40.0386 703.027 40.2018 702.918 40.3298C701.996 41.4114 701.103 41.501 700.115 41.501C700.012 41.501 699.907 41.501 699.801 41.501H699.532C699.417 41.501 699.241 41.5266 699.017 41.7538C697.628 43.165 697.455 48.733 697.443 49.3634C697.443 49.4466 697.471 49.5266 697.529 49.5874C697.587 49.6482 697.667 49.6802 697.75 49.6802H700.563C700.732 49.6802 700.87 49.5426 700.87 49.3698V45.5906C700.87 45.2418 701.151 44.957 701.5 44.957C701.849 44.957 702.131 45.2418 702.131 45.5906V49.3698C702.131 49.5426 702.268 49.6802 702.438 49.6802H709.955C710.124 49.6802 710.262 49.5426 710.262 49.3698V45.5906C710.262 45.2418 710.547 44.957 710.892 44.957C711.238 44.957 711.523 45.2418 711.523 45.5906V49.3698C711.523 49.5426 711.66 49.6802 711.83 49.6802H714.643C714.726 49.6802 714.806 49.645 714.863 49.5874C714.921 49.5266 714.953 49.4466 714.95 49.3634C714.927 48.3362 714.739 43.1362 713.375 41.7538C713.151 41.5266 712.975 41.501 712.86 41.501H712.591C712.473 41.501 712.358 41.5042 712.246 41.5042C711.273 41.5042 710.396 41.4178 709.471 40.333C709.363 40.205 709.308 40.0418 709.321 39.8722C709.334 39.7026 709.411 39.549 709.539 39.4402C709.654 39.341 709.801 39.2866 709.951 39.2866C710.137 39.2866 710.31 39.3666 710.428 39.5074C710.995 40.1666 711.414 40.2338 712.307 40.2338C712.393 40.2338 712.863 40.2338 712.863 40.2338C713.382 40.2338 713.871 40.4514 714.275 40.8642C714.527 41.1202 714.758 41.4754 714.979 41.9458C715.03 42.0546 715.139 42.1218 715.257 42.1218H719.35C719.519 42.1218 719.657 41.9842 719.657 41.8114V38.0322C719.657 37.6834 719.939 37.3986 720.287 37.3986C720.636 37.3986 720.918 37.6834 720.918 38.0322V41.8114C720.918 41.9842 721.055 42.1218 721.225 42.1218H724.041C724.124 42.1218 724.204 42.0898 724.262 42.029C724.319 41.9682 724.351 41.8882 724.351 41.805C724.291 38.5666 723.731 34.9378 722.812 34.589C722.777 34.5762 722.742 34.5698 722.703 34.5698L722.367 34.5762C722.255 34.5762 722.147 34.5826 722.038 34.5826C721.35 34.5826 720.614 34.5026 719.811 33.5682C719.583 33.3026 719.612 32.8994 719.878 32.6722C719.993 32.573 720.14 32.5186 720.291 32.5186C720.473 32.5186 720.649 32.5986 720.767 32.7394C721.19 33.2322 721.452 33.3154 722.035 33.3154C722.127 33.3154 722.23 33.3154 722.348 33.3122H722.716C723.017 33.309 723.468 33.4018 723.897 33.837C725.215 35.1746 725.647 39.4818 725.619 42.765C725.619 43.1106 725.334 43.3954 724.988 43.3954H715.897C715.801 43.3954 715.715 43.4402 715.654 43.5138C715.593 43.5874 715.574 43.6866 715.596 43.7794C716.23 46.413 716.227 49.6962 716.22 50.3266C716.217 50.6722 715.932 50.9538 715.59 50.9538H696.796V50.9474Z" fill="white"></path><path d="M714.648 36.5278C714.242 36.3614 713.928 36.1118 713.928 36.1118C713.912 36.099 713.893 36.083 713.877 36.0734C713.81 36.0286 712.216 34.931 712.239 31.9582C712.264 28.5886 711.234 27.1646 711.02 26.9022C710.77 26.5598 708.559 23.6862 704.764 24.6174C700.808 25.5838 700.386 28.9886 700.37 29.1134C700.364 29.1518 700.232 30.1182 699.89 33.6862C699.74 35.2542 699.125 36.275 698.159 36.5598C697.813 36.6622 697.57 36.9598 697.535 37.3182C697.503 37.6766 697.688 38.0126 698.008 38.1758C698.594 38.4734 699.4 38.7422 700.408 38.9758C700.783 39.0622 701.135 39.1006 701.468 39.1006C702.831 39.1006 703.82 38.467 704.309 38.0638C705.983 38.9598 707.458 38.3358 708.146 37.923C708.648 38.323 709.644 38.9086 711.224 38.9854C712.892 39.0654 714.165 38.4574 714.776 38.0862C715.061 37.9134 715.221 37.603 715.196 37.2734C715.17 36.9406 714.962 36.6558 714.652 36.531L714.648 36.5278ZM706.213 37.1678C704.508 37.1678 703.068 34.691 703.068 31.7566C703.068 31.6446 703.068 31.5358 703.074 31.4302C703.087 31.0974 703.282 30.803 703.573 30.6494C704.261 30.2878 704.965 29.827 705.599 29.2542C705.983 28.9086 706.568 28.9406 706.92 29.315C707.455 29.8878 708.085 30.419 708.799 30.7678C709.128 30.9278 709.349 31.2478 709.356 31.6126C709.356 31.6574 709.356 31.7054 709.356 31.7534C709.356 34.6878 707.916 37.1646 706.21 37.1646L706.213 37.1678ZM711.285 37.7022C710.098 37.6446 709.378 37.2478 709.004 36.963C709.996 35.747 710.623 33.8846 710.623 31.7566C710.623 31.5582 710.616 31.3726 710.607 31.1902C710.594 30.9918 710.578 30.7998 710.556 30.6174C710.508 30.2366 710.239 29.923 709.868 29.8206C709.528 29.7278 709.205 29.5678 708.898 29.363C708.389 29.0238 707.932 28.5662 707.538 28.0926C707.461 27.9998 707.388 27.9038 707.314 27.811L706.994 27.4494C706.61 27.0142 705.932 27.0238 705.56 27.4686C705.404 27.6542 705.231 27.8494 705.052 28.035C704.952 28.1342 704.853 28.2302 704.754 28.3198C704.725 28.3454 704.7 28.3678 704.674 28.387C704.639 28.4158 704.607 28.4446 704.572 28.4734C704.556 28.4862 704.543 28.4958 704.533 28.5054C704.482 28.547 704.431 28.5854 704.38 28.6206C704.149 28.803 703.909 28.9694 703.666 29.1198C703.253 29.379 702.831 29.5998 702.431 29.7854C702.143 29.9166 701.938 30.1822 701.896 30.4958C701.855 30.7838 701.829 31.0942 701.82 31.4238C701.816 31.5326 701.813 31.6446 701.813 31.7598C701.813 33.9486 702.476 35.8526 703.519 37.0654C703.064 37.4526 702.092 38.0542 700.706 37.731C700.175 37.6062 699.749 37.4846 699.416 37.3694C700.178 36.8542 700.981 35.8302 701.173 33.811C701.509 30.2878 701.644 29.3022 701.647 29.2766C701.647 29.251 701.976 26.6206 705.074 25.8654C708.156 25.1134 709.922 27.5646 709.996 27.667C710.012 27.6894 710.024 27.7086 710.044 27.7278C710.053 27.7374 710.991 28.883 710.968 31.955C710.94 35.4654 712.866 36.931 713.157 37.1326C713.202 37.1678 713.304 37.2446 713.445 37.3342C712.904 37.555 712.165 37.7534 711.295 37.7086L711.285 37.7022Z" fill="white"></path><g opacity="0.7"><path opacity="0.7" d="M98 41.4482C98 41.4482 200.24 -30.5518 314 41.4482" stroke="#484B58" stroke-width="2" stroke-linecap="round" stroke-linejoin="round" stroke-dasharray="4 4"></path></g><g opacity="0.7"><path opacity="0.7" d="M429 39.4482C429 39.4482 531.24 111.448 645 39.4482" stroke="#484B58" stroke-width="2" stroke-linecap="round" stroke-linejoin="round" stroke-dasharray="4 4"></path></g><defs><linearGradient id="paint0_linear_7350_18869" x1="22.5352" y1="16" x2="64" y2="71" gradientUnits="userSpaceOnUse"><stop stop-color="#008FBF"></stop><stop offset="1" stop-color="#7E3A77"></stop></linearGradient><linearGradient id="paint1_linear_7350_18869" x1="17.7187" y1="2.33128e-06" x2="72" y2="72" gradientUnits="userSpaceOnUse"><stop stop-color="#008FBF"></stop><stop offset="1" stop-color="#7E3A77"></stop></linearGradient><linearGradient id="paint2_linear_7350_18869" x1="356.535" y1="16" x2="398" y2="71" gradientUnits="userSpaceOnUse"><stop stop-color="#008FBF"></stop><stop offset="1" stop-color="#7E3A77"></stop></linearGradient><linearGradient id="paint3_linear_7350_18869" x1="352.719" y1="2.33128e-06" x2="407" y2="72" gradientUnits="userSpaceOnUse"><stop stop-color="#008FBF"></stop><stop offset="1" stop-color="#7E3A77"></stop></linearGradient><linearGradient id="paint4_linear_7350_18869" x1="692.535" y1="16" x2="734" y2="71" gradientUnits="userSpaceOnUse"><stop stop-color="#008FBF"></stop><stop offset="1" stop-color="#7E3A77"></stop></linearGradient><linearGradient id="paint5_linear_7350_18869" x1="687.719" y1="2.33128e-06" x2="742" y2="72" gradientUnits="userSpaceOnUse"><stop stop-color="#008FBF"></stop><stop offset="1" stop-color="#7E3A77"></stop></linearGradient><clipPath id="clip0_7350_18869"><rect width="44.8224" height="32" fill="white" transform="translate(13 20)"></rect></clipPath></defs></svg> 