<svg width="1020" height="1020" viewBox="0 0 1020 1020" fill="none" xmlns="http://www.w3.org/2000/svg">
	<path d="M861.712 138.366C1065.69 331.249 1073.56 653.967 879.317 859.172C685.075 1064.38 362.261 1074.38 158.282 881.499C-45.6813 688.616 -53.5641 365.897 140.677 160.692C334.919 -44.5126 657.733 -54.5172 861.712 138.366Z" fill="url(#paint0_radial_7381_18771)"/>
	<path opacity="0.4" d="M875.447 632.568C872.229 633.98 870.441 633.892 868.295 633.363C866.149 632.921 860.159 632.039 857.567 633.01C854.974 633.981 852.828 638.129 848.805 639.718C844.782 641.307 841.027 645.014 840.312 646.427C839.686 647.839 837.093 650.134 837.362 648.987C837.719 647.839 837.004 644.308 836.378 644.132C835.752 643.955 830.835 642.013 826.812 642.19C822.789 642.366 818.855 645.103 818.05 647.486C817.246 649.869 812.329 659.226 811.882 660.815C811.435 662.404 806.696 663.551 804.729 664.169C802.762 664.787 802.941 663.993 802.941 662.757C802.941 661.521 805.087 661.344 807.322 658.785C809.557 656.225 812.865 651.105 814.295 648.633C815.726 646.25 814.295 645.544 811.703 646.427C809.11 647.221 805.355 649.34 804.908 650.399C804.461 651.546 801.332 657.284 800.706 657.814C800.08 658.255 798.739 657.637 798.56 656.401C798.382 655.077 798.918 651.105 799.991 648.987C801.153 646.868 801.958 643.514 803.388 641.572C804.819 639.63 802.941 638.041 801.779 637.864C800.617 637.688 798.65 634.687 798.382 633.186C798.024 631.774 791.408 623.829 790.246 622.77C789.084 621.622 784.256 622.594 781.484 622.152C778.713 621.711 770.935 621.358 767.984 623.3C765.034 625.242 758.508 629.39 751.713 629.567C744.918 629.743 740.985 627.978 740.18 626.831C739.375 625.683 736.783 622.152 734.011 620.563C731.24 618.974 725.25 621.093 725.25 621.093C725.25 621.093 722.21 621.093 722.121 620.034C722.031 618.974 721.763 615.444 720.332 614.296C718.902 613.06 714.342 612.266 711.839 612.531C709.246 612.795 705.491 611.913 705.491 611.913C705.491 611.913 706.922 610.5 708.889 609.706C710.856 609 710.23 607.676 710.23 606.616C710.23 605.557 705.134 608.382 701.915 609.883C698.786 611.295 693.601 620.034 691.098 621.534C688.505 623.123 683.051 622.594 680.995 621.799C678.939 620.916 677.598 621.799 675.273 623.035C672.949 624.271 665.886 626.654 664.455 626.654C663.025 626.654 659.717 624.359 659.449 623.035C659.181 621.711 656.409 619.769 653.459 620.475C650.508 621.181 647.826 623.123 647.826 623.123C647.826 623.123 647.469 621.799 647.469 620.475C647.469 619.151 646.575 617.209 644.161 617.827C641.747 618.445 644.518 620.21 645.502 620.563C646.485 620.916 646.128 623.829 646.128 623.829C646.128 623.829 638.886 628.596 637.366 629.92C635.846 631.244 637.366 635.216 638.707 636.893C640.048 638.571 642.283 641.307 641.121 643.337C640.048 645.367 637.366 646.427 635.757 645.897C634.058 645.367 632.807 642.631 632.449 640.159C632.091 637.776 632.449 634.687 632.27 633.01C632.091 631.332 630.214 630.803 629.856 629.126C629.499 627.448 630.571 627.272 632.27 625.595C633.969 623.918 635.578 623.388 636.204 620.828C636.74 618.268 634.684 619.151 631.734 619.151C628.783 619.151 627.979 623.035 626.548 625.065C625.028 627.095 623.598 629.832 619.843 632.745C616.088 635.658 611.26 635.834 610.009 635.834C608.757 635.834 607.774 636.717 606.88 638.217C605.985 639.718 602.946 642.454 601.694 643.337C600.353 644.22 603.75 647.574 603.929 649.428C604.108 651.282 603.214 652.517 599.28 654.901C595.346 657.284 595.704 660.197 595.704 661.521C595.704 662.845 597.582 665.935 596.777 666.641C596.062 667.347 594.363 666.464 593.827 665.317C593.29 664.257 590.697 662.404 587.658 661.256C584.707 660.197 581.131 658.343 576.304 657.019C571.476 655.695 569.062 657.372 567.542 658.52C566.022 659.579 562.714 664.964 559.764 666.023C556.814 667.082 550.824 666.552 548.41 666.023C545.996 665.493 539.469 663.816 537.592 661.786C535.714 659.756 531.781 654.636 530.35 653.312C528.83 651.988 529.009 647.045 529.009 644.308C529.009 641.572 529.009 622.593 529.188 620.828C529.367 618.974 527.668 618.621 526.238 618.621C524.807 618.621 522.304 616.591 519.711 614.737C517.118 612.884 511.307 615.267 508.178 615.797C505.049 616.326 500.936 618.003 497.986 618.003C495.036 618.003 493.337 618.357 488.867 619.063C484.397 619.769 481.804 620.387 480.642 619.945C479.569 619.592 478.764 617.562 479.569 615.355C480.284 613.149 482.341 610.765 482.877 608.029C483.413 605.292 482.877 600.702 482.162 598.319C481.446 595.936 482.519 592.228 483.682 592.228C484.844 592.228 484.039 593.552 485.38 594.612C486.721 595.671 485.38 594.612 485.917 592.228C486.453 589.845 486.274 583.048 486.274 580.841C486.274 578.635 488.867 575.369 490.387 571.838C491.907 568.307 489.85 568.13 488.152 567.424C486.453 566.718 481.089 568.307 478.317 569.454C475.546 570.514 472.953 572.985 470.36 573.162C467.768 573.338 464.013 575.898 463.655 579.252C463.298 582.518 459.9 595.759 458.47 597.26C457.039 598.76 454.357 599.82 453.284 598.76C452.212 597.701 448.635 598.407 445.685 599.29C442.735 600.173 432.453 604.057 430.844 604.057C429.235 604.057 423.781 601.32 420.831 600.526C417.881 599.82 413.768 590.992 411.891 588.786C410.013 586.579 403.308 577.575 400.894 575.192C398.48 572.809 398.659 566.012 399.374 561.245C400.089 556.479 398.48 547.122 398.48 546.151C398.48 545.18 398.659 542.09 399.553 542.09C400.447 542.09 401.967 539.354 401.43 537.853C400.894 536.353 400.536 529.379 400.536 523.2C400.536 517.021 404.113 515.521 406.348 513.844C408.583 512.166 417.165 508.106 417.702 506.517C418.238 504.84 416.629 502.28 417.881 501.927C419.222 501.574 420.473 503.251 422.887 502.457C425.301 501.75 422.887 502.457 425.659 500.78C428.43 499.102 430.665 499.455 432.543 500.603C434.42 501.662 437.728 499.897 440.142 498.926C442.556 498.043 442.02 498.749 444.612 500.78C447.205 502.81 449.619 503.339 449.619 503.339C449.619 503.339 454.804 502.81 455.162 501.662C455.52 500.603 456.861 502.192 459.096 503.516C461.331 504.84 463.208 503.516 462.851 502.192C462.493 500.868 460.794 499.809 459.096 498.308C457.397 496.807 455.162 497.955 453.284 497.249C451.407 496.543 451.943 495.395 451.943 493.365C451.943 491.335 456.592 494.071 456.95 495.395C457.308 496.719 459.185 493.012 460.526 492.129C461.867 491.246 463.834 492.659 465.89 492.659C467.947 492.659 470.897 489.922 470.897 489.922L472.417 491.599C473.937 493.277 475.188 491.07 477.96 489.746C480.731 488.422 483.503 489.393 487.973 491.599C492.443 493.806 495.93 493.63 496.735 492.306C497.45 490.981 498.254 489.746 501.026 489.746C503.797 489.746 509.787 492.659 511.844 493.806C513.9 494.865 515.152 505.723 515.152 505.723C515.152 505.723 514.258 510.842 516.85 511.46C519.443 511.99 522.661 516.933 522.84 518.61C523.019 520.287 527.847 522.671 529.724 523.553C531.602 524.436 530.797 526.29 532.496 528.144C534.195 529.997 536.787 526.643 538.039 524.083C539.38 521.523 536.161 510.842 535.089 509.43C534.016 507.929 532.138 505.017 531.781 501.309C531.423 497.602 523.019 489.569 521.946 487.715C520.873 485.862 520.069 480.389 518.996 476.505C517.923 472.621 526.774 461.234 527.936 458.851C529.009 456.468 533.122 450.024 536.161 449.141C539.112 448.258 540.274 445.081 540.453 443.668C540.632 442.168 545.102 439.078 546.622 438.902C548.142 438.725 547.337 436.518 547.158 435.812C546.979 435.106 546.979 432.105 548.052 431.399C549.125 430.692 550.466 429.898 550.466 428.662C550.466 427.426 547.873 426.102 547.337 424.249C546.8 422.395 547.337 420.188 546.443 419.305C545.549 418.423 542.867 420.365 542.867 420.365L543.046 416.657C543.224 412.95 542.151 412.244 540.989 411.714C539.916 411.184 540.453 408.801 540.453 406.947C540.453 405.094 538.396 402.357 538.396 401.033C538.396 399.709 539.291 397.944 540.542 397.414C541.794 396.973 542.241 401.563 542.688 403.681C543.135 405.8 545.549 406.418 546.085 407.565C546.622 408.713 546.532 412.773 546.085 415.157C545.638 417.54 547.784 414.98 548.857 411.802C549.93 408.625 550.466 402.975 549.125 402.446C547.784 401.916 545.817 399.268 545.459 397.414C545.102 395.561 547.873 396.708 548.32 396.796C548.767 396.796 550.108 399.003 551.002 399.091C551.896 399.268 552.343 393.883 552.88 392.383C553.416 390.882 551.986 387.616 551.539 386.027C551.092 384.438 554.757 384.35 556.188 383.909C557.618 383.467 559.228 382.673 559.943 381.525C560.658 380.29 558.87 381.172 556.903 382.055C554.936 382.938 553.863 381.879 553.863 380.378C553.863 378.877 558.244 377.995 560.032 377.377C561.82 376.847 567.989 373.405 569.509 372.698C571.029 371.992 574.068 371.463 574.694 370.492C575.32 369.432 572.996 369.168 571.029 369.168C569.062 369.168 568.078 368.903 566.022 364.136C563.876 359.281 566.916 354.161 567.542 353.279C568.168 352.396 571.833 351.513 572.638 350.454C573.443 349.395 572.191 347.541 572.638 346.482C573.085 345.334 573.443 346.923 573.8 348.159C574.158 349.483 575.946 347.718 577.376 345.599C578.807 343.481 584.082 336.684 585.065 335.978C586.138 335.271 590.608 330.77 591.234 329.71C591.86 328.651 593.916 330.946 595.704 331.564C597.492 332.182 598.386 331.299 599.191 330.946C599.995 330.505 599.817 331.829 599.548 332.888C599.191 333.947 597.313 333.947 595.704 334.036C594.184 334.036 592.486 336.86 591.681 338.361C590.876 339.862 590.519 342.421 590.519 344.893C590.519 347.365 594.363 348.247 596.777 345.864C599.191 343.481 598.565 338.891 598.565 337.39C598.565 335.889 600.621 336.419 602.588 336.419C604.555 336.419 604.913 334.212 606.611 332.447C608.221 330.681 611.707 329.181 612.512 328.298C613.317 327.415 611.439 326.621 611.171 325.473C610.813 324.326 611.707 321.943 612.422 321.678C613.048 321.413 614.658 322.649 615.552 322.649C616.446 322.649 615.82 320.707 615.999 319.206C616.177 317.706 614.479 318.059 613.048 317.882C611.707 317.617 612.333 316.646 611.797 314.44C611.35 312.233 609.115 312.939 608.936 314.704C608.757 316.47 609.204 321.413 608.936 322.737C608.757 324.061 608.489 324.855 607.327 324.855C606.164 324.855 603.929 327.592 601.962 327.768C599.995 327.945 596.419 326.974 595.972 326.444C595.525 326.003 595.972 324.061 595.972 324.061C595.972 324.061 598.923 324.061 600.979 323.885C603.125 323.708 604.108 323.708 604.376 322.472C604.734 321.148 603.75 320.53 602.588 320.883C601.426 321.236 597.85 322.207 596.241 322.207C594.631 322.207 593.29 320.883 592.307 319.648C591.323 318.323 590.698 320.265 590.966 321.589C591.323 322.914 593.558 323.973 593.558 323.973V326.18H591.77C590.608 326.18 588.194 323.885 587.211 323.178C586.227 322.56 584.439 321.413 584.439 320.883C584.439 320.354 584.618 317.617 584.439 316.558C584.26 315.41 583.009 317.352 582.294 317.706C581.668 318.059 579.164 316.558 578.539 315.94C577.913 315.322 574.963 315.146 574.963 315.146C574.963 315.146 576.125 312.939 579.522 312.939C582.919 312.939 582.115 311.615 582.919 309.849C583.724 308.084 582.741 306.319 581.489 305.524C580.148 304.73 577.108 305.348 573.89 306.495C570.671 307.643 564.949 311.791 563.519 314.175C562.088 316.558 559.764 322.825 558.78 324.767C557.797 326.709 556.367 330.417 555.562 330.681C554.757 331.034 555.204 328.916 555.383 326.18C555.562 323.443 557.529 316.381 558.155 312.233C558.78 308.084 562.178 308.172 564.145 306.76C566.112 305.348 565.933 302.435 566.916 300.846C567.9 299.257 570.671 297.933 571.923 297.138C573.264 296.344 579.522 294.402 582.294 293.254C585.065 292.107 588.641 292.901 591.055 292.107C593.469 291.313 596.241 289.724 597.582 287.958C598.923 286.193 602.32 277.542 602.499 276.748C602.678 275.953 604.644 276.13 607.416 275.159C610.187 274.188 609.025 271.981 609.383 270.039C609.74 268.097 606.969 267.126 605.807 266.155C604.644 265.184 601.068 262.448 600.89 261.477C600.711 260.506 597.313 262.271 596.866 262.271C596.419 262.271 595.883 261.124 595.078 260.329C594.274 259.535 592.933 261.653 590.519 263.066C588.105 264.478 588.284 267.921 588.284 267.921C588.284 267.921 586.138 268.539 585.691 268.539C585.244 268.539 584.082 267.744 583.545 265.802C583.098 263.86 585.691 261.653 587.479 261.3C589.267 260.947 590.429 258.917 590.697 257.416C591.055 256.004 589.893 256.092 586.496 257.063C583.098 258.034 578.002 256.71 574.337 255.916C570.582 255.121 566.737 250.973 565.575 248.678C564.413 246.471 562.357 245.323 560.032 244.529C557.797 243.734 547.337 237.644 545.906 236.673C544.476 235.702 538.754 231.553 538.754 231.553C538.754 231.553 539.559 236.673 539.559 240.204C539.559 243.734 538.128 245.853 536.43 245.853C534.731 245.853 532.228 245.853 531.065 244.882C529.903 243.911 525.522 246.206 524.36 246.206C523.198 246.206 522.393 244.264 521.767 242.852C521.142 241.439 519.532 234.201 519.175 232.436C518.817 230.67 514.168 234.025 512.201 234.201C510.234 234.378 509.609 233.848 508.804 232.612C507.999 231.288 506.211 230.847 503.887 229.699C501.652 228.552 499.953 228.11 498.97 227.316C497.986 226.522 496.198 230.229 495.215 231.2C494.231 232.171 488.241 231.023 483.95 230.582C479.748 230.141 483.324 234.289 484.576 235.437C485.917 236.585 485.738 238.968 485.917 240.91C486.095 242.852 489.135 243.999 489.85 245.412C490.476 246.824 488.509 251.855 488.241 254.239C487.884 256.622 488.599 256.799 489.85 256.799C491.102 256.799 494.857 259.535 497.539 261.653C500.221 263.772 500.311 270.304 500.489 274.982C500.668 279.661 495.125 281.691 493.695 281.868C492.264 282.044 491.281 281.868 490.744 283.809C490.297 285.751 493.158 286.987 493.695 289.547C494.142 292.107 498.701 298.551 499.685 299.787C500.668 301.111 499.238 303.494 499.238 305.083C499.238 306.672 500.579 308.261 499.238 308.614C497.897 308.967 497.807 307.643 496.645 307.025C495.483 306.407 496.287 310.203 494.678 310.732C493.069 311.173 491.728 308.967 488.688 306.407C485.559 303.847 481.357 301.728 479.748 301.111C478.139 300.493 478.407 295.814 478.764 293.431C479.122 291.048 476.35 292.284 476.172 289.459C475.993 286.546 476.529 285.751 475.814 284.163C475.188 282.574 469.466 284.957 466.874 284.957C464.281 284.957 459.274 285.134 455.52 284.339C451.765 283.545 448.993 282.75 447.563 281.25C446.132 279.837 443.986 278.866 441.394 278.16C438.801 277.542 437.818 276.395 435.672 275.071C433.526 273.747 432.9 274.894 431.738 276.218C430.576 277.542 427.536 277.542 425.569 277.542C423.603 277.542 425.391 276.218 425.569 274.453C425.748 272.687 424.049 271.275 423.424 270.834C422.798 270.392 423.424 267.303 423.155 266.508C422.887 265.626 420.205 265.626 419.401 266.244C418.506 266.861 417.612 267.126 416.45 266.508C414.93 265.714 415.735 263.86 415.735 263.86C415.735 248.766 425.838 238.35 427.357 237.379C428.788 236.408 431.381 236.496 432.006 236.32C432.632 236.055 432.722 234.996 432.096 234.025C431.47 233.054 428.788 232.612 428.162 231.818C427.536 231.112 428.251 230.759 429.145 230.847C430.04 230.935 433.884 232.171 434.599 231.906C435.314 231.641 435.94 227.934 435.94 227.934C435.94 227.934 437.281 227.934 438.354 227.846C439.427 227.757 440.679 227.228 443.003 225.639C445.328 224.05 444.791 221.755 444.434 221.225C444.076 220.607 436.834 220.607 436.03 220.519C435.136 220.431 434.331 218.93 434.331 218.93L435.314 216.9C435.314 216.9 438.086 217.341 439.069 218.136C440.053 218.842 442.109 219.372 442.824 219.372C443.539 219.372 445.506 218.489 446.847 217.695C448.188 216.812 448.278 215.664 448.099 214.782C447.831 213.899 446.132 214.164 445.417 213.811C444.702 213.458 445.775 212.222 446.758 211.516C447.741 210.809 448.993 211.604 449.887 211.604C450.781 211.604 451.675 213.987 452.212 213.811C452.659 213.546 453.642 213.546 455.162 212.751C456.592 211.869 454.804 211.869 453.553 211.427C452.301 210.986 453.553 209.75 454.268 209.662C454.983 209.574 456.861 210.368 457.576 210.898C458.291 211.339 459.274 209.838 459.9 208.603C460.526 207.367 462.493 205.601 462.314 204.542C462.225 203.483 458.559 203.218 458.023 202.6C457.576 201.982 457.308 199.864 457.397 199.334C457.486 198.893 460.526 199.776 460.526 199.776C460.526 199.776 460.168 197.127 460.526 195.892C460.884 194.656 456.95 194.921 456.592 194.479C456.235 194.038 454.536 193.597 452.927 193.155C451.318 192.714 447.831 193.861 447.831 193.861L449.082 196.598L448.457 198.01C448.457 198.01 448.904 200.746 448.814 201.982C448.725 203.218 447.741 203.924 447.741 203.924C447.741 203.924 445.953 203.306 445.775 202.6C445.685 201.894 444.88 201.717 444.165 202.159C443.45 202.512 443.808 204.366 444.523 205.248C445.238 206.219 446.49 206.308 446.311 207.279C446.222 208.25 444.88 208.956 444.88 208.956L441.93 209.574C441.93 209.574 440.947 207.014 440.142 206.661C439.248 206.308 439.069 204.895 440.5 204.013C441.93 203.13 441.573 201.806 441.394 201.1C441.126 200.393 439.427 199.422 438.443 198.451C437.46 197.48 436.208 198.893 436.208 198.893L435.314 204.189C435.314 204.189 433.884 204.454 433.347 203.218C432.811 201.982 433.973 197.922 434.063 197.216C434.152 196.509 432.096 196.774 432.096 196.774L431.202 197.745C431.202 197.745 429.414 198.716 428.162 198.098C426.91 197.48 427.536 196.156 427.536 196.156C427.536 196.156 429.235 195.539 429.235 194.479C429.235 193.42 428.162 192.537 427.179 191.919C426.195 191.301 426.91 189.36 426.821 188.653C426.732 187.947 424.586 186.888 424.139 186.094C423.692 185.387 424.854 184.505 425.748 183.887C426.642 183.269 426.821 180.797 426.821 180.797C426.821 180.797 428.162 181.062 430.576 179.385C432.99 177.708 433.169 176.472 433.616 175.501C434.063 174.53 432.632 174.265 431.291 174.177C429.95 174.089 424.944 173.559 423.155 176.384C421.367 179.12 422.708 183.092 422.53 184.416C422.44 185.74 421.278 187.153 419.401 189.271C417.434 191.301 417.702 195.45 417.702 196.333C417.702 197.216 422.798 197.922 424.049 197.922C425.301 197.922 425.033 201.011 424.407 202.777C423.781 204.454 419.401 207.102 418.775 207.367C418.149 207.632 418.775 207.367 418.775 209.397C418.775 211.427 418.328 212.31 416.987 212.487C415.646 212.751 415.556 211.516 415.556 209.485C415.556 207.455 414.93 205.778 412.427 205.248C409.834 204.807 408.493 209.22 408.493 209.22C408.493 209.22 406.884 209.838 404.113 209.838C401.341 209.838 391.685 209.132 391.149 208.161C390.702 207.19 391.149 204.807 390.434 203.571C389.719 202.335 383.639 205.513 381.136 206.572C378.633 207.632 383.46 207.896 385.606 206.925C387.841 205.954 388.288 206.308 387.931 207.014C387.573 207.72 383.639 208.338 381.672 208.956C379.705 209.574 381.404 215.135 380.331 215.929C379.258 216.812 378.364 213.987 377.649 212.222C376.934 210.456 375.593 209.838 373.984 209.838C372.374 209.838 368.172 212.133 366.206 212.045C364.239 211.957 361.735 210.721 361.467 209.485C361.199 208.25 362.361 208.073 364.864 207.279C367.457 206.572 365.937 204.719 365.58 203.395C365.222 202.071 361.11 203.306 358.427 203.306C355.745 203.306 356.46 202.071 356.013 201.1C355.566 200.129 355.924 197.392 355.298 196.774C354.672 196.156 351.901 196.509 350.828 197.127C349.755 197.745 348.414 200.129 347.431 200.129C346.447 200.129 346.358 199.687 346.358 199.687C346.358 199.687 347.788 197.392 348.682 196.686C349.576 195.98 350.113 194.126 349.576 194.126C349.04 194.126 348.504 194.391 345.285 198.187C342.156 202.071 342.961 197.127 342.961 196.245C342.961 195.362 345.374 193.243 345.553 192.184C345.643 191.125 345.196 190.86 344.57 191.566C343.944 192.272 340.189 194.568 338.312 195.627C336.524 196.686 334.02 197.834 333.305 197.569C332.59 197.304 333.663 196.156 336.971 194.656C340.278 193.243 339.653 192.272 338.58 192.626C337.507 192.979 333.126 195.185 333.126 195.185H324.722C324.007 195.185 322.755 196.598 322.308 197.834C321.861 199.069 320.073 200.305 319.537 198.716C318.911 197.127 319.09 195.45 319.09 193.597C319.09 191.743 318.196 192.096 317.034 191.566C315.782 190.948 317.302 188.212 316.944 186.976C316.587 185.74 314.173 186.27 313.189 185.387C312.206 184.505 313.279 182.739 313.1 181.856C312.832 180.974 310.418 181.239 309.971 179.915C309.524 178.59 312.742 178.237 312.742 177.619C312.742 177.002 311.491 177.002 310.954 176.737C310.328 176.472 309.971 175.854 310.239 175.413C310.507 174.971 312.653 174.177 312.563 173.382C312.474 172.5 307.467 173.824 304.16 173.824C300.852 173.824 298.169 175.06 296.024 176.119C293.789 177.178 293.431 177.531 291.732 176.825C290.034 176.119 288.156 176.913 287.083 177.266C286.011 177.62 284.312 181.945 282.792 183.181C281.362 184.416 279.395 186.535 278.858 187.771C278.411 189.006 277.249 192.008 276.266 192.361C275.282 192.714 272.243 191.743 271.974 190.595C271.706 189.36 274.388 189.006 275.55 187.947C276.713 186.888 271.438 187.594 268.935 187.594C266.431 187.594 265.537 191.213 265.537 191.213C265.537 191.213 263.302 192.979 261.961 194.303C260.62 195.627 262.945 196.068 262.945 196.068C262.945 196.068 262.587 197.834 263.928 198.01C265.269 198.098 266.342 199.246 266.342 199.246C263.392 200.217 261.872 201.276 260.888 201.894C259.905 202.512 259.815 203.924 259.815 203.924C259.815 203.924 258.385 204.013 257.223 203.924C256.15 203.836 254.272 205.337 253.647 204.277C253.021 203.218 252.395 203.659 250.964 204.719C249.534 205.778 246.584 207.014 243.276 208.25C239.968 209.485 238.984 213.546 238.984 215.135C238.984 216.724 237.733 216.724 237.643 215.399C237.554 214.075 234.693 216.459 233.173 218.048C231.564 219.636 234.604 221.402 234.604 221.402C234.604 221.402 232.994 223.697 231.564 224.756C230.133 225.815 225.306 228.993 225.306 230.141C225.306 231.288 228.703 228.728 228.703 228.728V230.406C228.703 230.406 226.11 230.847 225.932 233.495C225.842 235.172 229.418 231.994 229.418 231.994L230.044 234.113C230.044 234.113 227.094 238.085 224.59 240.115C222.087 242.234 215.918 244.264 212.521 244.264C209.124 244.264 209.392 243.47 206.084 246.118C203.223 248.501 206.71 247.53 208.677 247.53C210.644 247.53 211.895 247.971 214.488 247.53C217.081 247.089 215.829 245.412 216.902 245.412C217.975 245.412 218.869 245.765 220.925 243.823C222.981 241.881 225.127 242.852 226.915 242.234C228.703 241.616 232.905 239.674 233.71 237.909C234.514 236.143 239.878 234.025 243.455 231.818C247.031 229.611 250.786 227.316 253.021 227.14C255.256 226.963 253.468 229.523 252.574 229.876C251.59 230.229 250.428 230.847 248.193 231.994C245.958 233.142 243.633 234.907 240.236 236.673C236.839 238.438 240.057 238.88 242.65 238.085C245.243 237.291 246.584 235.702 246.584 235.702C246.584 235.702 248.372 236.673 248.819 236.143C249.266 235.702 254.63 232.789 256.776 232.436C258.921 232.083 256.776 232.436 256.776 233.583C256.776 234.731 257.133 238.438 258.385 240.204C259.726 241.969 261.782 242.587 261.782 242.587C261.782 242.587 262.14 243.911 262.408 244.97C262.766 246.118 265.805 244.794 265.805 244.794C265.805 244.794 264.375 245.941 263.66 246.912C263.034 247.883 263.302 252.032 263.302 255.386C263.302 258.741 265.269 258.476 266.699 256.975C268.13 255.563 270.276 254.768 270.276 254.768C270.276 254.768 269.65 256.975 269.113 260.241C268.666 263.419 269.471 265.184 266.878 270.039C264.286 274.894 263.302 278.425 264.107 281.603C264.911 284.78 265.269 289.017 262.766 290.959C260.262 292.901 259.368 293.078 259.368 296.079C259.368 299.08 263.57 296.521 265.895 296.874C268.13 297.227 265.09 298.198 262.676 300.404C260.262 302.611 260.709 307.907 260.709 312.586C260.709 317.264 264.286 318.677 263.481 321.766C262.676 324.855 261.246 322.207 260.352 320.442C259.547 318.677 258.117 314.793 257.223 316.558C256.329 318.323 256.06 324.591 257.849 328.563C259.637 332.535 262.766 338.184 265.805 339.155C268.935 340.126 267.772 338.184 267.772 335.625C267.772 333.065 266.163 329.975 264.554 327.592C262.945 325.209 266.521 321.943 266.521 321.943C266.521 321.943 267.683 328.033 269.739 331.741C271.885 335.448 273.137 337.39 272.868 340.126C272.511 342.863 270.097 347.982 268.666 348.512C267.236 348.953 268.666 348.512 268.666 346.129C268.666 343.745 268.041 342.598 265.895 342.421C263.749 342.245 262.498 339.244 262.498 339.244C262.498 339.244 261.693 346.482 260.709 351.249C259.726 356.103 252.574 369.874 250.964 373.758C249.355 377.642 246.941 386.645 244.17 396.531C241.398 406.506 241.041 411.626 241.041 414.539C241.041 417.452 244.796 430.604 245.421 436.253C246.047 441.903 248.193 445.698 248.372 450.906C248.551 456.026 251.322 457.35 253.915 458.409C256.507 459.557 261.425 462.911 263.392 465.824C265.358 468.737 268.756 488.157 270.901 495.218C273.047 502.28 277.875 507.4 279.395 509.518C280.825 511.637 281.004 517.11 279.574 517.198C278.143 517.374 277.786 515.786 275.997 515.256C274.209 514.815 274.835 518.787 277.428 521.7C280.021 524.613 284.759 527.349 288.156 529.909C291.554 532.469 292.179 536.971 292.179 541.826C292.179 546.68 293.61 546.504 298.706 550.3C303.713 554.183 306.484 561.687 307.467 564.246C308.451 566.806 310.418 559.568 310.686 557.626C311.044 555.684 304.696 551.359 302.55 549.946C300.405 548.534 298.974 540.501 298.974 537.589C298.974 534.676 293.431 526.378 291.464 525.054C289.497 523.73 287.709 518.434 287.441 516.227C287.083 514.02 284.491 510.489 281.898 504.84C279.305 499.191 278.322 491.07 277.964 488.775C277.607 486.568 278.948 483.037 280.378 482.507C281.809 482.066 286.905 484.449 287.709 487.451C288.514 490.54 292.448 501.751 298.08 512.961C303.713 524.171 313.01 529.997 313.01 531.41C313.01 532.822 312.653 535.911 315.246 539.089C317.838 542.267 326.153 553.213 329.371 557.361C332.59 561.51 342.245 572.014 343.497 575.192C344.838 578.37 342.335 581.459 340.368 582.254C338.401 583.048 339.027 584.99 340.815 588.168C342.603 591.346 347.788 594.876 352.348 598.142C356.908 601.32 366.027 607.587 368.083 607.587C370.139 607.587 373.626 609 375.414 610.677C377.202 612.266 384.533 614.561 390.344 616.768C396.156 618.974 414.126 626.124 418.507 624.977C422.887 623.829 428.43 620.122 432.99 619.504C437.549 618.886 444.076 625.153 446.311 627.36C448.546 629.567 455.251 636.364 459.453 637.511C463.655 638.659 468.93 637.158 471.165 637.158C473.4 637.158 475.725 637.511 478.764 639.1C481.894 640.689 490.834 638.482 493.248 636.717C495.662 634.951 495.483 636.099 496.019 637.335C496.466 638.659 494.857 642.454 497.45 645.191C500.042 647.927 507.552 649.869 509.787 651.282C512.023 652.694 514.526 661.256 515.509 663.993C516.493 666.729 518.728 662.58 519.443 660.109C520.069 657.725 526.953 663.022 529.367 664.964C531.781 666.906 536.698 671.849 539.469 672.378C542.241 672.82 550.824 672.025 553.774 672.025C556.724 672.025 561.731 678.292 564.145 677.939C566.559 677.586 567.274 675.203 565.754 673.261C564.324 671.319 564.949 669.907 565.128 668.583C565.307 667.259 569.688 663.11 572.906 661.08C576.125 658.961 582.025 663.198 583.009 663.639C583.992 664.081 588.373 671.496 589.178 673.614C589.982 675.733 594.095 682.971 594.095 685.972C594.095 688.973 596.241 698.86 596.688 700.449C597.135 702.037 596.241 705.392 594.095 707.157C591.949 708.922 587.568 711.041 587.568 713.777C587.568 716.514 583.635 722.428 580.059 724.37C576.482 726.312 575.857 735.492 574.694 738.052C573.532 740.612 572.727 746.703 575.141 748.644C577.555 750.586 582.651 747.85 582.651 747.85C582.651 747.85 582.83 750.763 582.204 753.941C581.578 757.118 574.605 761.62 573.264 764.18C571.923 766.74 574.068 768.505 575.857 772.389C577.645 776.273 585.602 777.862 587.121 778.657C588.552 779.451 596.866 786.16 599.817 788.896C602.767 791.632 612.512 802.843 612.512 803.549C612.512 804.255 621.095 811.052 621.095 811.052L620.111 813.171C619.128 815.289 623.509 816.083 631.018 818.467C638.528 820.85 650.061 820.674 651.045 820.674C652.028 820.674 658.555 821.115 661.326 821.998C664.098 822.792 667.048 822.969 668.3 823.94C669.641 824.911 668.925 831.619 669.641 835.856C670.267 840.005 668.657 846.096 666.243 848.832C663.83 851.568 664.634 855.717 662.846 860.396C661.058 865.074 658.286 868.605 657.124 869.752C655.962 870.9 656.498 875.048 654.174 876.373C651.939 877.697 654.532 880.698 653.995 883.081C653.548 885.464 649.078 889.525 647.022 891.732C644.876 893.938 639.422 897.469 638.081 898.793C636.74 900.117 637.724 901.706 637.634 902.677C637.455 903.648 635.042 903.825 634.237 905.855C633.432 907.974 635.399 906.208 637.634 907.179C639.869 908.15 637.634 907.179 635.399 908.768C634.595 909.386 632.717 910.622 630.661 911.946C646.217 907.267 661.416 901.795 676.167 895.527C678.223 892.791 678.76 890.496 679.028 889.701C679.386 888.377 684.035 889.701 686.359 888.554C688.594 887.406 695.836 884.052 697.088 882.11C698.429 880.168 699.68 879.727 703.793 877.785C707.816 875.843 719.528 869.752 723.104 867.634C726.68 865.515 730.882 861.366 730.882 859.601C730.882 857.836 727.306 860.219 726.144 858.983C724.981 857.659 728.558 856.07 728.558 856.07C728.558 856.07 728.736 857.483 730.167 857.218C731.597 856.865 734.19 855.894 737.14 854.834C740.091 853.687 745.634 849.715 751.981 845.213C758.329 840.711 771.203 826.146 772.276 824.469C773.438 822.88 776.835 821.115 779.607 819.349C782.378 817.584 785.15 812.906 787.921 809.375C790.693 805.844 794.09 799.753 795.074 796.399C796.057 793.045 804.819 783.423 808.395 781.305C811.971 779.186 825.292 764.886 829.673 762.326C834.054 759.767 840.044 747.85 842.01 744.143C843.977 740.435 849.789 730.99 849.967 728.077C850.146 725.164 851.755 724.9 854.974 717.308C858.192 709.805 860.517 695.152 860.517 692.769C860.517 690.386 861.858 689.679 863.289 688.267C864.719 686.855 865.255 683.942 866.686 680.411C868.116 676.88 872.497 667.523 877.593 656.931C882.6 646.338 880.186 635.216 879.828 632.215C879.47 629.126 878.666 630.803 875.447 632.215V632.568ZM238.895 187.506C238.716 190.595 234.514 193.95 238.269 193.243C242.024 192.626 242.65 190.507 244.974 190.684C247.21 190.86 250.339 189.889 248.372 192.096C246.405 194.303 243.365 196.951 245.421 197.216C247.567 197.569 253.2 190.154 255.792 186.976C258.385 183.798 261.514 178.944 261.782 181.327C262.14 183.71 259.637 185.211 261.335 185.476C262.945 185.829 272.868 179.738 278.59 176.825C284.312 173.912 289.497 171.176 290.481 168.174C291.464 165.085 297.275 160.495 299.242 159.524C301.209 158.553 300.583 156.17 298.438 157.582C296.292 158.994 292.09 161.554 292.09 160.318C292.09 159.083 294.504 157.405 296.828 156.611C299.064 155.817 299.421 154.669 298.795 154.493C298.17 154.316 299.6 152.727 300.226 152.374C300.852 152.021 300.226 149.638 304.16 148.049C308.093 146.46 312.921 145.136 315.424 143.106C317.838 140.987 321.146 137.633 325.348 135.691C329.55 133.749 341.262 128.982 344.033 126.511C346.805 124.127 346.447 123.333 350.381 121.656C352.437 120.861 356.997 118.125 360.841 115.742C359.053 117.948 359.5 119.361 364.149 116.889C371.48 113.093 397.765 104.443 403.219 103.472C408.672 102.501 401.967 105.855 404.202 106.032C406.437 106.208 417.165 103.207 419.848 102.06C421.993 101.089 452.659 95.0861 466.427 91.9966C429.95 95.4392 394.725 103.384 361.467 115.3C315.246 131.983 273.137 155.993 236.302 186.094C238.001 185.917 238.984 186.182 238.895 187.329V187.506ZM358.249 190.419C358.606 189.624 359.411 189.095 361.199 189.095C362.987 189.095 363.613 188.83 363.613 187.418C363.613 186.005 370.407 181.857 372.553 180.532C374.699 179.297 379.527 179.12 380.421 176.913C381.315 174.795 375.146 174.971 375.146 174.971C375.146 174.971 374.967 173.206 370.944 172.853C366.921 172.5 365.49 177.531 358.696 182.563C358.696 182.563 356.013 184.769 356.729 185.74C357.355 186.711 356.282 187.947 355.745 189.448C355.298 190.86 357.98 191.213 358.338 190.419H358.249ZM398.123 199.069C399.195 198.187 402.235 199.334 404.202 198.805C406.169 198.363 405.632 196.245 405.096 196.245C404.56 196.245 401.341 195.539 401.162 194.921C401.073 194.303 400.179 193.95 398.748 193.685C397.318 193.42 397.765 190.948 397.854 190.331C397.944 189.713 399.195 188.742 399.285 187.947C399.374 187.064 398.391 184.681 399.285 182.916C400.179 181.15 401.341 180.621 402.235 179.032C403.129 177.443 401.162 177.266 399.464 177.708C397.765 178.149 398.748 180.444 398.748 180.444C398.748 180.444 397.139 181.062 397.05 180.709C396.96 180.356 394.636 180.003 393.921 181.327C393.205 182.651 392.49 188.035 390.97 189.006C389.54 189.977 390.344 187.947 390.344 186.976C390.344 186.005 390.97 183.092 390.791 182.121C390.702 181.15 389.003 181.15 388.467 183.092C388.02 185.034 385.785 185.034 385.785 185.034C385.338 183.798 384.712 181.945 383.55 181.68C382.477 181.415 381.493 182.916 381.493 182.916C381.493 182.916 381.941 180.268 381.136 180.356C380.242 180.444 374.609 182.916 369.424 185.917C365.669 188.124 369.513 189.448 371.838 189.448C374.162 189.448 371.838 190.684 369.782 191.125C367.725 191.566 367.189 191.125 365.133 192.714C363.076 194.303 366.921 194.126 368.709 194.038C370.407 193.95 373.715 193.067 376.04 193.332C378.364 193.597 377.47 195.627 376.487 197.039C375.503 198.451 368.351 196.686 365.669 196.598C362.987 196.509 363.345 197.216 363.255 198.363C363.166 199.599 368.53 201.629 369.335 201.629C370.139 201.629 370.676 202.247 369.692 203.306C368.709 204.366 368.977 205.601 371.033 205.601C373.09 205.601 377.739 205.866 379.169 205.513C380.599 205.16 383.907 202.865 385.248 202.247C386.589 201.629 388.199 200.482 389.361 200.217C390.613 199.952 393.027 203.483 394.636 203.836C396.245 204.189 398.57 204.542 400.268 203.218C401.967 201.894 399.553 201.453 398.212 201.276C396.871 201.188 396.96 199.952 398.123 199.069ZM417.434 180.179C417.076 179.297 418.059 178.767 418.417 177.531C418.775 176.295 418.149 175.324 417.165 175.589C416.182 175.854 414.573 176.649 413.232 176.472C411.891 176.207 410.818 177.178 409.656 178.414C408.583 179.65 410.997 180.003 411.444 181.503C411.891 183.092 409.745 182.916 408.493 182.916C407.242 182.916 406.526 178.944 406.079 180.709C404.649 186.623 408.762 185.917 409.834 186.094C410.907 186.358 410.46 189.183 411.891 189.624C413.321 189.977 414.305 188.389 415.824 187.859C417.255 187.241 418.059 183.004 418.953 181.503C419.937 179.915 417.612 181.062 417.255 180.179H417.434ZM413.5 197.657C411.712 196.598 411.801 199.069 409.209 200.658C407.242 201.894 409.298 203.748 411.265 203.395C413.232 203.042 414.573 204.807 416.629 204.366C418.685 203.924 416.897 202.159 416.361 201.011C415.914 199.776 415.288 198.716 413.411 197.657H413.5ZM405.096 166.144C404.47 165.438 403.755 168.086 402.771 167.821C401.788 167.557 403.04 165.791 402.682 162.878C402.324 159.965 402.682 162.878 401.609 163.761C400.536 164.644 399.285 167.821 399.195 169.145C399.106 170.47 397.139 170.028 395.619 169.763C394.189 169.499 394.368 167.91 393.384 165.085C393.116 164.379 391.685 164.644 391.149 165.791C390.702 167.027 388.735 167.38 385.695 168.881C382.656 170.47 385.07 171.97 385.427 171.97C385.785 171.97 388.109 170.911 390.523 170.381C392.937 169.94 392.758 171.352 391.507 171.794C390.255 172.235 388.378 172.412 386.858 173.029C385.427 173.647 386.589 174.618 388.288 174.971C389.987 175.324 392.222 174 393.384 173.206C394.636 172.323 399.106 171.794 401.341 171.794C403.576 171.794 404.113 170.205 405.275 169.145C406.348 168.086 405.632 166.85 405.007 166.144H405.096ZM385.07 165.262C386.053 164.908 386.5 164.908 387.841 165.35C389.182 165.791 390.881 163.408 391.954 162.437C393.027 161.466 395.798 159.965 394.278 159.083C393.027 158.376 389.897 160.407 388.199 161.378C386.5 162.349 382.835 163.673 380.152 164.644C377.47 165.615 378.811 167.204 379.884 167.204C380.957 167.204 383.997 165.615 384.98 165.262H385.07ZM398.033 157.759C396.871 159.083 397.944 159.436 399.017 159.789C400.089 160.142 400.805 161.113 402.593 160.495C404.291 159.877 403.219 158.465 404.202 157.847C405.185 157.229 407.242 157.935 407.778 156.258C408.225 154.581 407.51 152.904 406.169 154.051C404.828 155.287 402.235 154.139 402.235 155.463C402.235 156.788 401.788 155.463 402.235 156.788C402.682 158.112 398.838 156.788 398.123 157.67L398.033 157.759ZM413.5 156.434C413.41 157.141 414.841 156.434 417.791 156.434C420.742 156.434 419.043 157.141 420.026 158.73C421.01 160.318 421.01 157.847 421.01 156.434C421.01 155.022 420.116 154.669 418.685 154.051C417.255 153.433 418.059 152.374 416.629 151.315C415.199 150.255 415.02 152.197 415.199 154.051C415.288 155.375 413.768 155.728 413.589 156.434H413.5ZM420.295 163.584C419.311 162.613 417.702 163.32 416.897 164.644C416.003 165.968 415.109 165.262 414.215 164.644C413.321 164.026 412.963 166.939 411.891 166.409C410.818 165.968 410.997 165.262 410.639 164.202C410.281 162.967 409.03 163.937 408.672 165.262C408.315 166.586 410.46 168.175 410.997 168.881C411.444 169.587 412.695 168.439 413.768 168.528C414.841 168.616 414.126 170.734 415.199 172.5C416.271 174.265 418.507 169.763 420.473 167.821C422.44 165.879 421.189 164.467 420.205 163.496L420.295 163.584ZM410.997 161.996C412.248 161.907 412.338 157.759 409.924 159.083C408.851 159.7 409.834 162.084 410.997 161.996ZM422.798 171.352C424.407 172.588 426.463 173.647 427.089 171.794C427.715 170.028 428.877 167.557 427.089 167.38C425.301 167.115 423.781 166.674 423.155 167.998C422.351 169.675 421.189 170.205 422.798 171.352ZM430.755 166.321C431.381 168.616 430.129 170.734 432.543 171.617C434.957 172.5 436.566 170.381 436.834 170.028C437.102 169.675 438.89 170.999 438.89 170.999L443.986 170.558L447.294 168.969C447.294 168.969 454 169.587 455.072 168.263C456.145 166.939 456.145 163.849 454.626 163.849C453.106 163.849 447.473 164.555 445.864 165.173C444.255 165.791 440.857 166.056 438.801 166.144C436.745 166.233 434.51 165.173 435.761 163.937C437.013 162.702 438.712 161.996 441.483 161.996C444.255 161.996 445.953 161.113 448.278 161.025C450.602 160.936 455.251 160.407 455.341 159.259C455.43 158.023 453.731 157.67 453.731 156.258C453.731 154.846 457.844 152.374 458.023 150.697C458.112 149.02 455.251 146.989 456.235 146.107C457.218 145.224 459.99 145.224 460.526 140.899C460.973 136.573 462.582 135.161 462.761 133.837C462.851 132.513 458.38 132.601 455.162 133.219C451.943 133.837 445.685 134.632 443.808 136.485C442.02 138.251 439.784 139.84 437.818 140.457C435.851 141.075 434.152 140.81 435.404 142.223C436.655 143.635 437.102 144.518 439.427 144.253C441.751 143.988 442.377 143.547 443.718 143.988C445.059 144.43 447.026 146.372 444.791 146.283C442.556 146.195 440.857 144.959 440.679 146.195C440.41 147.431 441.573 147.254 442.02 148.137C442.467 149.02 443.271 150.873 441.304 151.491C439.337 152.109 438.622 152.551 440.232 153.257C441.841 153.963 443.808 153.698 443.808 155.463C443.808 157.229 443.45 158.465 442.377 157.405C441.304 156.346 440.947 154.757 439.963 155.64C438.98 156.523 439.248 156.699 439.338 157.935C439.427 159.171 438.98 159.524 437.728 160.142C436.477 160.76 432.722 162.79 431.291 163.143C429.861 163.496 428.52 161.378 427.626 161.378C426.732 161.378 426.374 160.142 428.073 160.142C429.771 160.142 432.096 158.465 430.04 158.2C427.983 157.935 425.569 157.582 425.569 158.906C425.569 160.23 426.463 160.671 425.569 161.113C424.675 161.466 422.977 161.731 423.871 162.878C424.765 164.114 424.497 164.908 426.106 164.908C427.715 164.908 430.487 164.644 431.023 166.321H430.755ZM424.765 153.168C423.602 153.345 422.619 154.757 423.066 155.817C423.513 156.876 424.497 157.229 424.497 157.229C425.569 156.788 427.536 157.229 427.894 156.434C428.251 155.64 425.838 152.992 424.765 153.168ZM423.603 151.226C424.944 150.873 425.927 147.96 424.675 147.872C423.424 147.784 422.708 147.696 422.619 148.931C422.619 150.167 422.619 151.491 423.513 151.226H423.603ZM428.43 150.785C429.503 151.403 430.129 150.52 430.576 152.286C431.023 154.051 432.096 155.287 433.884 155.287C435.672 155.287 438.443 153.433 439.159 151.138C439.874 148.843 440.232 147.696 438.98 147.078C437.728 146.372 434.957 145.842 434.599 145.136C434.241 144.43 432.364 142.046 431.112 143.723C429.503 145.842 428.52 146.46 428.162 147.872C427.804 149.285 427.357 150.167 428.43 150.785ZM433.169 158.112C432.453 159.259 433.169 160.671 434.063 160.23C435.046 159.789 437.102 158.023 435.761 157.67C434.42 157.317 433.794 157.052 433.169 158.112ZM512.112 215.311C513.811 215.399 520.873 216.635 523.377 218.224C525.791 219.813 528.383 220.254 528.473 219.195C528.562 218.136 528.026 217.871 526.774 216.547C525.522 215.223 525.791 213.811 527.4 213.811C529.009 213.811 527.668 212.222 526.148 211.604C524.718 210.986 520.784 206.925 519.801 206.925C518.817 206.925 518.907 207.985 515.42 207.632C511.844 207.279 508.983 206.308 508.715 204.542C508.446 202.777 506.748 202.6 506.748 200.923C506.748 199.246 507.821 197.304 509.698 198.54C511.486 199.776 517.029 202.6 519.622 203.483C522.214 204.366 525.075 206.484 524.718 204.366C524.36 202.159 522.483 201.011 523.287 200.482C524.003 200.04 526.863 199.158 525.612 197.834C524.36 196.509 524.36 193.773 523.824 192.626C523.198 191.566 522.215 192.272 520.426 193.067C518.638 193.95 518.102 192.361 516.403 192.714C514.705 193.067 514.079 191.301 511.039 191.301C507.999 191.301 508.446 192.008 506.569 191.655C504.602 191.301 503.44 189.713 501.294 189.713C499.148 189.713 495.483 188.035 496.824 186.8C498.165 185.564 498.791 183.798 497.539 183.798C496.287 183.798 495.304 180.179 494.142 181.415C492.98 182.651 491.102 182.474 491.013 181.062C490.923 179.65 486.364 179.12 485.201 179.738C483.95 180.356 482.43 179.297 481.625 178.414C480.91 177.531 478.049 177.09 476.619 178.326C475.188 179.561 473.311 179.297 472.238 178.061C471.165 176.825 470.897 176.031 469.288 176.031C467.678 176.031 465.712 176.384 465.712 174.971C465.712 173.559 464.639 170.028 461.241 170.911C457.844 171.794 454.983 170.205 456.145 172.235C457.218 174.265 458.827 177.178 460.526 176.119C462.225 175.06 463.119 173.912 463.476 174.883C463.834 175.854 463.029 178.149 461.42 178.59C459.811 179.032 457.844 182.563 457.039 179.826C456.145 177.09 454 171.794 451.049 173.471C448.099 175.148 445.596 176.737 445.953 179.826C446.311 182.916 447.384 184.681 446.311 184.505C445.238 184.328 442.198 183.181 442.645 180.091C443.092 177.002 446.669 175.501 445.417 174.795C444.165 174.089 439.159 174.442 438.086 176.384C435.851 180.356 435.672 180.709 434.957 183.092C434.241 185.476 434.242 188.124 436.387 187.329C438.622 186.447 439.785 185.034 440.142 186.447C440.5 187.859 440.053 188.477 438.533 188.83C437.102 189.183 434.867 188.83 436.298 190.242C437.728 191.655 440.679 191.655 442.645 191.655C444.612 191.655 449.708 191.743 452.659 191.39C455.609 191.037 457.039 189.801 460.079 190.154C463.119 190.507 466.695 191.125 465.533 189.536C464.46 187.947 462.582 186.27 464.281 186.8C465.98 187.241 466.874 188.83 471.255 190.066C475.635 191.301 482.609 193.597 484.665 194.744C486.721 195.98 491.013 197.834 489.672 201.453C488.331 205.072 485.738 204.807 486.364 207.014C486.99 209.22 491.013 208.779 489.94 210.721C488.867 212.663 485.47 212.398 482.162 213.369C478.854 214.34 475.725 214.958 476.351 217.341C476.976 219.725 481.089 221.578 483.503 219.901C485.917 218.224 487.526 215.223 491.817 215.841C496.109 216.459 498.97 217.783 500.579 218.577C502.188 219.46 501.562 222.196 502.993 222.991C504.423 223.873 508.268 223.962 510.056 223.079C511.844 222.196 513.453 221.049 514.705 222.638C515.956 224.227 519.354 224.05 521.767 224.227C524.181 224.315 528.383 225.551 528.562 224.227C528.83 222.903 525.254 221.932 524.271 221.49C523.287 221.049 515.241 218.136 513.274 217.871C511.307 217.606 510.503 215.223 512.201 215.311H512.112ZM467.678 226.875C468.751 225.992 470.36 224.227 467.947 224.138C465.533 224.05 463.476 221.225 461.331 221.137C459.274 221.049 455.877 216.812 453.91 218.136C451.943 219.46 451.586 218.136 451.139 217.165C450.692 216.194 448.367 216.459 448.546 217.43C449.619 221.755 447.831 223.697 448.457 225.021C449.082 226.345 450.066 228.11 448.457 228.287C446.847 228.375 443.986 228.287 445.328 229.876C446.669 231.465 447.563 230.582 448.457 230.141C449.44 229.699 450.424 228.111 450.781 229.699C451.139 231.288 451.765 233.936 453.106 232.701C454.447 231.465 457.039 225.109 459.096 225.374C461.152 225.639 466.695 227.934 467.768 227.051L467.678 226.875ZM460.079 231.818C460.079 231.818 458.649 232.524 458.291 234.554C457.933 236.585 460.616 236.231 461.867 235.437C463.119 234.554 464.192 233.848 464.192 232.348C464.192 230.847 462.94 231.288 460.168 231.906L460.079 231.818ZM475.367 237.732C477.602 237.026 477.334 233.495 476.351 233.054C475.367 232.612 473.579 233.407 473.579 233.407C473.221 235.967 473.221 238.438 475.367 237.732ZM473.311 201.717C474.92 202.424 478.586 202.688 479.748 200.835C480.999 199.069 480.105 196.951 478.675 196.598C477.245 196.245 476.261 195.009 474.294 196.686C472.238 198.451 471.702 200.923 473.311 201.629V201.717ZM468.662 193.508C468.662 192.272 465.98 192.449 465.98 192.449C464.639 194.832 463.745 195.98 465.264 195.98C466.784 195.98 468.662 194.744 468.662 193.597V193.508ZM485.112 196.863C483.682 196.598 482.072 195.98 481.804 196.509C481.178 197.745 481.447 198.451 483.056 198.54C484.665 198.628 486.632 197.127 485.112 196.863ZM475.099 193.155C474.741 192.537 473.311 192.537 473.311 192.537C472.864 193.861 472.417 194.744 473.579 194.744C474.741 194.744 475.546 193.773 475.188 193.155H475.099ZM487.794 275.159C489.046 273.394 489.225 267.832 486.632 270.392C484.576 272.423 484.665 274.453 485.112 275.777C485.559 277.013 486.543 276.924 487.794 275.159ZM480.016 298.374C480.016 299.433 482.251 299.433 484.218 299.963C486.185 300.581 486.095 299.345 485.827 297.491C485.559 295.638 483.86 295.903 480.91 295.726C480.91 295.726 479.927 297.227 479.927 298.286L480.016 298.374ZM580.237 298.198C577.019 299.433 582.025 301.111 582.025 301.111H593.29C596.24 301.111 593.111 298.904 591.055 297.227C588.999 295.55 583.456 296.962 580.327 298.198H580.237ZM613.317 306.76C615.105 306.76 619.396 303.406 622.436 302.346C625.475 301.287 632.538 299.08 633.343 298.639C634.148 298.198 634.326 298.816 633.79 300.316C633.254 301.817 631.555 304.906 632.896 305.083C634.237 305.259 634.863 304.73 634.952 303.141C634.952 301.552 636.025 299.433 636.83 297.845C637.634 296.256 638.707 291.048 638.171 290.165C637.724 289.282 635.22 289.547 634.684 289.282C634.148 289.017 632.806 286.722 632.002 285.31C631.197 283.898 628.515 282.397 627.889 283.809C627.263 285.134 627.711 286.987 626.727 287.34C625.744 287.693 622.704 287.782 620.826 286.899C618.949 286.105 619.485 283.986 618.681 284.427C617.876 284.869 617.787 286.281 616.982 286.634C616.177 287.076 615.015 287.958 614.747 283.986C614.479 280.014 614.926 274.718 614.926 273.923C614.926 273.129 612.601 271.275 611.35 274.982C610.366 278.072 609.293 280.279 610.009 284.869C610.634 289.459 611.618 292.813 612.065 294.667C612.512 296.521 613.138 299.787 613.048 302.082C613.048 304.288 611.707 306.76 613.495 306.76H613.317ZM646.217 300.228C645.234 297.492 645.323 293.519 644.161 294.137C642.998 294.755 640.585 291.842 640.585 293.519C640.585 297.138 639.691 299.345 640.227 300.228C640.763 301.111 641.568 300.228 642.283 299.875C642.998 299.433 642.73 299.522 643.624 300.669C644.429 301.817 647.2 302.876 646.217 300.228ZM528.92 125.275C528.92 125.275 526.863 125.893 525.344 125.187C523.913 124.48 525.344 125.187 523.556 125.187C521.767 125.187 520.605 125.893 518.549 125.893C516.493 125.893 515.956 124.833 514.258 123.862C512.559 122.891 506.301 122.185 503.976 120.95C501.652 119.714 498.254 118.301 496.019 118.213C493.784 118.125 493.605 118.919 493.605 119.802C493.605 120.685 492.354 121.126 489.314 121.832C486.274 122.538 484.218 121.214 482.072 120.773C479.927 120.332 475.993 122.803 473.4 124.392C470.808 125.981 472.149 127.658 473.311 128.364C474.384 129.07 476.351 129.247 474.741 129.953C473.937 130.306 473.132 129.953 471.791 129.07C470.45 128.188 470.092 130.13 472.149 130.659C474.205 131.101 471.702 133.307 470.539 132.336C469.198 131.277 467.41 132.425 465.175 133.219C462.94 133.925 466.874 136.309 466.427 136.573C465.98 136.838 464.37 139.222 463.655 140.457C462.94 141.693 464.102 142.046 466.784 142.046C469.466 142.046 469.824 144.43 468.483 144.783C467.142 145.136 466.427 146.195 464.37 147.166C462.314 148.137 462.94 147.166 461.599 149.108C460.258 151.05 464.549 152.462 466.337 152.021C468.125 151.58 468.304 149.814 470.271 149.373C472.238 148.931 473.937 150.785 472.864 151.58C471.791 152.286 469.913 152.815 468.572 152.815C467.231 152.815 466.784 154.846 468.841 155.199C470.897 155.552 477.602 155.905 478.943 154.934C480.284 153.963 484.218 152.727 486.721 152.639C489.314 152.551 492.086 152.727 494.052 153.875C496.019 154.934 496.377 154.757 498.344 155.552C500.311 156.346 505.049 158.465 505.675 158.2C506.301 157.935 510.056 161.289 511.486 162.613C512.917 163.937 516.94 167.91 518.638 167.821C520.337 167.733 519.354 165.438 520.605 164.732C521.857 164.026 523.556 166.321 525.075 166.144C526.685 166.056 530.082 166.233 530.44 167.468C530.797 168.704 526.416 167.468 523.734 167.557C521.052 167.645 523.287 170.116 524.45 171.97C525.701 173.912 531.512 176.031 532.764 175.501C534.016 174.883 534.463 173.471 534.105 172.147C533.748 170.823 529.814 170.911 529.456 170.734C529.099 170.47 530.44 170.47 532.406 170.646C534.373 170.823 534.999 170.028 535.536 168.704C536.161 167.38 537.324 169.94 539.201 172.676C540.989 175.413 539.559 176.207 537.771 176.295C535.983 176.384 538.128 178.237 539.022 179.208C539.916 180.179 540.453 182.21 540.81 183.445C541.168 184.681 545.549 184.152 546.443 184.152C547.337 184.152 547.069 186.8 548.231 188.389C549.482 189.977 553.148 189.801 553.863 189.801C554.579 189.801 556.456 192.096 558.155 193.067C559.853 194.038 562.804 196.421 562.625 195.45C562.535 194.479 561.731 192.361 561.999 191.566C562.267 190.86 565.396 190.948 566.29 192.008C567.184 193.067 565.933 193.685 564.502 193.685C563.072 193.685 564.502 195.009 565.396 196.774C566.29 198.54 571.744 199.422 573.532 199.687C575.32 199.952 579.522 203.571 580.684 203.395C581.936 203.306 585.78 204.454 586.317 205.16C586.764 205.866 589.267 206.572 593.022 206.572C596.777 206.572 595.257 202.953 595.972 201.629C596.688 200.305 598.654 203.306 600.711 204.983C602.767 206.661 605.986 207.014 608.489 207.279C611.081 207.543 609.562 205.337 608.936 203.395C608.31 201.453 602.856 196.156 601.605 195.185C600.353 194.214 596.33 192.272 596.33 190.242C596.33 188.212 595.078 186.711 593.737 184.593C592.396 182.386 588.731 179.915 587.121 179.561C585.512 179.208 585.78 177.796 584.797 175.854C583.813 173.912 585.691 174.618 586.853 174.265C588.105 173.912 586.496 172.853 584.886 171.705C583.277 170.646 583.903 170.293 584.529 170.381C585.155 170.47 587.568 172.323 588.641 173.382C589.714 174.442 588.731 171.352 588.641 169.675C588.552 167.998 586.585 165.703 587.568 164.114C588.552 162.525 580.505 157.759 580.505 157.759L576.929 156.17C573.353 154.581 580.506 156.788 581.4 157.052C582.383 157.317 583.813 157.759 584.439 156.699C585.065 155.64 582.115 154.934 582.741 153.08C583.366 151.315 584.171 150.167 584.171 148.137C584.171 146.107 581.221 145.754 580.416 144.165C579.522 142.576 578.986 142.399 577.466 142.929C576.035 143.547 576.035 145.224 574.426 145.312C572.817 145.401 571.386 143.988 570.045 143.547C568.704 143.106 567.006 141.87 568.257 141.164C569.509 140.457 573.621 142.399 575.32 142.223C577.019 142.135 575.409 139.133 573.532 138.604C571.565 138.162 561.373 138.869 559.138 138.692C556.903 138.604 556.545 138.074 556.903 137.103C557.261 136.132 561.373 137.191 563.161 136.485C564.86 135.779 560.926 135.426 558.065 135.426C555.204 135.426 550.377 135.867 551.449 135.073C552.522 134.19 553.684 134.367 553.684 133.749C553.684 133.131 551.986 133.307 550.287 132.778C548.588 132.336 548.857 131.012 547.873 130.395C546.89 129.777 543.85 130.306 543.403 129.512C542.956 128.806 540.81 128.188 538.307 128.276C535.714 128.364 532.585 128.541 530.261 127.305C527.936 126.069 528.92 125.54 528.652 125.098L528.92 125.275ZM595.883 557.979C596.24 556.302 589.893 557.626 586.674 557.626C583.456 557.626 576.393 556.743 573.532 555.596C570.761 554.448 561.373 550.035 557.976 549.152C554.579 548.269 550.108 550.476 546.89 550.476C543.671 550.476 545.191 549.329 542.241 547.298C539.201 545.268 537.413 546.592 529.903 546.592C522.393 546.592 522.93 547.122 511.754 552.153C507.642 554.007 507.642 558.597 508.357 560.274C509.072 561.951 513.453 558.244 515.062 556.214C516.761 554.183 524.092 551.006 527.4 550.829C530.797 550.653 530.44 552.153 529.635 553.212C528.92 554.36 533.569 555.243 534.463 555.243C535.357 555.243 537.502 555.772 539.916 556.39C542.33 556.92 552.612 556.037 555.115 555.508C557.529 554.978 560.39 559.391 562.804 561.245C565.218 563.099 566.916 562.569 568.794 561.598C570.671 560.716 571.386 561.775 570.85 563.628C570.314 565.482 571.565 567.689 572.549 567.159C573.443 566.63 584.707 563.805 588.462 562.746C592.217 561.598 595.347 559.745 595.794 558.156L595.883 557.979ZM609.651 573.603C613.227 572.544 614.3 571.926 617.072 571.661C619.843 571.396 621.81 573.25 623.866 573.25C625.922 573.25 626.191 571.043 626.548 569.631C626.906 568.219 627.979 566.894 629.588 566.277C631.197 565.659 631.197 566.277 632.27 564.599C633.343 562.922 635.936 563.54 639.333 563.54C642.73 563.54 644.787 561.775 644.965 559.656C645.055 557.626 639.959 557.008 638.618 557.008C637.277 557.008 632.538 558.244 631.912 557.008C631.287 555.772 627.263 554.448 625.207 554.095C623.151 553.742 619.485 556.302 617.25 557.803C615.015 559.391 611.976 559.833 610.098 558.862C608.131 557.891 606.611 558.862 603.661 560.186C600.264 561.775 600.979 563.54 601.426 564.07C601.873 564.511 605.538 562.834 608.221 562.304C610.903 561.687 609.919 566.012 610.813 567.159C611.707 568.219 616.535 568.925 618.413 568.219C620.29 567.512 620.111 568.66 619.396 569.631C618.681 570.602 615.015 570.602 610.813 570.602C606.611 570.602 605.36 569.984 599.995 570.602C594.631 571.22 595.257 573.162 595.346 575.015C595.436 576.957 606.075 574.662 609.651 573.603ZM580.953 581.459C578.181 581.459 576.572 579.517 572.28 579.429C572.28 579.429 567.006 577.84 565.575 581.989C564.145 586.049 570.85 585.255 575.052 585.255C579.254 585.255 583.098 584.637 584.35 582.96C585.601 581.283 583.724 581.548 580.953 581.548V581.459ZM658.286 556.39C655.247 557.45 653.995 558.685 655.157 560.362C656.23 562.04 659.538 562.04 663.472 560.627C667.406 559.215 666.869 557.538 666.243 555.949C665.618 554.36 661.863 555.154 658.286 556.39ZM522.214 559.215C520.695 559.391 520.873 560.804 520.963 562.393C521.052 563.982 522.93 564.07 524.092 563.54C525.254 563.011 524.897 561.951 524.539 560.627C524.181 559.303 523.377 559.038 522.125 559.215H522.214ZM565.843 100.118C566.827 102.148 565.843 103.56 574.515 105.326C583.188 107.091 600.264 111.505 607.327 113.535C614.389 115.565 631.644 119.714 633.879 122.097C636.114 124.48 652.118 131.277 659.181 133.661C666.243 136.044 677.598 141.693 677.419 139.045C677.24 136.485 673.753 135.603 671.965 134.278C670.177 132.866 663.651 129.865 663.651 129.865C663.651 129.865 681.263 135.426 684.124 136.044C686.985 136.662 690.829 137.015 685.733 134.632C680.637 132.248 672.591 129.865 665.707 126.069C658.823 122.274 651.134 119.89 648.452 119.89C645.77 119.89 635.31 117.684 631.465 116.095C627.621 114.506 620.737 111.328 613.674 110.269C606.611 109.298 601.068 107.444 603.303 107.091C605.538 106.65 625.207 111.063 633.075 113.711C640.942 116.271 644.787 117.684 643.803 116.536C642.82 115.3 644.429 113.711 648.899 115.742C653.369 117.772 674.021 125.187 679.922 128.364C685.823 131.542 696.909 134.808 698.339 136.397C699.77 137.986 703.167 141.958 701.379 143.017C699.591 143.988 694.316 143.017 692.081 142.046C689.846 141.075 683.945 136.838 682.336 137.633C680.727 138.427 683.945 140.634 690.204 142.664C696.462 144.694 705.402 148.667 709.872 151.668C714.342 154.669 726.859 163.231 728.111 164.908C729.362 166.497 743.756 178.502 745.544 179.915C747.332 181.327 750.372 182.916 749.567 185.74C748.763 188.565 750.551 191.301 751.981 191.301C753.412 191.301 757.614 189.095 760.296 191.125C762.888 193.155 768.968 196.686 774.511 200.923C779.965 205.16 781.842 206.749 782.2 208.514C782.647 210.28 781.574 208.691 781.574 212.31C781.574 215.929 782.557 217.341 781.574 218.489C780.59 219.725 782.2 222.461 783.362 223.52C784.614 224.491 792.481 229.699 797.756 234.731C803.031 239.762 807.501 244.529 809.736 246.736C811.971 248.942 817.246 253.533 817.425 254.327C817.603 255.121 819.034 251.767 819.034 250.884C819.034 250.002 819.66 249.913 821.627 251.061C823.683 252.297 823.683 250.267 822.074 247.618C820.464 245.059 818.587 240.998 817.425 238.791C816.173 236.585 812.329 231.377 807.054 226.345C801.779 221.314 795.342 217.783 793.107 213.104C790.872 208.514 786.223 202.512 783.362 201.1C780.501 199.687 777.104 197.922 776.031 195.097C775.047 192.272 772.186 189.713 770.935 187.682C770.041 186.27 767.895 183.534 766.554 182.033C768.163 183.534 771.382 185.917 774.153 186.27C775.316 186.447 776.299 186.27 777.104 185.829C774.332 183.622 771.561 181.415 768.789 179.208C766.643 178.767 764.855 178.414 763.872 178.237C760.832 177.619 756.988 172.676 753.948 170.47C752.965 169.763 751.355 167.645 749.657 165.35C694.048 127.04 628.694 101.53 558.065 93.1442C558.333 93.2324 558.602 93.409 558.78 93.4973C563.429 95.8806 564.681 98.0873 565.665 100.118H565.843ZM507.731 93.6738C498.612 93.6738 473.668 94.2917 482.162 94.9096C490.655 95.5275 512.112 94.9096 514.794 94.2917C516.493 93.8503 524.092 92.0849 530.797 90.7609C522.84 90.3195 514.883 90.0547 506.837 90.0547C502.456 90.0547 498.076 90.0547 493.784 90.2312C502.546 90.7609 510.681 91.5553 512.022 91.6436C514.615 91.8201 516.85 93.6738 507.731 93.6738ZM431.202 105.502C434.331 106.12 436.924 103.913 436.924 102.413C436.924 100.912 435.583 101.089 429.145 102.589C427 103.031 428.162 104.796 431.291 105.502H431.202ZM476.708 101.795C479.122 101.353 477.87 99.6762 476.082 99.6762C474.294 99.6762 469.288 101 469.288 101C469.288 101 469.109 102.148 469.288 102.589C469.466 103.031 474.294 102.236 476.798 101.795H476.708ZM481.447 102.766C484.129 102.766 484.933 102.324 485.38 101.089C485.827 99.7645 482.698 100.382 480.374 100.735C480.374 100.735 480.195 101.53 479.122 101.883C478.049 102.236 478.764 102.766 481.447 102.766ZM465.533 102.324C466.695 102.589 468.662 101.618 467.947 100.471C467.231 99.1466 464.37 102.06 465.533 102.324ZM498.165 103.913C499.238 103.207 497.45 102.766 495.572 103.295C495.572 103.295 494.589 104.443 495.215 104.708C495.841 105.061 497.092 104.708 498.165 103.913ZM519.354 106.12C516.94 105.767 521.231 105.414 523.019 104.708C524.807 104.002 522.572 103.384 520.516 103.207C518.37 103.031 516.671 104.09 514.526 105.326C512.291 106.561 510.145 106.914 508.536 105.943C506.927 104.972 506.837 104.708 503.44 104.443C501.205 104.266 499.953 104.884 500.132 106.12C500.311 107.444 504.066 108.415 507.105 108.415C510.145 108.415 507.999 108.415 509.787 109.739C511.575 111.063 512.738 110.18 516.046 110.18C519.354 110.18 520.337 109.563 520.963 108.415C521.499 107.268 526.953 108.062 530.618 107.885C534.284 107.621 534.105 106.032 531.602 106.032C529.099 106.032 521.946 106.473 519.443 106.208L519.354 106.12ZM612.422 152.904C609.651 152.551 610.187 151.226 607.416 151.58C604.644 151.933 609.115 155.905 611.35 157.141C613.585 158.376 613.317 155.728 615.283 154.934C617.25 154.139 615.015 155.905 615.373 158.994C615.73 162.084 618.144 159.259 619.307 157.935C620.379 156.611 621.631 157.229 623.24 158.818C624.85 160.407 627.174 159.436 628.158 158.553C629.141 157.67 632.27 157.317 633.432 156.17C634.505 154.934 631.823 154.404 631.108 153.08C630.393 151.756 628.426 148.049 626.191 145.754C623.956 143.459 618.86 144.165 614.211 144.783C614.211 144.783 612.78 146.195 614.568 147.784C616.356 149.373 614.568 147.784 612.78 149.461C610.992 151.138 613.674 151.491 615.462 152.109C617.25 152.727 615.373 153.345 612.512 152.992L612.422 152.904ZM648.363 144.959C648.363 145.842 651.045 146.372 653.19 146.283C655.336 146.107 652.922 144.341 650.687 143.459C649.704 143.017 648.452 144.077 648.452 144.959H648.363ZM666.243 142.576C664.455 141.517 661.326 140.016 661.863 141.605C662.488 143.635 665.439 145.136 666.512 144.783C667.584 144.43 668.031 143.547 666.243 142.576ZM729.273 174.442C730.346 174 730.614 176.031 731.508 177.355C732.491 178.679 737.587 184.769 738.66 184.769C739.733 184.769 738.928 183.357 737.14 181.68C735.352 180.003 733.028 175.06 732.76 173.382C732.491 171.794 732.044 170.381 729.899 169.41C727.753 168.351 725.786 168.086 724.981 167.292C724.177 166.497 721.227 163.32 719.617 163.231C718.008 163.055 718.991 164.555 717.382 163.673C715.773 162.702 711.571 161.201 710.498 160.054C709.425 158.906 707.905 161.025 706.207 161.025C704.508 161.025 701.826 158.553 699.859 157.935C697.892 157.317 697.535 158.465 695.836 157.935C694.137 157.317 690.293 154.934 688.773 153.257C687.253 151.58 685.554 151.756 685.912 153.698C686.359 155.728 685.107 155.11 683.677 154.139C682.247 153.168 682.515 152.639 678.939 151.226C677.151 150.52 677.776 152.286 678.76 153.786C679.743 155.287 678.402 155.817 679.564 156.788C680.727 157.759 683.141 158.553 682.783 157.935C682.425 157.317 680.369 154.846 680.548 154.846C680.816 154.846 683.409 156.964 684.303 156.964C685.197 156.964 685.733 157.847 686.18 159.612C686.627 161.378 688.952 160.936 689.846 160.318C690.74 159.7 694.495 160.848 695.299 161.466C696.104 161.996 699.591 165.173 700.217 164.82C700.753 164.467 699.233 162.878 700.664 162.79C702.094 162.79 704.24 165.879 705.402 165.879C706.564 165.879 705.044 164.644 704.597 163.32C704.15 161.996 706.475 163.761 708.084 164.555C709.693 165.262 713.985 167.204 715.773 167.998C717.561 168.792 715.773 170.911 717.919 171.794C720.154 172.676 721.137 171.794 722.657 173.029C724.087 174.177 725.786 177.443 727.574 177.443C729.362 177.443 728.379 175.236 729.452 174.707L729.273 174.442ZM707.458 175.236C706.028 175.942 707.458 176.56 708.621 176.737C709.783 176.913 709.872 176.737 711.571 178.061C713.27 179.297 713.448 178.767 715.594 178.767C717.74 178.767 719.081 180.797 720.69 182.298C722.299 183.798 725.071 186.8 727.038 186.447C729.005 186.094 726.233 182.298 723.551 178.59C720.869 174.883 715.952 173.382 713.895 172.765C711.839 172.147 712.376 171.441 710.766 169.675C709.246 167.91 705.67 167.645 703.525 167.468C701.379 167.292 701.558 169.057 702.094 170.205C702.541 171.352 705.491 171.97 707.905 172.676C710.23 173.382 709.068 174.442 707.548 175.148L707.458 175.236ZM810.362 216.017C814.206 222.991 817.693 229.611 820.643 233.76C825.56 240.468 828.153 247.265 827.795 251.061C827.438 254.945 826.812 258.123 829.405 262.007C831.997 265.89 847.643 288.311 849.252 291.577C850.861 294.755 860.696 308.437 861.947 313.292C863.199 318.147 863.646 324.149 866.596 331.123C869.547 338.096 872.944 347.541 875.894 353.72C878.845 359.987 879.292 363.871 879.56 368.373C879.828 372.963 885.192 378.524 887.338 380.378C889.573 382.32 897.798 396.532 900.48 406.418C903.163 416.304 900.033 415.598 902.715 419.217C905.398 422.836 907.633 424.072 906.649 427.162C905.666 430.251 907.096 434.841 909.063 435.371C911.03 435.812 917.378 438.99 917.825 442.079C918.272 445.169 920.954 452.407 922.921 453.643C924.083 454.349 926.944 456.909 929 458.851C917.378 364.754 874.196 280.279 810.272 216.017H810.362ZM480.195 745.908C479.033 745.29 476.887 745.908 475.725 747.497C474.205 749.704 477.066 750.939 477.423 750.41C477.87 749.88 479.658 749.351 481.089 748.468C482.609 747.585 481.268 746.526 480.105 745.908H480.195ZM479.927 751.822C479.927 751.822 478.943 752.881 478.854 754.029C478.764 755.177 481.357 753.941 483.413 752.881C485.47 751.91 483.86 751.381 483.056 750.145C482.251 748.821 481.178 749.88 479.927 751.822ZM486.543 748.468C485.559 750.41 487.168 751.469 489.314 751.204C491.37 750.94 492.801 748.644 492.264 748.291C491.728 748.027 487.615 746.438 486.543 748.468ZM347.788 126.775C348.861 126.246 353.153 124.657 353.957 123.068C354.762 121.479 350.828 123.862 348.057 125.451C348.057 125.451 346.716 127.305 347.788 126.775ZM367.815 118.919C367.815 117.066 362.719 119.89 358.249 122.009C358.249 122.009 356.908 123.598 355.119 124.922C353.331 126.246 358.338 124.922 363.166 123.068C367.994 121.214 367.725 120.773 367.725 118.919H367.815ZM424.049 105.237C425.659 104.972 425.659 104.266 426.106 103.207C426.553 102.148 424.497 102.677 421.546 103.913C421.546 103.913 422.44 105.502 424.139 105.237H424.049Z" fill="url(#paint1_linear_7381_18771)"/>

	<path d="M740.574 147.967C875.979 164.967 818.248 206.167 545.502 478.967C272.756 751.767 337.445 1038.47 450.002 930.467M935.001 446.967C935.001 170.967 552.864 265.633 342.502 330.967C215.335 376.978 -63.9944 534.5 116.004 676M915.001 652.467C989.001 524.467 816.5 82.9668 272.5 155.5M728.001 880.967C847.032 537.467 868.296 202.167 533.502 82.9668" stroke="url(#paint0_linear_7381_18796)" stroke-width="4" stroke-linecap="round" stroke-linejoin="round" stroke-dasharray="15 15">
		<animate attributeName="stroke-dashoffset" values="0;60" dur="1.5s" repeatCount="indefinite" />
	</path>


	<circle cx="758" cy="264.07" opacity=".2" r="44" fill="url(#paint3_linear_7381_18771)" filter="url(#blurMe)">
		<animate attributeName="opacity" values="0;.2" dur="3s" begin="0" />
	</circle>

	<circle cx="758" cy="264.07" r="27" opacity="0" fill="url(#paint5_linear_7381_18771)">
		<animate attributeName="r" values="14;50" dur="3s" begin="0" repeatCount="indefinite" />
		<animate attributeName="opacity" values=".4;.4;0" dur="3s" begin="0" repeatCount="indefinite" />
	</circle>

	<circle cx="758" cy="264.07" r="27" opacity="0" fill="url(#paint5_linear_7381_18771)">
		<animate attributeName="r" values="14;50" dur="3s" begin="1" repeatCount="indefinite" />
		<animate attributeName="opacity" values=".4;.4;0" dur="3s" begin="1" repeatCount="indefinite" />
	</circle>

	<circle cx="758" cy="264.07" r="27" opacity="0" fill="url(#paint5_linear_7381_18771)">
		<animate attributeName="r" values="14;50" dur="3s" begin="2" repeatCount="indefinite" />
		<animate attributeName="opacity" values=".4;.4;0" dur="3s" begin="2" repeatCount="indefinite" />
	</circle>

	<circle cx="758" cy="264.07" opacity=".8" r="14" fill="white">
	</circle>

	<defs>
		<radialGradient id="paint0_radial_7381_18771" cx="0" cy="0" r="1" gradientUnits="userSpaceOnUse" gradientTransform="translate(509.935 509.985) rotate(-32.5372) scale(510.123 510.017)">
			<stop offset="0.46"/>
			<stop offset="0.56" stop-color="#000102"/>
			<stop offset="0.64" stop-color="#01060B"/>
			<stop offset="0.7" stop-color="#020E1A"/>
			<stop offset="0.75" stop-color="#041930"/>
			<stop offset="0.76" stop-color="#051C35"/>
			<stop offset="0.78" stop-color="#062038"/>
			<stop offset="0.8" stop-color="#0A2C42"/>
			<stop offset="0.81" stop-color="#0C3146"/>
			<stop offset="0.82" stop-color="#0B2F43"/>
			<stop offset="0.83" stop-color="#0A293B"/>
			<stop offset="0.84" stop-color="#041118"/>
			<stop offset="1"/>
		</radialGradient>
		<linearGradient id="paint1_linear_7381_18771" x1="383.172" y1="90.0547" x2="1019.96" y2="834.101" gradientUnits="userSpaceOnUse">
			<stop stop-color="#008FBF"/>
			<stop offset="1" stop-color="#7E3A77"/>
		</linearGradient>

		<filter id="blurMe">
			<feGaussianBlur in="SourceGraphic" stdDeviation="2" />
		</filter>
		<linearGradient id="paint0_linear_7381_18796" x1="218.265" y1="2.96683" x2="873.355" y2="878.78" gradientUnits="userSpaceOnUse">
			<stop stop-color="#008FBF"/>
			<stop offset="1" stop-color="#7E3A77"/>
		</linearGradient>


		<linearGradient id="paint5_linear_7381_18771" x1="744.289" y1="237.07" x2="785" y2="291.07" gradientUnits="userSpaceOnUse">
			<stop stop-color="#008FBF"/>
			<stop offset="1" stop-color="#7E3A77"/>
		</linearGradient>

		<linearGradient id="paint3_linear_7381_18771" x1="715.406" y1="228.557" x2="801.826" y2="308.259" gradientUnits="userSpaceOnUse">
			<stop stop-color="#34D0E3"/>
			<stop offset="0.859862" stop-color="#940CFF"/>
			<stop offset="0.96875" stop-color="#C00CFF"/>
		</linearGradient>
	</defs>
</svg>
