<svg width="95" height="104" viewBox="0 0 95 104" fill="none" xmlns="http://www.w3.org/2000/svg">
<g filter="url(#filter0_d_7381_20376)">
<path fill-rule="evenodd" clip-rule="evenodd" d="M47.5 16.9999C62.1355 16.9999 73.9999 28.8644 73.9999 43.4999C73.9999 58.1353 62.1355 69.9999 47.5 69.9999C32.8644 69.9999 21 58.1353 21 43.4999C21 28.8644 32.8644 16.9999 47.5 16.9999Z" fill="url(#paint0_linear_7381_20376)"/>
</g>
<path fill-rule="evenodd" clip-rule="evenodd" d="M42 0.999936H51.9999C68.5685 0.999936 81.9999 14.4311 81.9999 30.9999V40.9999C81.9999 57.5682 68.5685 70.9998 51.9999 70.9998H42C25.4315 70.9998 11.9999 57.5682 11.9999 40.9999V30.9999C11.9999 14.4311 25.4315 0.999936 42 0.999936Z" fill="url(#paint1_linear_7381_20376)"/>
<g clip-path="url(#clip0_7381_20376)">
<path d="M45.9464 43.866C45.0088 43.3572 44.0392 42.8324 43.6776 40.0292C43.1176 35.6772 40.4328 34.0996 38.7656 34.0996C38.7304 34.0996 38.692 34.0996 38.6568 34.0996C37.716 34.1348 37.3544 34.666 37.3288 35.1108C37.2584 36.266 37.2072 39.8532 37.86 41.146C38.2344 41.8852 39.5272 44.4004 40.6152 46.5092C40.7272 46.73 40.9544 46.8644 41.2008 46.8644C41.3064 46.8644 41.4088 46.8388 41.5016 46.7908C41.6584 46.7108 41.7736 46.5732 41.828 46.4068C41.8824 46.2404 41.8664 46.0612 41.7864 45.9044C40.916 44.218 39.4408 41.3508 39.0376 40.5508C38.6184 39.7188 38.5832 37.0404 38.6216 35.7412C38.6216 35.6484 38.6664 35.562 38.7368 35.5044C38.7944 35.4564 38.868 35.4308 38.9416 35.4308C38.9576 35.4308 38.9736 35.4308 38.9896 35.434C39.2456 35.4724 39.6488 35.5844 40.1128 35.8852C40.8072 36.3364 42.0264 37.498 42.372 40.1956C42.8168 43.6708 44.324 44.4836 45.3256 45.0276C45.6872 45.2228 45.972 45.3796 46.148 45.6068C46.7144 46.3396 47.0472 47.7028 47.0568 49.3476C47.0568 49.7092 47.3544 50.0036 47.716 50.0036H47.7192C48.0808 50.0036 48.3752 49.7028 48.372 49.3412C48.3624 47.9588 48.1512 46.0452 47.188 44.8004C46.8392 44.3492 46.3848 44.1028 45.9432 43.866H45.9464Z" fill="white"/>
<path d="M37.541 48.3204C35.8162 45.338 33.4546 41.2516 33.0962 39.8148C32.6066 37.8532 34.1842 31.2068 35.6786 26.1124C35.717 25.9812 35.8322 25.8916 35.9666 25.882C35.9922 25.882 36.021 25.882 36.053 25.882C36.2418 25.882 36.4978 25.914 36.8178 25.9748C37.4386 26.0932 38.0786 26.4708 38.1042 28.3556C38.1106 28.8836 38.0562 29.4884 37.9346 30.266C37.8866 30.5636 37.8322 30.8612 37.7778 31.162C37.7458 31.3348 37.7842 31.5108 37.8834 31.6548C37.9826 31.7988 38.133 31.898 38.3058 31.93C38.3474 31.9364 38.389 31.9428 38.4306 31.9428C38.7442 31.9428 39.0162 31.7156 39.0738 31.402C39.141 31.0372 39.1922 30.7428 39.2338 30.4708C39.3682 29.6196 39.429 28.9412 39.4194 28.3396C39.3906 26.1764 38.6226 24.9828 37.0642 24.682C36.6898 24.6116 36.3506 24.5732 36.053 24.5732C35.1826 24.5732 34.6706 24.874 34.485 25.4916C33.461 28.97 31.1346 37.3764 31.8194 40.1316C32.2226 41.7508 34.4434 45.5908 36.4018 48.9796C36.8242 49.7092 37.2242 50.4036 37.5794 51.0276C37.6978 51.2324 37.9154 51.3604 38.1522 51.3604C38.2642 51.3604 38.3762 51.3316 38.4754 51.274C38.629 51.1876 38.7378 51.0468 38.7858 50.8772C38.8338 50.7076 38.8114 50.5316 38.7218 50.378C38.3666 49.7508 37.9634 49.0532 37.5378 48.3236L37.541 48.3204Z" fill="white"/>
<path d="M56.7701 35.1108C56.7445 34.666 56.3829 34.1348 55.4421 34.0996C55.4069 34.0996 55.3685 34.0996 55.3333 34.0996C53.8997 34.0996 51.0261 35.338 50.4245 40.0292C50.2357 41.4948 49.8485 42.5092 49.2373 43.1268C48.9813 43.3828 48.9845 43.802 49.2405 44.058C49.3653 44.1828 49.5285 44.25 49.7045 44.25C49.8805 44.25 50.0469 44.1796 50.1717 44.0548C51.0037 43.2132 51.4997 41.9876 51.7301 40.1988C52.0757 37.5012 53.2917 36.3396 53.9893 35.8884C54.4533 35.5876 54.8565 35.4788 55.1125 35.4372C55.1285 35.4372 55.1445 35.434 55.1605 35.434C55.2341 35.434 55.3077 35.4596 55.3653 35.5076C55.4357 35.5652 55.4773 35.6516 55.4805 35.7444C55.5189 37.0436 55.4837 39.722 55.0645 40.554C54.6613 41.354 53.1861 44.2212 52.3157 45.9076C52.2357 46.0644 52.2197 46.2436 52.2741 46.41C52.3285 46.5764 52.4437 46.714 52.6005 46.794C52.6933 46.842 52.7957 46.8676 52.9013 46.8676C53.1477 46.8676 53.3749 46.73 53.4869 46.5124C54.5749 44.4036 55.8677 41.8884 56.2421 41.1492C56.8949 39.8564 56.8437 36.2692 56.7733 35.114L56.7701 35.1108Z" fill="white"/>
<path d="M59.6151 25.4845C59.4327 24.8669 58.9207 24.5693 58.0503 24.5693C57.7527 24.5693 57.4103 24.6045 57.0359 24.6781C55.4807 24.9757 54.7095 26.1725 54.6807 28.3325C54.6711 28.9373 54.7319 29.6157 54.8663 30.4669C54.9079 30.7357 54.9591 31.0333 55.0263 31.3981C55.0839 31.7117 55.3527 31.9389 55.6663 31.9389C55.7079 31.9389 55.7495 31.9357 55.7911 31.9261C55.9639 31.8941 56.1143 31.7981 56.2135 31.6509C56.3127 31.5069 56.3511 31.3309 56.3191 31.1581C56.2647 30.8573 56.2103 30.5597 56.1623 30.2621C56.0407 29.4845 55.9863 28.8797 55.9927 28.3517C56.0183 26.4669 56.6551 26.0925 57.2791 25.9741C57.6055 25.9101 57.8551 25.8813 58.0375 25.8813C58.0727 25.8813 58.1047 25.8813 58.1367 25.8813C58.2711 25.8909 58.3863 25.9837 58.4247 26.1117C59.9223 31.2061 61.4967 37.8525 61.0071 39.8141C60.6487 41.2541 58.2871 45.3373 56.5623 48.3229C56.1399 49.0557 55.7367 49.7501 55.3783 50.3773C55.2919 50.5309 55.2695 50.7069 55.3143 50.8765C55.3623 51.0461 55.4711 51.1869 55.6247 51.2733C55.7239 51.3309 55.8359 51.3597 55.9479 51.3597C56.1847 51.3597 56.4055 51.2317 56.5207 51.0269C56.8759 50.4029 57.2791 49.7085 57.6983 48.9789C59.6567 45.5901 61.8775 41.7501 62.2807 40.1309C62.9655 37.3757 60.6391 28.9693 59.6087 25.4845H59.6151Z" fill="white"/>
<path d="M42.838 30.2404C43.0108 30.7876 43.3083 31.6484 43.6699 32.3364C43.4779 32.5028 43.3051 32.6948 43.1675 32.9188C42.8827 33.3796 42.63 34.1604 43.0492 35.2548C43.1452 35.5076 43.3947 35.6804 43.6635 35.6804C43.7435 35.6804 43.8235 35.6644 43.8971 35.6356C44.2363 35.5076 44.406 35.1236 44.278 34.7876C44.0348 34.1508 44.1627 33.8148 44.2843 33.6132C44.7067 32.922 45.9899 32.6308 46.4059 32.586C46.4155 32.586 46.4219 32.586 46.4315 32.586C48.4891 32.5156 50.1467 31.7956 51.3595 30.4516C53.6859 27.866 53.6635 23.7508 53.5483 22.0996C53.5099 21.5684 53.206 21.1012 52.7324 20.842C52.4956 20.714 52.2299 20.6436 51.9675 20.6436C51.8043 20.6436 51.6443 20.6692 51.4875 20.7172C49.4747 21.3476 44.6204 23.1556 42.998 26.346C42.3932 27.5332 42.3067 28.7844 42.7387 30.058C42.7611 30.1252 42.7931 30.186 42.8347 30.2404H42.838ZM44.1755 26.9412C45.5131 24.3108 49.9612 22.5412 51.8139 21.9044C51.8491 21.8916 51.8844 21.8884 51.9196 21.8884C51.9836 21.8884 52.0443 21.9076 52.0955 21.9428C52.1787 21.9972 52.2332 22.09 52.2396 22.1892C52.3228 23.3476 52.4284 27.2996 50.3868 29.5684C49.414 30.65 48.0891 31.2068 46.3387 31.274C46.1851 31.29 45.4971 31.3796 44.7675 31.6772C44.4379 31.0276 44.1403 30.1348 43.9835 29.6132C43.9643 29.5588 43.9515 29.5012 43.9355 29.4468C43.9291 29.4212 43.9195 29.3924 43.9131 29.37C43.6891 28.5284 43.7755 27.7316 44.1755 26.9444V26.9412Z" fill="white"/>
<path d="M46.732 29.5362C46.7992 29.5362 46.8696 29.5266 46.9368 29.5042C48.8408 28.8834 49.8328 28.2178 50.3384 26.1282C50.4248 25.7762 50.204 25.4178 49.852 25.3346C49.8008 25.3218 49.7496 25.3154 49.6984 25.3154C49.3944 25.3154 49.1288 25.5234 49.0584 25.821C48.716 27.2386 48.2456 27.693 46.5304 28.253C46.364 28.3074 46.2264 28.4226 46.1496 28.5794C46.0696 28.7362 46.0568 28.9154 46.1112 29.0818C46.2008 29.3538 46.4504 29.5362 46.7352 29.5362H46.732Z" fill="white"/>
</g>
<defs>
<filter id="filter0_d_7381_20376" x="0" y="9" width="95" height="95" filterUnits="userSpaceOnUse" color-interpolation-filters="sRGB">
<feFlood flood-opacity="0" result="BackgroundImageFix"/>
<feColorMatrix in="SourceAlpha" type="matrix" values="0 0 0 0 0 0 0 0 0 0 0 0 0 0 0 0 0 0 127 0" result="hardAlpha"/>
<feOffset dy="13"/>
<feGaussianBlur stdDeviation="10.5"/>
<feColorMatrix type="matrix" values="0 0 0 0 0.494118 0 0 0 0 0.227451 0 0 0 0 0.466667 0 0 0 0.49 0"/>
<feBlend mode="normal" in2="BackgroundImageFix" result="effect1_dropShadow_7381_20376"/>
<feBlend mode="normal" in="SourceGraphic" in2="effect1_dropShadow_7381_20376" result="shape"/>
</filter>
<linearGradient id="paint0_linear_7381_20376" x1="33.5352" y1="16" x2="75" y2="71" gradientUnits="userSpaceOnUse">
<stop stop-color="#008FBF"/>
<stop offset="1" stop-color="#7E3A77"/>
</linearGradient>
<linearGradient id="paint1_linear_7381_20376" x1="28.7187" y1="2.33128e-06" x2="83" y2="72" gradientUnits="userSpaceOnUse">
<stop stop-color="#008FBF"/>
<stop offset="1" stop-color="#7E3A77"/>
</linearGradient>
<clipPath id="clip0_7381_20376">
<rect width="32" height="32" fill="white" transform="translate(31 20)"/>
</clipPath>
</defs>
</svg>
