<svg xmlns="http://www.w3.org/2000/svg" width="72" height="72" viewBox="0 0 72 72" fill="none"><path fill-rule="evenodd" clip-rule="evenodd" d="M31 0.999936H40.9999C57.5685 0.999936 70.9999 14.4311 70.9999 30.9999V40.9999C70.9999 57.5682 57.5685 70.9998 40.9999 70.9998H31C14.4315 70.9998 0.999936 57.5682 0.999936 40.9999V30.9999C0.999936 14.4311 14.4315 0.999936 31 0.999936Z" fill="url(#paint0_linear_6388_22387)"></path><path d="M28.33 47.36C34 47.36 35.83 42.5 35.83 36.38C35.83 30.29 34 25.46 28.33 25.46C22.69 25.46 20.83 30.29 20.83 36.38C20.83 42.5 22.69 47.36 28.33 47.36ZM28.33 44.63C24.88 44.63 23.89 41 23.89 36.38C23.89 31.79 24.88 28.19 28.33 28.19C31.81 28.19 32.77 31.79 32.77 36.38C32.77 41 31.81 44.63 28.33 44.63ZM39.0121 46.01C39.0121 46.67 39.3421 47 40.0021 47H50.2321C50.8621 47 51.2221 46.67 51.2221 46.01V45.41C51.2221 44.75 50.8621 44.42 50.2321 44.42H46.5721V26.81C46.5721 26.15 46.2421 25.82 45.5821 25.82H44.6221C44.1421 25.82 43.7821 25.97 43.4221 26.3L39.5821 30.05C39.1321 30.5 39.1021 30.98 39.5821 31.46L40.0021 31.88C40.4221 32.36 40.9021 32.36 41.3821 31.91L42.7321 30.59C43.3921 29.93 43.6621 29.45 43.6621 29.45H43.7221C43.7221 29.45 43.6921 30.08 43.6921 30.74V44.42H40.0021C39.3421 44.42 39.0121 44.75 39.0121 45.41V46.01Z" fill="white"></path><defs><linearGradient id="paint0_linear_6388_22387" x1="17.7187" y1="2.33128e-06" x2="72" y2="72" gradientUnits="userSpaceOnUse"><stop stop-color="#008FBF"></stop><stop offset="1" stop-color="#7E3A77"></stop></linearGradient></defs></svg>