<svg xmlns="http://www.w3.org/2000/svg" width="72" height="72" viewBox="0 0 72 72" fill="none"><path fill-rule="evenodd" clip-rule="evenodd" d="M31 0.999936H40.9999C57.5685 0.999936 70.9999 14.4311 70.9999 30.9999V40.9999C70.9999 57.5682 57.5685 70.9998 40.9999 70.9998H31C14.4315 70.9998 0.999936 57.5682 0.999936 40.9999V30.9999C0.999936 14.4311 14.4315 0.999936 31 0.999936Z" fill="url(#paint0_linear_6388_22399)"></path><path d="M28.33 47.36C34 47.36 35.83 42.5 35.83 36.38C35.83 30.29 34 25.46 28.33 25.46C22.69 25.46 20.83 30.29 20.83 36.38C20.83 42.5 22.69 47.36 28.33 47.36ZM28.33 44.63C24.88 44.63 23.89 41 23.89 36.38C23.89 31.79 24.88 28.19 28.33 28.19C31.81 28.19 32.77 31.79 32.77 36.38C32.77 41 31.81 44.63 28.33 44.63ZM39.2521 45.11C40.2421 45.89 42.4021 47.36 45.4321 47.36C49.7821 47.36 52.6321 44.18 52.6321 40.55C52.6321 36.44 49.2421 34.64 46.4221 34.34L51.7321 28.22C52.0621 27.86 52.1821 27.5 52.1821 27.02V26.75C52.1821 26.15 51.8521 25.82 51.1921 25.82H40.5121C39.8821 25.82 39.5221 26.15 39.5221 26.81V27.41C39.5221 28.04 39.8821 28.4 40.5121 28.4H46.6921C47.8621 28.4 48.4921 28.31 48.4921 28.31V28.37C48.4921 28.37 47.8621 28.94 47.1721 29.75L43.0921 34.58C42.7321 34.97 42.6421 35.42 42.8521 35.87L42.9421 36.05C43.1821 36.56 43.5121 36.77 44.0521 36.77H44.7121C47.3221 36.77 49.6321 38.06 49.6321 40.67C49.6321 42.95 47.6821 44.54 45.3121 44.54C43.2721 44.54 41.7421 43.49 40.9621 42.86C40.4221 42.5 39.9721 42.53 39.5821 43.04L39.1021 43.73C38.7421 44.24 38.7721 44.72 39.2521 45.11Z" fill="white"></path><defs><linearGradient id="paint0_linear_6388_22399" x1="17.7187" y1="2.33128e-06" x2="72" y2="72" gradientUnits="userSpaceOnUse"><stop stop-color="#008FBF"></stop><stop offset="1" stop-color="#7E3A77"></stop></linearGradient></defs></svg>