<?xml version="1.0" encoding="UTF-8"?> <svg xmlns="http://www.w3.org/2000/svg" width="95" height="104" viewBox="0 0 95 104" fill="none"><g filter="url(#filter0_d_4454_23318)"><path fill-rule="evenodd" clip-rule="evenodd" d="M47.5 16.9999C62.1355 16.9999 73.9999 28.8644 73.9999 43.4999C73.9999 58.1353 62.1355 69.9999 47.5 69.9999C32.8644 69.9999 21 58.1353 21 43.4999C21 28.8644 32.8644 16.9999 47.5 16.9999Z" fill="url(#paint0_linear_4454_23318)"></path></g><path fill-rule="evenodd" clip-rule="evenodd" d="M42 0.999936H51.9999C68.5685 0.999936 81.9999 14.4311 81.9999 30.9999V40.9999C81.9999 57.5682 68.5685 70.9998 51.9999 70.9998H42C25.4315 70.9998 11.9999 57.5682 11.9999 40.9999V30.9999C11.9999 14.4311 25.4315 0.999936 42 0.999936Z" fill="url(#paint1_linear_4454_23318)"></path><ellipse cx="47.3206" cy="32.9601" rx="3.68" ry="4.32" fill="white"></ellipse><path d="M29.2754 38.6332C29.2946 38.4668 29.317 38.2972 29.3394 38.1372C29.317 38.3004 29.2946 38.4668 29.2754 38.6332Z" fill="url(#paint2_linear_4454_23318)"></path><path d="M30.0723 35.1869C30.0883 35.1517 30.1075 35.1101 30.1235 35.0781C30.1043 35.1101 30.0883 35.1517 30.0723 35.1869Z" fill="url(#paint3_linear_4454_23318)"></path><path d="M30.2324 34.9022C30.2452 34.8798 30.2612 34.8542 30.274 34.835C30.2612 34.8542 30.2452 34.8798 30.2324 34.9022Z" fill="url(#paint4_linear_4454_23318)"></path><path d="M29.1543 39.8687C29.1703 39.6767 29.1863 39.4847 29.2023 39.2959C29.1831 39.4847 29.1671 39.6767 29.1543 39.8687Z" fill="url(#paint5_linear_4454_23318)"></path><path d="M30.4082 34.6909C30.4082 34.6909 30.4242 34.6717 30.4338 34.6621C30.4242 34.6685 30.4178 34.6813 30.4082 34.6909Z" fill="url(#paint6_linear_4454_23318)"></path><path d="M29.4473 37.4428C29.4697 37.318 29.4921 37.19 29.5145 37.0684C29.4921 37.19 29.4697 37.3148 29.4473 37.4428Z" fill="url(#paint7_linear_4454_23318)"></path><path d="M29.666 36.3871C29.6884 36.3007 29.7076 36.2143 29.73 36.1343C29.7076 36.2143 29.6884 36.3039 29.666 36.3871Z" fill="url(#paint8_linear_4454_23318)"></path><path d="M29.9277 35.52C29.9469 35.472 29.9629 35.4208 29.9821 35.376C29.9629 35.4208 29.9469 35.472 29.9277 35.52Z" fill="url(#paint9_linear_4454_23318)"></path><path d="M29.209 39.2542C29.2282 39.0718 29.2474 38.8862 29.2666 38.707C29.2442 38.8862 29.2282 39.0686 29.209 39.2542Z" fill="url(#paint10_linear_4454_23318)"></path><path d="M29.0837 41.8973C29.0709 41.8653 29.0677 41.8301 29.0645 41.7949C29.0645 41.8301 29.0709 41.8653 29.0837 41.8973Z" fill="url(#paint11_linear_4454_23318)"></path><path d="M29.793 35.9262C29.8122 35.8622 29.8314 35.7918 29.8506 35.731C29.8314 35.7918 29.8122 35.8622 29.793 35.9262Z" fill="url(#paint12_linear_4454_23318)"></path><path d="M29.3712 42.0928C29.288 42.0928 29.208 42.0608 29.1504 42C29.208 42.0608 29.288 42.0928 29.3712 42.0928Z" fill="url(#paint13_linear_4454_23318)"></path><path d="M34.065 42.0925C34.0234 42.0925 33.9818 42.0829 33.9434 42.0669C33.9818 42.0829 34.0202 42.0925 34.065 42.0925Z" fill="url(#paint14_linear_4454_23318)"></path><path d="M32.1836 42.0926C32.3532 42.0926 32.4908 41.955 32.4908 41.7822C32.4908 41.955 32.3532 42.0926 32.1836 42.0926Z" fill="url(#paint15_linear_4454_23318)"></path><path d="M33.1245 37.3662C32.7757 37.3662 32.4941 37.651 32.4941 37.9998C32.4941 37.651 32.7789 37.3662 33.1245 37.3662C33.3869 37.3662 33.6109 37.5262 33.7069 37.7534C33.6109 37.5262 33.3869 37.3662 33.1245 37.3662Z" fill="url(#paint16_linear_4454_23318)"></path><path d="M29.3516 38.0351C29.374 37.8847 29.3964 37.7343 29.4188 37.5903C29.3964 37.7343 29.374 37.8847 29.3516 38.0351Z" fill="url(#paint17_linear_4454_23318)"></path><path d="M33.6875 33.4044C33.6875 33.4044 33.6907 33.3948 33.6939 33.3916C33.6939 33.3948 33.6907 33.4012 33.6875 33.4044Z" fill="url(#paint18_linear_4454_23318)"></path><path d="M29.1501 39.8975C29.1021 40.5215 29.0733 41.1551 29.0605 41.7759C29.0605 41.7599 29.0605 41.7439 29.0605 41.7247C29.0733 41.1199 29.1021 40.5023 29.1501 39.8975Z" fill="url(#paint19_linear_4454_23318)"></path><path d="M29.5508 36.8924C29.5732 36.7868 29.5924 36.6812 29.618 36.582C29.5956 36.6812 29.5732 36.7868 29.5508 36.8924Z" fill="url(#paint20_linear_4454_23318)"></path><path d="M55.3008 40.8319C54.8944 40.4191 54.408 40.2015 53.8896 40.2015H53.6112C53.4896 40.2015 53.3776 40.2047 53.272 40.2047C52.4592 40.2047 52.0176 40.1343 51.4576 39.4783C51.336 39.3375 51.1632 39.2543 50.9776 39.2543C50.8272 39.2543 50.68 39.3087 50.568 39.4079C50.44 39.5199 50.36 39.6735 50.3472 39.8431C50.3344 40.0127 50.3888 40.1759 50.4976 40.3039C51.4192 41.3855 52.312 41.4751 53.3008 41.4751C53.4032 41.4751 53.5088 41.4751 53.6144 41.4751H53.8832C53.9984 41.4751 54.1744 41.5007 54.3984 41.7279C55.7872 43.1391 55.96 48.7071 55.9728 49.3375C55.9728 49.4207 55.944 49.5007 55.8864 49.5615C55.8288 49.6223 55.7488 49.6543 55.6656 49.6543H52.8528C52.6832 49.6543 52.5456 49.5167 52.5456 49.3439V45.5647C52.5456 45.2159 52.2608 44.9311 51.9152 44.9311C51.5696 44.9311 51.2848 45.2159 51.2848 45.5647V49.3439C51.2848 49.5167 51.1472 49.6543 50.9776 49.6543H43.4608C43.2912 49.6543 43.1536 49.5167 43.1536 49.3439V45.5647C43.1536 45.2159 42.8688 44.9311 42.5232 44.9311C42.1776 44.9311 41.8928 45.2159 41.8928 45.5647V49.3439C41.8928 49.5167 41.7552 49.6543 41.5856 49.6543H38.7728C38.6896 49.6543 38.6096 49.6223 38.552 49.5615C38.4944 49.5007 38.4624 49.4207 38.4656 49.3375C38.488 48.3839 38.6512 43.8591 39.7584 42.0959H34.0656C34.024 42.0959 33.9824 42.0863 33.944 42.0703C33.832 42.0223 33.7552 41.9135 33.7552 41.7855V38.0063C33.7552 37.9199 33.736 37.8367 33.704 37.7599C33.608 37.5327 33.384 37.3727 33.1216 37.3727C32.7728 37.3727 32.4912 37.6575 32.4912 38.0063V41.7855C32.4912 41.9583 32.3536 42.0959 32.184 42.0959H29.3712C29.288 42.0959 29.208 42.0639 29.1504 42.0031C29.1216 41.9743 29.0992 41.9391 29.0832 41.9007C29.0704 41.8687 29.0672 41.8335 29.064 41.7983C29.064 41.7919 29.0608 41.7855 29.0608 41.7791C29.0736 41.1583 29.1024 40.5247 29.1504 39.9007C29.1504 39.8911 29.1504 39.8815 29.1504 39.8719C29.1664 39.6799 29.1824 39.4879 29.1984 39.2991C29.1984 39.2863 29.1984 39.2703 29.2016 39.2575C29.2208 39.0751 29.24 38.8895 29.2592 38.7103C29.2592 38.6847 29.2656 38.6623 29.2688 38.6367C29.288 38.4703 29.3104 38.3007 29.3328 38.1407C29.336 38.1055 29.3424 38.0735 29.3488 38.0383C29.3712 37.8879 29.3936 37.7375 29.416 37.5935C29.4256 37.5423 29.432 37.4975 29.4416 37.4463C29.464 37.3215 29.4864 37.1935 29.5088 37.0719C29.5216 37.0111 29.5344 36.9535 29.5472 36.8959C29.5696 36.7903 29.5888 36.6847 29.6144 36.5855C29.6304 36.5183 29.6464 36.4575 29.6624 36.3903C29.6848 36.3039 29.704 36.2175 29.7264 36.1375C29.7456 36.0639 29.768 35.9967 29.7904 35.9295C29.8096 35.8655 29.8288 35.7951 29.848 35.7343C29.8736 35.6607 29.8992 35.5935 29.9248 35.5263C29.944 35.4783 29.96 35.4271 29.9792 35.3823C30.008 35.3119 30.04 35.2543 30.0688 35.1903C30.0848 35.1551 30.104 35.1135 30.12 35.0815C30.1552 35.0175 30.1904 34.9631 30.2288 34.9087C30.2416 34.8863 30.2576 34.8607 30.2704 34.8415C30.312 34.7839 30.3568 34.7391 30.4048 34.6943C30.4144 34.6847 30.4208 34.6751 30.4304 34.6655C30.4848 34.6207 30.5392 34.5855 30.5968 34.5631C30.632 34.5503 30.6672 34.5439 30.7056 34.5439L31.0416 34.5503C31.1536 34.5503 31.2624 34.5567 31.3712 34.5567C32.0592 34.5567 32.7952 34.4767 33.5984 33.5423C33.6336 33.5007 33.6592 33.4591 33.6816 33.4143C33.6816 33.4111 33.6848 33.4047 33.688 33.4015C33.752 33.2639 33.7584 33.1071 33.7168 32.9599C33.72 32.9631 33.7264 32.9663 33.7296 32.9695C33.6976 32.8479 33.6336 32.7359 33.5312 32.6463C33.416 32.5471 33.2688 32.4927 33.1184 32.4927C32.936 32.4927 32.76 32.5727 32.6416 32.7135C32.2192 33.2063 31.9568 33.2895 31.3744 33.2895C31.2816 33.2895 31.1792 33.2895 31.0608 33.2863H30.6928C30.392 33.2831 29.9408 33.3759 29.512 33.8111C28.1936 35.1487 27.7616 39.4559 27.7904 42.7391C27.7904 43.0847 28.0752 43.3695 28.4208 43.3695H37.512C37.608 43.3695 37.6944 43.4143 37.7552 43.4879C37.8128 43.5615 37.8352 43.6607 37.8128 43.7535C37.1792 46.3871 37.1824 49.6703 37.1888 50.3007C37.192 50.6463 37.4768 50.9279 37.8192 50.9279H56.6128C56.9584 50.9279 57.24 50.6463 57.2432 50.2975C57.2784 46.8831 56.7888 42.3551 55.2944 40.8383L55.3008 40.8319Z" fill="white"></path><path d="M29.2656 38.7069C29.2656 38.6813 29.272 38.6589 29.2752 38.6333C29.2752 38.6589 29.2688 38.6813 29.2656 38.7069Z" fill="url(#paint21_linear_4454_23318)"></path><path d="M29.0605 41.7759C29.0605 41.7759 29.0605 41.7887 29.0637 41.7951C29.0637 41.7887 29.0605 41.7823 29.0605 41.7759Z" fill="url(#paint22_linear_4454_23318)"></path><path d="M29.1512 41.9964C29.1224 41.9676 29.1 41.9324 29.084 41.894C29.1 41.9324 29.1224 41.9676 29.1512 41.9964Z" fill="url(#paint23_linear_4454_23318)"></path><path d="M29.2012 39.296C29.2012 39.296 29.2012 39.2672 29.2044 39.2544C29.2044 39.2672 29.2044 39.2832 29.2012 39.296Z" fill="url(#paint24_linear_4454_23318)"></path><path d="M29.3398 38.1376C29.343 38.1024 29.3494 38.0704 29.3558 38.0352C29.3494 38.0704 29.3462 38.1024 29.3398 38.1376Z" fill="url(#paint25_linear_4454_23318)"></path><path d="M29.8516 35.7309C29.8772 35.6573 29.9028 35.5901 29.9284 35.5229C29.9028 35.5933 29.8772 35.6573 29.8516 35.7309Z" fill="url(#paint26_linear_4454_23318)"></path><path d="M33.6055 33.5357C33.6407 33.4941 33.6663 33.4525 33.6887 33.4077C33.6663 33.4525 33.6407 33.4973 33.6055 33.5357Z" fill="url(#paint27_linear_4454_23318)"></path><path d="M30.7088 34.5405C30.6704 34.5405 30.6352 34.5469 30.6 34.5597C30.5424 34.5821 30.488 34.6173 30.4336 34.6621C30.488 34.6173 30.5424 34.5821 30.6 34.5597C30.6352 34.5469 30.6704 34.5405 30.7088 34.5405Z" fill="url(#paint28_linear_4454_23318)"></path><path d="M31.3746 34.5504C31.2658 34.5504 31.157 34.5504 31.045 34.544L30.709 34.5376L31.045 34.544C31.157 34.544 31.2658 34.5504 31.3746 34.5504Z" fill="url(#paint29_linear_4454_23318)"></path><path d="M33.7543 41.7819V38.0027C33.7543 37.9163 33.7351 37.8331 33.7031 37.7563C33.7351 37.8331 33.7543 37.9163 33.7543 38.0027V41.7819C33.7543 41.9099 33.8311 42.0219 33.9431 42.0667C33.8311 42.0187 33.7543 41.9099 33.7543 41.7819Z" fill="url(#paint30_linear_4454_23318)"></path><path d="M33.6914 33.3918C33.7554 33.2542 33.7714 33.1038 33.733 32.9598C33.7298 32.9566 33.7234 32.9534 33.7202 32.9502C33.7618 33.0974 33.7554 33.251 33.6914 33.3918Z" fill="url(#paint31_linear_4454_23318)"></path><path d="M40.5518 41.4717H40.8206C40.939 41.4717 41.0542 41.4749 41.1662 41.4749C42.139 41.4749 43.0158 41.3885 43.9406 40.3037C44.0494 40.1757 44.1038 40.0125 44.091 39.8429C44.0782 39.6733 44.0014 39.5197 43.8734 39.4109C43.7582 39.3117 43.611 39.2573 43.4606 39.2573C43.275 39.2573 43.1022 39.3373 42.9838 39.4781C42.4174 40.1373 41.9982 40.2045 41.1054 40.2045C41.019 40.2045 40.5518 40.2045 40.5518 40.2045C40.0334 40.2045 39.5438 40.4221 39.1406 40.8349C38.8878 41.0909 38.6574 41.4461 38.4366 41.9165C38.3854 42.0253 38.2766 42.0925 38.1582 42.0925H39.7582C39.8478 41.9517 39.9406 41.8269 40.0398 41.7245C40.2638 41.4973 40.4398 41.4717 40.555 41.4717H40.5518Z" fill="url(#paint32_linear_4454_23318)"></path><path d="M29.9824 35.3756C30.0112 35.3052 30.0432 35.2476 30.072 35.1836C30.0432 35.2444 30.0112 35.3052 29.9824 35.3756Z" fill="url(#paint33_linear_4454_23318)"></path><path d="M29.6172 36.5824C29.6332 36.5152 29.6492 36.4544 29.6652 36.3872C29.6492 36.4512 29.6332 36.5152 29.6172 36.5824Z" fill="url(#paint34_linear_4454_23318)"></path><path d="M29.5117 37.0686C29.5245 37.0078 29.5373 36.9502 29.5501 36.8926C29.5373 36.9534 29.5245 37.0078 29.5117 37.0686Z" fill="url(#paint35_linear_4454_23318)"></path><path d="M30.2734 34.8352C30.315 34.7776 30.3598 34.7328 30.4078 34.688C30.363 34.7296 30.3182 34.7744 30.2734 34.8352Z" fill="url(#paint36_linear_4454_23318)"></path><path d="M29.7305 36.1343C29.7497 36.0607 29.7721 35.9935 29.7945 35.9263C29.7721 35.9967 29.7529 36.0607 29.7305 36.1343Z" fill="url(#paint37_linear_4454_23318)"></path><path d="M30.123 35.0751C30.1582 35.0111 30.1934 34.9567 30.2318 34.9023C30.1966 34.9567 30.1582 35.0111 30.123 35.0751Z" fill="url(#paint38_linear_4454_23318)"></path><path d="M29.4199 37.5901C29.4295 37.5389 29.4359 37.4941 29.4455 37.4429C29.4359 37.4909 29.4263 37.5389 29.4199 37.5901Z" fill="url(#paint39_linear_4454_23318)"></path><path d="M36.9655 31.5486C39.0839 31.5486 40.7447 29.0558 40.7447 25.875C40.7447 23.0686 39.3687 21.459 36.9655 21.459C34.5623 21.459 33.1895 23.0686 33.1895 25.875C33.1895 29.0558 34.8471 31.5486 36.9655 31.5486ZM36.9655 22.7294C38.6583 22.7294 39.4807 23.7566 39.4807 25.875C39.4807 28.5086 38.1815 30.2782 36.9655 30.2782C35.7495 30.2782 34.4503 28.5086 34.4503 25.875C34.4503 23.7598 35.2727 22.7294 36.9655 22.7294V22.7294Z" fill="white"></path><path d="M57.455 31.5774C55.3366 31.5774 53.6758 29.0846 53.6758 25.9038C53.6758 23.0974 55.0518 21.4878 57.455 21.4878C59.8582 21.4878 61.231 23.0974 61.231 25.9038C61.231 29.0846 59.5734 31.5774 57.455 31.5774ZM57.455 22.7582C55.7622 22.7582 54.9398 23.7854 54.9398 25.9038C54.9398 28.5374 56.239 30.307 57.455 30.307C58.671 30.307 59.9702 28.5374 59.9702 25.9038C59.9702 23.7886 59.1478 22.7582 57.455 22.7582V22.7582Z" fill="white"></path><path d="M37.8001 50.9469C37.4545 50.9469 37.1729 50.6653 37.1697 50.3165C37.1345 46.9021 37.6241 42.3741 39.1185 40.8573C39.5249 40.4445 40.0113 40.2269 40.5297 40.2269H40.8081C40.9265 40.2269 41.0417 40.2301 41.1473 40.2301C41.9601 40.2301 42.4017 40.1597 42.9617 39.5037C43.0833 39.3629 43.2561 39.2797 43.4417 39.2797C43.5921 39.2797 43.7361 39.3341 43.8513 39.4333C43.9793 39.5453 44.0593 39.6989 44.0721 39.8685C44.0849 40.0381 44.0305 40.2013 43.9217 40.3293C43.0001 41.4109 42.1073 41.5005 41.1185 41.5005C41.0161 41.5005 40.9105 41.5005 40.8049 41.5005H40.5361C40.4209 41.5005 40.2449 41.5261 40.0209 41.7533C38.6321 43.1645 38.4593 48.7325 38.4465 49.3629C38.4465 49.4461 38.4753 49.5261 38.5329 49.5869C38.5905 49.6477 38.6705 49.6797 38.7537 49.6797H41.5665C41.7361 49.6797 41.8737 49.5421 41.8737 49.3693V45.5901C41.8737 45.2413 42.1553 44.9565 42.5041 44.9565C42.8529 44.9565 43.1345 45.2413 43.1345 45.5901V49.3693C43.1345 49.5421 43.2721 49.6797 43.4417 49.6797H50.9585C51.1281 49.6797 51.2657 49.5421 51.2657 49.3693V45.5901C51.2657 45.2413 51.5505 44.9565 51.8961 44.9565C52.2417 44.9565 52.5265 45.2413 52.5265 45.5901V49.3693C52.5265 49.5421 52.6641 49.6797 52.8337 49.6797H55.6465C55.7297 49.6797 55.8097 49.6445 55.8673 49.5869C55.9249 49.5261 55.9569 49.4461 55.9537 49.3629C55.9313 48.3357 55.7425 43.1357 54.3793 41.7533C54.1553 41.5261 53.9793 41.5005 53.8641 41.5005H53.5953C53.4769 41.5005 53.3617 41.5037 53.2497 41.5037C52.2769 41.5037 51.4001 41.4173 50.4753 40.3325C50.3665 40.2045 50.3121 40.0413 50.3249 39.8717C50.3377 39.7021 50.4145 39.5485 50.5425 39.4397C50.6577 39.3405 50.8049 39.2861 50.9553 39.2861C51.1409 39.2861 51.3137 39.3661 51.4321 39.5069C51.9985 40.1661 52.4177 40.2333 53.3105 40.2333C53.3969 40.2333 53.8673 40.2333 53.8673 40.2333C54.3857 40.2333 54.8753 40.4509 55.2785 40.8637C55.5313 41.1197 55.7617 41.4749 55.9825 41.9453C56.0337 42.0541 56.1425 42.1213 56.2609 42.1213H60.3537C60.5233 42.1213 60.6609 41.9837 60.6609 41.8109V38.0317C60.6609 37.6829 60.9425 37.3981 61.2913 37.3981C61.6401 37.3981 61.9217 37.6829 61.9217 38.0317V41.8109C61.9217 41.9837 62.0593 42.1213 62.2289 42.1213H65.0449C65.1281 42.1213 65.2081 42.0893 65.2657 42.0285C65.3233 41.9677 65.3553 41.8877 65.3553 41.8045C65.2945 38.5661 64.7345 34.9373 63.8161 34.5885C63.7809 34.5757 63.7457 34.5693 63.7073 34.5693L63.3713 34.5757C63.2593 34.5757 63.1505 34.5821 63.0417 34.5821C62.3537 34.5821 61.6177 34.5021 60.8145 33.5677C60.5873 33.3021 60.6161 32.8989 60.8817 32.6717C60.9969 32.5725 61.1441 32.5181 61.2945 32.5181C61.4769 32.5181 61.6529 32.5981 61.7713 32.7389C62.1937 33.2317 62.4561 33.3149 63.0385 33.3149C63.1313 33.3149 63.2337 33.3149 63.3521 33.3117H63.7201C64.0209 33.3085 64.4721 33.4013 64.9009 33.8365C66.2193 35.1741 66.6513 39.4813 66.6225 42.7645C66.6225 43.1101 66.3377 43.3949 65.9921 43.3949H56.9009C56.8049 43.3949 56.7185 43.4397 56.6577 43.5133C56.5969 43.5869 56.5777 43.6861 56.6001 43.7789C57.2337 46.4125 57.2305 49.6957 57.2241 50.3261C57.2209 50.6717 56.9361 50.9533 56.5937 50.9533H37.8001V50.9469Z" fill="white"></path><path d="M55.6504 36.5278C55.244 36.3614 54.9304 36.1118 54.9304 36.1118C54.9144 36.099 54.8952 36.083 54.8792 36.0734C54.812 36.0286 53.2184 34.931 53.2408 31.9582C53.2664 28.5886 52.236 27.1646 52.0216 26.9022C51.772 26.5598 49.5608 23.6862 45.7656 24.6174C41.8104 25.5838 41.388 28.9886 41.372 29.1134C41.3656 29.1518 41.2344 30.1182 40.892 33.6862C40.7416 35.2542 40.1272 36.275 39.1608 36.5598C38.8152 36.6622 38.572 36.9598 38.5368 37.3182C38.5048 37.6766 38.6904 38.0126 39.0104 38.1758C39.596 38.4734 40.4024 38.7422 41.4104 38.9758C41.7848 39.0622 42.1368 39.1006 42.4696 39.1006C43.8328 39.1006 44.8216 38.467 45.3112 38.0638C46.9848 38.9598 48.46 38.3358 49.148 37.923C49.6504 38.323 50.6456 38.9086 52.2264 38.9854C53.8936 39.0654 55.1672 38.4574 55.7784 38.0862C56.0632 37.9134 56.2232 37.603 56.1976 37.2734C56.172 36.9406 55.964 36.6558 55.6536 36.531L55.6504 36.5278ZM47.2152 37.1678C45.5096 37.1678 44.0696 34.691 44.0696 31.7566C44.0696 31.6446 44.0696 31.5358 44.076 31.4302C44.0888 31.0974 44.284 30.803 44.5752 30.6494C45.2632 30.2878 45.9672 29.827 46.6008 29.2542C46.9848 28.9086 47.5704 28.9406 47.9224 29.315C48.4568 29.8878 49.0872 30.419 49.8008 30.7678C50.1304 30.9278 50.3512 31.2478 50.3576 31.6126C50.3576 31.6574 50.3576 31.7054 50.3576 31.7534C50.3576 34.6878 48.9176 37.1646 47.212 37.1646L47.2152 37.1678ZM52.2872 37.7022C51.1 37.6446 50.38 37.2478 50.0056 36.963C50.9976 35.747 51.6248 33.8846 51.6248 31.7566C51.6248 31.5582 51.6184 31.3726 51.6088 31.1902C51.596 30.9918 51.58 30.7998 51.5576 30.6174C51.5096 30.2366 51.2408 29.923 50.8696 29.8206C50.5304 29.7278 50.2072 29.5678 49.9 29.363C49.3912 29.0238 48.9336 28.5662 48.54 28.0926C48.4632 27.9998 48.3896 27.9038 48.316 27.811L47.996 27.4494C47.612 27.0142 46.9336 27.0238 46.5624 27.4686C46.4056 27.6542 46.2328 27.8494 46.0536 28.035C45.9544 28.1342 45.8552 28.2302 45.756 28.3198C45.7272 28.3454 45.7016 28.3678 45.676 28.387C45.6408 28.4158 45.6088 28.4446 45.5736 28.4734C45.5576 28.4862 45.5448 28.4958 45.5352 28.5054C45.484 28.547 45.4328 28.5854 45.3816 28.6206C45.1512 28.803 44.9112 28.9694 44.668 29.1198C44.2552 29.379 43.8328 29.5998 43.4328 29.7854C43.1448 29.9166 42.94 30.1822 42.8984 30.4958C42.8568 30.7838 42.8312 31.0942 42.8216 31.4238C42.8184 31.5326 42.8152 31.6446 42.8152 31.7598C42.8152 33.9486 43.4776 35.8526 44.5208 37.0654C44.0664 37.4526 43.0936 38.0542 41.708 37.731C41.1768 37.6062 40.7512 37.4846 40.4184 37.3694C41.18 36.8542 41.9832 35.8302 42.1752 33.811C42.5112 30.2878 42.6456 29.3022 42.6488 29.2766C42.6488 29.251 42.9784 26.6206 46.076 25.8654C49.1576 25.1134 50.924 27.5646 50.9976 27.667C51.0136 27.6894 51.0264 27.7086 51.0456 27.7278C51.0552 27.7374 51.9928 28.883 51.9704 31.955C51.9416 35.4654 53.868 36.931 54.1592 37.1326C54.204 37.1678 54.3064 37.2446 54.4472 37.3342C53.9064 37.555 53.1672 37.7534 52.2968 37.7086L52.2872 37.7022Z" fill="white"></path><defs><filter id="filter0_d_4454_23318" x="0" y="9" width="95" height="95" filterUnits="userSpaceOnUse" color-interpolation-filters="sRGB"><feFlood flood-opacity="0" result="BackgroundImageFix"></feFlood><feColorMatrix in="SourceAlpha" type="matrix" values="0 0 0 0 0 0 0 0 0 0 0 0 0 0 0 0 0 0 127 0" result="hardAlpha"></feColorMatrix><feOffset dy="13"></feOffset><feGaussianBlur stdDeviation="10.5"></feGaussianBlur><feColorMatrix type="matrix" values="0 0 0 0 0.494118 0 0 0 0 0.227451 0 0 0 0 0.466667 0 0 0 0.49 0"></feColorMatrix><feBlend mode="normal" in2="BackgroundImageFix" result="effect1_dropShadow_4454_23318"></feBlend><feBlend mode="normal" in="SourceGraphic" in2="effect1_dropShadow_4454_23318" result="shape"></feBlend></filter><linearGradient id="paint0_linear_4454_23318" x1="33.5352" y1="16" x2="75" y2="71" gradientUnits="userSpaceOnUse"><stop stop-color="#008FBF"></stop><stop offset="1" stop-color="#7E3A77"></stop></linearGradient><linearGradient id="paint1_linear_4454_23318" x1="28.7187" y1="2.33128e-06" x2="83" y2="72" gradientUnits="userSpaceOnUse"><stop stop-color="#008FBF"></stop><stop offset="1" stop-color="#7E3A77"></stop></linearGradient><linearGradient id="paint2_linear_4454_23318" x1="29.2911" y1="38.1372" x2="29.4205" y2="38.1593" gradientUnits="userSpaceOnUse"><stop stop-color="#008FBF"></stop><stop offset="1" stop-color="#7E3A77"></stop></linearGradient><linearGradient id="paint3_linear_4454_23318" x1="30.0849" y1="35.0781" x2="30.1615" y2="35.126" gradientUnits="userSpaceOnUse"><stop stop-color="#008FBF"></stop><stop offset="1" stop-color="#7E3A77"></stop></linearGradient><linearGradient id="paint4_linear_4454_23318" x1="30.2427" y1="34.835" x2="30.2943" y2="34.8774" gradientUnits="userSpaceOnUse"><stop stop-color="#008FBF"></stop><stop offset="1" stop-color="#7E3A77"></stop></linearGradient><linearGradient id="paint5_linear_4454_23318" x1="29.1661" y1="39.2959" x2="29.2647" y2="39.3069" gradientUnits="userSpaceOnUse"><stop stop-color="#008FBF"></stop><stop offset="1" stop-color="#7E3A77"></stop></linearGradient><linearGradient id="paint6_linear_4454_23318" x1="30.4145" y1="34.6621" x2="30.4368" y2="34.6884" gradientUnits="userSpaceOnUse"><stop stop-color="#008FBF"></stop><stop offset="1" stop-color="#7E3A77"></stop></linearGradient><linearGradient id="paint7_linear_4454_23318" x1="29.4638" y1="37.0684" x2="29.5961" y2="37.0999" gradientUnits="userSpaceOnUse"><stop stop-color="#008FBF"></stop><stop offset="1" stop-color="#7E3A77"></stop></linearGradient><linearGradient id="paint8_linear_4454_23318" x1="29.6818" y1="36.1343" x2="29.8014" y2="36.1745" gradientUnits="userSpaceOnUse"><stop stop-color="#008FBF"></stop><stop offset="1" stop-color="#7E3A77"></stop></linearGradient><linearGradient id="paint9_linear_4454_23318" x1="29.9411" y1="35.376" x2="30.0316" y2="35.4213" gradientUnits="userSpaceOnUse"><stop stop-color="#008FBF"></stop><stop offset="1" stop-color="#7E3A77"></stop></linearGradient><linearGradient id="paint10_linear_4454_23318" x1="29.2232" y1="38.707" x2="29.3407" y2="38.7234" gradientUnits="userSpaceOnUse"><stop stop-color="#008FBF"></stop><stop offset="1" stop-color="#7E3A77"></stop></linearGradient><linearGradient id="paint11_linear_4454_23318" x1="29.0692" y1="41.7949" x2="29.1068" y2="41.8043" gradientUnits="userSpaceOnUse"><stop stop-color="#008FBF"></stop><stop offset="1" stop-color="#7E3A77"></stop></linearGradient><linearGradient id="paint12_linear_4454_23318" x1="29.8071" y1="35.731" x2="29.9111" y2="35.7716" gradientUnits="userSpaceOnUse"><stop stop-color="#008FBF"></stop><stop offset="1" stop-color="#7E3A77"></stop></linearGradient><linearGradient id="paint13_linear_4454_23318" x1="29.2047" y1="42" x2="29.2466" y2="42.1323" gradientUnits="userSpaceOnUse"><stop stop-color="#008FBF"></stop><stop offset="1" stop-color="#7E3A77"></stop></linearGradient><linearGradient id="paint14_linear_4454_23318" x1="33.9733" y1="42.0669" x2="33.9795" y2="42.1061" gradientUnits="userSpaceOnUse"><stop stop-color="#008FBF"></stop><stop offset="1" stop-color="#7E3A77"></stop></linearGradient><linearGradient id="paint15_linear_4454_23318" x1="32.2592" y1="41.7822" x2="32.4939" y2="42.0903" gradientUnits="userSpaceOnUse"><stop stop-color="#008FBF"></stop><stop offset="1" stop-color="#7E3A77"></stop></linearGradient><linearGradient id="paint16_linear_4454_23318" x1="32.7926" y1="37.3662" x2="33.1314" y2="38.2265" gradientUnits="userSpaceOnUse"><stop stop-color="#008FBF"></stop><stop offset="1" stop-color="#7E3A77"></stop></linearGradient><linearGradient id="paint17_linear_4454_23318" x1="29.3681" y1="37.5903" x2="29.5025" y2="37.6173" gradientUnits="userSpaceOnUse"><stop stop-color="#008FBF"></stop><stop offset="1" stop-color="#7E3A77"></stop></linearGradient><linearGradient id="paint18_linear_4454_23318" x1="33.6891" y1="33.3916" x2="33.6983" y2="33.3977" gradientUnits="userSpaceOnUse"><stop stop-color="#008FBF"></stop><stop offset="1" stop-color="#7E3A77"></stop></linearGradient><linearGradient id="paint19_linear_4454_23318" x1="29.0826" y1="39.8975" x2="29.2683" y2="39.9092" gradientUnits="userSpaceOnUse"><stop stop-color="#008FBF"></stop><stop offset="1" stop-color="#7E3A77"></stop></linearGradient><linearGradient id="paint20_linear_4454_23318" x1="29.5673" y1="36.582" x2="29.6965" y2="36.6191" gradientUnits="userSpaceOnUse"><stop stop-color="#008FBF"></stop><stop offset="1" stop-color="#7E3A77"></stop></linearGradient><linearGradient id="paint21_linear_4454_23318" x1="29.268" y1="38.6333" x2="29.2874" y2="38.6367" gradientUnits="userSpaceOnUse"><stop stop-color="#008FBF"></stop><stop offset="1" stop-color="#7E3A77"></stop></linearGradient><linearGradient id="paint22_linear_4454_23318" x1="29.0613" y1="41.7759" x2="29.0677" y2="41.7773" gradientUnits="userSpaceOnUse"><stop stop-color="#008FBF"></stop><stop offset="1" stop-color="#7E3A77"></stop></linearGradient><linearGradient id="paint23_linear_4454_23318" x1="29.1005" y1="41.894" x2="29.1801" y2="41.9633" gradientUnits="userSpaceOnUse"><stop stop-color="#008FBF"></stop><stop offset="1" stop-color="#7E3A77"></stop></linearGradient><linearGradient id="paint24_linear_4454_23318" x1="29.202" y1="39.2544" x2="29.2085" y2="39.2551" gradientUnits="userSpaceOnUse"><stop stop-color="#008FBF"></stop><stop offset="1" stop-color="#7E3A77"></stop></linearGradient><linearGradient id="paint25_linear_4454_23318" x1="29.3438" y1="38.0352" x2="29.3757" y2="38.0418" gradientUnits="userSpaceOnUse"><stop stop-color="#008FBF"></stop><stop offset="1" stop-color="#7E3A77"></stop></linearGradient><linearGradient id="paint26_linear_4454_23318" x1="29.8705" y1="35.5229" x2="29.9993" y2="35.5861" gradientUnits="userSpaceOnUse"><stop stop-color="#008FBF"></stop><stop offset="1" stop-color="#7E3A77"></stop></linearGradient><linearGradient id="paint27_linear_4454_23318" x1="33.6259" y1="33.4077" x2="33.7252" y2="33.4933" gradientUnits="userSpaceOnUse"><stop stop-color="#008FBF"></stop><stop offset="1" stop-color="#7E3A77"></stop></linearGradient><linearGradient id="paint28_linear_4454_23318" x1="30.5013" y1="34.5405" x2="30.5585" y2="34.7122" gradientUnits="userSpaceOnUse"><stop stop-color="#008FBF"></stop><stop offset="1" stop-color="#7E3A77"></stop></linearGradient><linearGradient id="paint29_linear_4454_23318" x1="30.8728" y1="34.5376" x2="30.8731" y2="34.5577" gradientUnits="userSpaceOnUse"><stop stop-color="#008FBF"></stop><stop offset="1" stop-color="#7E3A77"></stop></linearGradient><linearGradient id="paint30_linear_4454_23318" x1="33.7622" y1="37.7563" x2="34.2588" y2="37.793" gradientUnits="userSpaceOnUse"><stop stop-color="#008FBF"></stop><stop offset="1" stop-color="#7E3A77"></stop></linearGradient><linearGradient id="paint31_linear_4454_23318" x1="33.7067" y1="32.9502" x2="33.8318" y2="32.9736" gradientUnits="userSpaceOnUse"><stop stop-color="#008FBF"></stop><stop offset="1" stop-color="#7E3A77"></stop></linearGradient><linearGradient id="paint32_linear_4454_23318" x1="39.6187" y1="39.2573" x2="41.0363" y2="43.1934" gradientUnits="userSpaceOnUse"><stop stop-color="#008FBF"></stop><stop offset="1" stop-color="#7E3A77"></stop></linearGradient><linearGradient id="paint33_linear_4454_23318" x1="30.0045" y1="35.1836" x2="30.1392" y2="35.267" gradientUnits="userSpaceOnUse"><stop stop-color="#008FBF"></stop><stop offset="1" stop-color="#7E3A77"></stop></linearGradient><linearGradient id="paint34_linear_4454_23318" x1="29.629" y1="36.3872" x2="29.7193" y2="36.4166" gradientUnits="userSpaceOnUse"><stop stop-color="#008FBF"></stop><stop offset="1" stop-color="#7E3A77"></stop></linearGradient><linearGradient id="paint35_linear_4454_23318" x1="29.5212" y1="36.8926" x2="29.5949" y2="36.9139" gradientUnits="userSpaceOnUse"><stop stop-color="#008FBF"></stop><stop offset="1" stop-color="#7E3A77"></stop></linearGradient><linearGradient id="paint36_linear_4454_23318" x1="30.3065" y1="34.688" x2="30.4199" y2="34.8253" gradientUnits="userSpaceOnUse"><stop stop-color="#008FBF"></stop><stop offset="1" stop-color="#7E3A77"></stop></linearGradient><linearGradient id="paint37_linear_4454_23318" x1="29.7462" y1="35.9263" x2="29.8603" y2="35.9728" gradientUnits="userSpaceOnUse"><stop stop-color="#008FBF"></stop><stop offset="1" stop-color="#7E3A77"></stop></linearGradient><linearGradient id="paint38_linear_4454_23318" x1="30.1498" y1="34.9023" x2="30.2832" y2="35.0137" gradientUnits="userSpaceOnUse"><stop stop-color="#008FBF"></stop><stop offset="1" stop-color="#7E3A77"></stop></linearGradient><linearGradient id="paint39_linear_4454_23318" x1="29.4262" y1="37.4429" x2="29.4768" y2="37.4545" gradientUnits="userSpaceOnUse"><stop stop-color="#008FBF"></stop><stop offset="1" stop-color="#7E3A77"></stop></linearGradient></defs></svg> 