<svg width="95" height="104" viewBox="0 0 95 104" fill="none" xmlns="http://www.w3.org/2000/svg">
<g filter="url(#filter0_d_7381_20366)">
<path fill-rule="evenodd" clip-rule="evenodd" d="M47.5 16.9999C62.1355 16.9999 73.9999 28.8644 73.9999 43.4999C73.9999 58.1353 62.1355 69.9999 47.5 69.9999C32.8644 69.9999 21 58.1353 21 43.4999C21 28.8644 32.8644 16.9999 47.5 16.9999Z" fill="url(#paint0_linear_7381_20366)"/>
</g>
<path fill-rule="evenodd" clip-rule="evenodd" d="M42 0.999936H51.9999C68.5685 0.999936 81.9999 14.4311 81.9999 30.9999V40.9999C81.9999 57.5682 68.5685 70.9998 51.9999 70.9998H42C25.4315 70.9998 11.9999 57.5682 11.9999 40.9999V30.9999C11.9999 14.4311 25.4315 0.999936 42 0.999936Z" fill="url(#paint1_linear_7381_20366)"/>
<g clip-path="url(#clip0_7381_20366)">
<path d="M46.9257 36.211C45.6553 36.211 44.6953 34.739 44.6953 32.7902C44.6953 30.2782 46.4009 30.083 46.9257 30.083C47.4505 30.083 49.1561 30.2782 49.1561 32.7902C49.1561 34.7422 48.1961 36.211 46.9257 36.211ZM46.9257 31.203C46.4489 31.203 45.8185 31.3662 45.8185 32.787C45.8185 34.1022 46.4041 35.0878 46.9257 35.0878C47.4473 35.0878 48.0329 34.1054 48.0329 32.787C48.0329 31.3662 47.3993 31.203 46.9257 31.203Z" fill="white"/>
<path d="M42.7475 41.2193C42.4371 41.2193 42.1875 40.9665 42.1875 40.6593C42.1875 36.8065 44.5043 36.7617 44.6035 36.7617C44.9139 36.7617 45.1635 37.0145 45.1635 37.3217C45.1635 37.6289 44.9267 37.8721 44.6227 37.8817C44.6163 37.8817 44.6099 37.8817 44.6035 37.8817C44.1171 37.9297 43.5347 38.4545 43.3619 39.7889C43.3523 39.8657 43.3747 39.9457 43.4291 40.0033C43.4803 40.0609 43.5571 40.0961 43.6339 40.0961H50.2099C50.2899 40.0961 50.3635 40.0609 50.4147 40.0033C50.4659 39.9457 50.4915 39.8657 50.4819 39.7889C50.3091 38.4481 49.7235 37.9233 49.2307 37.8817C48.9235 37.8561 48.6867 37.5937 48.6995 37.2993C48.7123 36.9921 48.9459 36.7617 49.2403 36.7617C49.3395 36.7617 51.6563 36.8065 51.6563 40.6593C51.6563 40.9697 51.4035 41.2193 51.0963 41.2193H42.7507H42.7475Z" fill="white"/>
<path d="M57.5408 46.9823L57.5664 46.9567C57.9888 46.5311 58.392 46.0767 58.792 45.5647C58.9808 45.3215 59.0096 44.9919 58.8656 44.7199L57.8864 42.9151C57.7776 42.7135 57.7776 42.4703 57.8864 42.2687C58.0304 42.0095 58.1648 41.7439 58.2928 41.4751C58.3248 41.4047 58.3696 41.3407 58.4272 41.2863C58.5328 41.1807 58.664 41.1167 58.8112 41.0943L60.8912 40.7999C61.0544 40.7775 61.2112 40.6975 61.3296 40.5791C61.4224 40.4863 61.4896 40.3743 61.5248 40.2495C61.8672 39.0655 62.0656 37.8399 62.12 36.6143C62.1328 36.3007 61.96 36.0159 61.6752 35.8815L59.8192 35.0175C59.608 34.9183 59.4608 34.7135 59.432 34.4831C59.4 34.2047 59.3584 33.9263 59.3072 33.6511C59.2656 33.4335 59.336 33.2063 59.4928 33.0495L61.0448 31.5711C61.256 31.3599 61.3328 31.0303 61.2336 30.7551C60.8176 29.6031 60.2608 28.5087 59.5824 27.5007C59.4512 27.3087 59.2464 27.1871 59.0224 27.1647C59 27.1647 58.9776 27.1647 58.952 27.1679L56.9104 27.5711C56.8496 27.5839 56.7856 27.5839 56.7248 27.5807C56.5072 27.6159 56.2832 27.5423 56.1296 27.3791C56.0336 27.2799 55.9376 27.1807 55.8384 27.0815C55.7456 26.9887 55.6496 26.8991 55.544 26.7967C55.3744 26.6367 55.2976 26.4063 55.3424 26.1759L55.736 24.1343C55.7936 23.8271 55.6656 23.5167 55.4064 23.3439C54.392 22.6719 53.2944 22.1215 52.1424 21.7119C52.0816 21.6895 52.0176 21.6799 51.9504 21.6735C51.7808 21.6959 51.6176 21.7631 51.4928 21.8879L50.0144 23.4559C49.8736 23.5967 49.6784 23.6639 49.4864 23.6479C49.4128 23.6607 49.336 23.6639 49.2592 23.6511C48.984 23.6031 48.7024 23.5615 48.4208 23.5295C48.1904 23.5039 47.9856 23.3567 47.8864 23.1455L47.016 21.2959C46.888 21.0207 46.6064 20.8543 46.3088 20.8575C45.128 20.9247 43.9504 21.1263 42.808 21.4623C42.6832 21.4975 42.568 21.5679 42.4752 21.6575C42.3536 21.7791 42.28 21.9327 42.2576 22.1023L41.9728 24.1855C41.9536 24.3295 41.8864 24.4639 41.784 24.5663C41.7296 24.6207 41.6688 24.6623 41.5984 24.6975C41.3392 24.8191 41.0736 24.9567 40.808 25.1071C40.6896 25.1743 40.5584 25.1967 40.4304 25.1839C40.2864 25.2095 40.136 25.1903 40.0016 25.1167L38.1904 24.1503C38.088 24.0959 37.976 24.0735 37.864 24.0671C37.736 24.0863 37.6112 24.1343 37.5056 24.2175C37.016 24.6047 36.568 25.0015 36.136 25.4335C36.0784 25.4879 36.0304 25.5359 35.9792 25.5871C35.5792 25.9871 35.2656 26.3679 34.888 26.8479C34.696 27.0911 34.6704 27.4271 34.8176 27.6991L35.7968 29.5039C35.9056 29.7055 35.9056 29.9487 35.7936 30.1471C35.6528 30.4031 35.5152 30.6687 35.3872 30.9375C35.3552 31.0079 35.3104 31.0719 35.256 31.1263C35.1536 31.2287 35.0192 31.2959 34.8784 31.3151L32.7952 31.6095C32.6288 31.6319 32.4752 31.7087 32.3568 31.8271C32.264 31.9199 32.1968 32.0351 32.1584 32.1631C31.8192 33.3407 31.6176 34.5631 31.5632 35.7951C31.5504 36.1119 31.7264 36.4031 32.0144 36.5375L33.8672 37.3983C34.0784 37.4943 34.2192 37.6927 34.248 37.9231C34.2832 38.2047 34.3248 38.4863 34.376 38.7615C34.4144 38.9791 34.3472 39.1999 34.1904 39.3567L32.664 40.8095C32.4432 41.0783 32.3568 41.4015 32.4496 41.6575C32.8688 42.8127 33.4224 43.9103 34.0944 44.9151C34.216 45.0975 34.4048 45.2095 34.6128 45.2447C34.6512 45.2447 34.6896 45.2447 34.7312 45.2383L36.7728 44.8319C36.856 44.8159 36.9392 44.8191 37.0192 44.8319C37.2208 44.8159 37.416 44.8863 37.5536 45.0335C37.6464 45.1327 37.7424 45.2287 37.8384 45.3247C37.9376 45.4239 38.0368 45.5199 38.1392 45.6159C38.3056 45.7727 38.3824 46.0031 38.3376 46.2271L37.944 48.2719C37.8832 48.5823 38.0144 48.8959 38.28 49.0687C39.2944 49.7407 40.392 50.2879 41.5472 50.6975C41.5952 50.7135 41.6432 50.7199 41.6912 50.7263C41.8768 50.7167 42.0592 50.6431 42.1936 50.5087L42.216 50.4863L43.672 48.9407C43.8032 48.8095 43.976 48.7391 44.1552 48.7391C44.1936 48.7391 44.2352 48.7423 44.2736 48.7487C44.2864 48.7487 44.2992 48.7455 44.312 48.7455C44.3504 48.7455 44.392 48.7487 44.4304 48.7551C44.7056 48.8063 44.9872 48.8447 45.2624 48.8767C45.496 48.9023 45.6944 49.0463 45.7904 49.2543L46.664 51.1039C46.7824 51.3567 47.0256 51.5103 47.2976 51.5359C48.5136 51.4719 49.7168 51.2671 50.8752 50.9247C50.9968 50.8895 51.112 50.8223 51.2016 50.7295C51.32 50.6111 51.3968 50.4543 51.4192 50.2879L51.704 48.2047C51.7232 48.0607 51.7936 47.9231 51.896 47.8175C51.9504 47.7631 52.0112 47.7183 52.0816 47.6863C52.3536 47.5551 52.6192 47.4175 52.8688 47.2767C53.0064 47.1999 53.16 47.1775 53.3104 47.2031C53.4352 47.1935 53.5632 47.2159 53.6784 47.2767L55.4928 48.2463C55.5824 48.2943 55.6752 48.3167 55.7712 48.3263C55.9152 48.3135 56.0592 48.2559 56.1776 48.1631C56.664 47.7791 57.1216 47.3727 57.5376 46.9535L57.5408 46.9823ZM55.6368 46.5055C55.4896 46.5311 55.336 46.5151 55.1952 46.4415L53.5248 45.5455C53.4256 45.4911 53.3168 45.4687 53.208 45.4623C53.0992 45.4783 52.9936 45.5103 52.8976 45.5743C52.2864 45.9743 51.624 46.3199 50.9232 46.6015C50.824 46.6399 50.7376 46.7007 50.664 46.7743C50.5424 46.8959 50.4656 47.0495 50.4432 47.2191L50.1808 49.1391C50.1616 49.2831 50.0944 49.4175 49.992 49.5199C49.9024 49.6095 49.7872 49.6735 49.6624 49.6991C49.2304 49.7951 48.7824 49.8719 48.3344 49.9263C48.3056 49.9295 48.28 49.9327 48.2512 49.9327C48.2384 49.9327 48.2288 49.9295 48.216 49.9263C48.2 49.9263 48.1872 49.9295 48.1712 49.9327C48.1424 49.9359 48.1136 49.9391 48.088 49.9391C47.8288 49.9391 47.592 49.7919 47.48 49.5519L46.68 47.8495C46.5552 47.5903 46.3024 47.4207 46.0144 47.4079C45.2944 47.3791 44.5648 47.2735 43.8448 47.0943C43.7936 47.0815 43.7424 47.0783 43.6912 47.0751C43.5376 47.0975 43.3968 47.1647 43.2784 47.2831L41.9056 48.7423C41.768 48.8799 41.5792 48.9439 41.3936 48.9343C41.2624 48.9599 41.1216 48.9471 40.9936 48.8895C40.5968 48.7167 40.2064 48.5215 39.8288 48.3103C39.5728 48.1663 39.4384 47.8783 39.496 47.5935L39.8576 45.7151C39.912 45.4335 39.8064 45.1487 39.5856 44.9695C39.3008 44.7391 39.0352 44.4991 38.776 44.2399C38.5104 43.9775 38.264 43.7055 38.0432 43.4335C37.9088 43.2703 37.7168 43.1711 37.5152 43.1551C37.496 43.1551 37.4768 43.1551 37.4576 43.1583L35.5856 43.5327C35.5344 43.5423 35.4832 43.5391 35.432 43.5391H35.4256C35.1376 43.5967 34.8496 43.4655 34.7056 43.2095C34.4912 42.8287 34.2928 42.4383 34.12 42.0511C34.0048 41.7951 34.0624 41.4975 34.2608 41.2959C34.264 41.2927 35.6944 39.9327 35.7296 39.8975C35.96 39.6671 35.9472 39.3855 35.8992 39.1903C35.72 38.4991 35.608 37.7663 35.5664 37.0175C35.5504 36.7327 35.3808 36.4799 35.1216 36.3583L33.4192 35.5711C33.1536 35.4495 33 35.1711 33.032 34.8831C33.0832 34.4383 33.1568 33.9903 33.2528 33.5487C33.2816 33.4207 33.3424 33.3055 33.4352 33.2127C33.5408 33.1103 33.672 33.0431 33.816 33.0207L35.736 32.7487C35.9024 32.7263 36.056 32.6463 36.1744 32.5311C36.248 32.4575 36.3056 32.3711 36.344 32.2719C36.6256 31.5679 36.968 30.9023 37.3648 30.2879C37.5152 30.0511 37.528 29.7503 37.3936 29.5007L36.4912 27.8367C36.3536 27.5871 36.392 27.2767 36.584 27.0623C36.7536 26.8735 36.9072 26.7103 37.0512 26.5663L37.144 26.4703C37.288 26.3263 37.416 26.2079 37.56 26.0799C37.72 25.9359 37.9376 25.8815 38.1424 25.9199C38.2608 25.9135 38.3792 25.9327 38.488 25.9935L40.1616 26.8863C40.2448 26.9311 40.3344 26.9535 40.4272 26.9663C40.5552 26.9567 40.68 26.9183 40.7888 26.8479C41.4064 26.4447 42.072 26.0991 42.7632 25.8207C42.8592 25.7823 42.9456 25.7247 43.0192 25.6511C43.1408 25.5327 43.2176 25.3727 43.24 25.2095L43.5024 23.2895C43.5216 23.1455 43.5888 23.0079 43.6944 22.9023C43.7872 22.8095 43.9024 22.7487 44.0272 22.7199C44.472 22.6239 44.92 22.5471 45.3584 22.4927C45.432 22.4831 45.5056 22.4863 45.576 22.5023C45.8448 22.4927 46.0912 22.6335 46.2064 22.8799L47.0064 24.5791C47.128 24.8383 47.384 25.0111 47.672 25.0239C48.424 25.0623 49.1568 25.1711 49.848 25.3439C49.8736 25.3503 49.8992 25.3503 49.9248 25.3535C50.104 25.3375 50.28 25.2543 50.4624 25.0911L51.784 23.6863C51.9472 23.5231 52.1712 23.4591 52.3856 23.5007C52.4912 23.4943 52.5968 23.5039 52.696 23.5487C53.096 23.7247 53.4864 23.9199 53.8608 24.1279C54.1136 24.2687 54.2448 24.5535 54.1904 24.8351L53.8288 26.7103C53.7744 26.9919 53.88 27.2799 54.1008 27.4591C54.3952 27.6991 54.6608 27.9391 54.9168 28.1919C55.1568 28.4287 55.3968 28.6943 55.6528 29.0015C55.7776 29.1487 55.9504 29.2383 56.1328 29.2671C56.168 29.2671 56.2032 29.2671 56.2384 29.2607L58.1136 28.8895C58.2 28.8735 58.2832 28.8799 58.3664 28.8927C58.6192 28.8767 58.8592 28.9983 58.9872 29.2191C59.2016 29.5967 59.4 29.9903 59.576 30.3807C59.688 30.6367 59.6336 30.9279 59.4384 31.1231C59.4096 31.1519 58.0144 32.4767 58.0144 32.4767C57.8224 32.6687 57.7296 32.9887 57.7936 33.2351C57.976 33.9423 58.0848 34.6719 58.1232 35.4015C58.1392 35.6895 58.3088 35.9455 58.5712 36.0703L60.2768 36.8639C60.536 36.9855 60.6896 37.2575 60.6576 37.5423C60.6064 37.9871 60.5328 38.4351 60.4368 38.8767C60.408 39.0015 60.3472 39.1167 60.2576 39.2063C60.1552 39.3087 60.0208 39.3759 59.88 39.3951L57.96 39.6671C57.7936 39.6927 57.64 39.7663 57.5184 39.8879C57.4416 39.9647 57.384 40.0543 57.3424 40.1535C57.064 40.8543 56.7216 41.5199 56.328 42.1311C56.1744 42.3711 56.1616 42.6751 56.296 42.9247L57.1984 44.5919C57.3328 44.8415 57.2976 45.1487 57.1056 45.3567C56.936 45.5423 56.7856 45.7055 56.6416 45.8495C56.6032 45.8911 56.5584 45.9391 56.5136 45.9839C56.4208 46.0767 56.3312 46.1567 56.2384 46.2399L56.1296 46.3391C55.9952 46.4639 55.816 46.5151 55.64 46.5055H55.6368Z" fill="white"/>
<path d="M46.9195 46.0451C41.4987 46.0451 37.0859 41.6323 37.0859 36.2115C37.0859 30.7907 41.4987 26.3779 46.9195 26.3779C52.3403 26.3779 56.7531 30.7907 56.7531 36.2115C56.7531 41.6323 52.3403 46.0451 46.9195 46.0451V46.0451ZM46.9195 27.7283C42.2411 27.7283 38.4363 31.5331 38.4363 36.2115C38.4363 40.8899 42.2411 44.6947 46.9195 44.6947C51.5979 44.6947 55.4027 40.8899 55.4027 36.2115C55.4027 31.5331 51.5979 27.7283 46.9195 27.7283V27.7283Z" fill="white"/>
</g>
<defs>
<filter id="filter0_d_7381_20366" x="0" y="9" width="95" height="95" filterUnits="userSpaceOnUse" color-interpolation-filters="sRGB">
<feFlood flood-opacity="0" result="BackgroundImageFix"/>
<feColorMatrix in="SourceAlpha" type="matrix" values="0 0 0 0 0 0 0 0 0 0 0 0 0 0 0 0 0 0 127 0" result="hardAlpha"/>
<feOffset dy="13"/>
<feGaussianBlur stdDeviation="10.5"/>
<feColorMatrix type="matrix" values="0 0 0 0 0.494118 0 0 0 0 0.227451 0 0 0 0 0.466667 0 0 0 0.49 0"/>
<feBlend mode="normal" in2="BackgroundImageFix" result="effect1_dropShadow_7381_20366"/>
<feBlend mode="normal" in="SourceGraphic" in2="effect1_dropShadow_7381_20366" result="shape"/>
</filter>
<linearGradient id="paint0_linear_7381_20366" x1="33.5352" y1="16" x2="75" y2="71" gradientUnits="userSpaceOnUse">
<stop stop-color="#008FBF"/>
<stop offset="1" stop-color="#7E3A77"/>
</linearGradient>
<linearGradient id="paint1_linear_7381_20366" x1="28.7187" y1="2.33128e-06" x2="83" y2="72" gradientUnits="userSpaceOnUse">
<stop stop-color="#008FBF"/>
<stop offset="1" stop-color="#7E3A77"/>
</linearGradient>
<clipPath id="clip0_7381_20366">
<rect width="32" height="32" fill="white" transform="translate(31 20)"/>
</clipPath>
</defs>
</svg>
