<svg xmlns="http://www.w3.org/2000/svg" width="72" height="72" viewBox="0 0 72 72" fill="none"><path fill-rule="evenodd" clip-rule="evenodd" d="M31 0.999936H40.9999C57.5685 0.999936 70.9999 14.4311 70.9999 30.9999V40.9999C70.9999 57.5682 57.5685 70.9998 40.9999 70.9998H31C14.4315 70.9998 0.999936 57.5682 0.999936 40.9999V30.9999C0.999936 14.4311 14.4315 0.999936 31 0.999936Z" fill="url(#paint0_linear_6388_22417)"></path><path d="M28.33 47.36C34 47.36 35.83 42.5 35.83 36.38C35.83 30.29 34 25.46 28.33 25.46C22.69 25.46 20.83 30.29 20.83 36.38C20.83 42.5 22.69 47.36 28.33 47.36ZM28.33 44.63C24.88 44.63 23.89 41 23.89 36.38C23.89 31.79 24.88 28.19 28.33 28.19C31.81 28.19 32.77 31.79 32.77 36.38C32.77 41 31.81 44.63 28.33 44.63ZM39.5521 45.05C40.4221 45.89 42.3421 47.36 45.3721 47.36C49.6321 47.36 52.8721 44.3 52.8721 40.22C52.8721 36.41 49.9621 33.32 45.4921 33.32C43.9321 33.32 42.7621 33.98 42.7621 33.98H42.7021C42.7021 33.98 42.8221 33.5 42.8521 32.87L43.3621 28.4H50.4721C51.1321 28.4 51.4621 28.04 51.4621 27.41V26.81C51.4621 26.15 51.1321 25.82 50.4721 25.82H41.7121C41.0821 25.82 40.7521 26.12 40.6921 26.75L39.7921 35.45C39.7321 36.02 40.0021 36.41 40.5121 36.62L40.7821 36.71C41.2021 36.86 41.6221 36.83 42.1021 36.65C42.6421 36.38 43.6921 35.9 45.0121 35.9C47.7421 35.9 49.8421 37.7 49.8421 40.25C49.8421 42.83 47.6821 44.54 45.1921 44.54C43.2121 44.54 41.9521 43.55 41.2921 42.92C40.7821 42.53 40.3321 42.53 39.9421 43.04L39.4621 43.7C39.0721 44.15 39.0721 44.66 39.5521 45.05Z" fill="white"></path><defs><linearGradient id="paint0_linear_6388_22417" x1="17.7187" y1="2.33128e-06" x2="72" y2="72" gradientUnits="userSpaceOnUse"><stop stop-color="#008FBF"></stop><stop offset="1" stop-color="#7E3A77"></stop></linearGradient></defs></svg>