<svg width="95" height="104" viewBox="0 0 95 104" fill="none" xmlns="http://www.w3.org/2000/svg">
<g filter="url(#filter0_d_7381_20356)">
<path fill-rule="evenodd" clip-rule="evenodd" d="M47.5 16.9999C62.1355 16.9999 73.9999 28.8644 73.9999 43.4999C73.9999 58.1353 62.1355 69.9999 47.5 69.9999C32.8644 69.9999 21 58.1353 21 43.4999C21 28.8644 32.8644 16.9999 47.5 16.9999Z" fill="url(#paint0_linear_7381_20356)"/>
</g>
<path fill-rule="evenodd" clip-rule="evenodd" d="M42 0.999936H51.9999C68.5685 0.999936 81.9999 14.4311 81.9999 30.9999V40.9999C81.9999 57.5682 68.5685 70.9998 51.9999 70.9998H42C25.4315 70.9998 11.9999 57.5682 11.9999 40.9999V30.9999C11.9999 14.4311 25.4315 0.999936 42 0.999936Z" fill="url(#paint1_linear_7381_20356)"/>
<g clip-path="url(#clip0_7381_20356)">
<path d="M42.108 37.6062C39.5256 37.6062 37.5 34.5374 37.5 30.6206C37.5 25.9166 40.3864 25.2158 42.108 25.2158C43.8296 25.2158 46.716 25.9166 46.716 30.6206C46.716 34.5374 44.6936 37.6062 42.108 37.6062ZM42.108 26.5406C39.9256 26.5406 38.8216 27.9134 38.8216 30.6206C38.8216 33.6862 40.3256 36.2782 42.108 36.2782C43.8904 36.2782 45.3944 33.6862 45.3944 30.6206C45.3944 27.9134 44.2872 26.5406 42.108 26.5406Z" fill="white"/>
<path d="M52.816 30.9857C50.6016 30.9857 48.8672 28.3809 48.8672 25.0529C48.8672 22.1185 50.3072 20.4385 52.816 20.4385C55.3248 20.4385 56.7648 22.1217 56.7648 25.0529C56.7648 28.3777 55.0304 30.9857 52.816 30.9857ZM52.816 21.7665C51.0464 21.7665 50.1856 22.8417 50.1856 25.0561C50.1856 27.8113 51.5456 29.6609 52.816 29.6609C54.0864 29.6609 55.4464 27.8113 55.4464 25.0561C55.4464 22.8449 54.5856 21.7665 52.816 21.7665V21.7665Z" fill="white"/>
<path d="M32.2624 51.2384C31.9008 51.2384 31.6064 50.944 31.6032 50.5824C31.568 47.0112 32.08 42.2784 33.6384 40.6912C34.0608 40.2592 34.5728 40.032 35.1136 40.032H35.4048C35.5296 40.032 35.648 40.0352 35.7568 40.0352C36.6048 40.0352 37.0688 39.9616 37.6544 39.2768C37.7792 39.1296 37.9616 39.0432 38.1568 39.0432C38.3136 39.0432 38.4672 39.1008 38.5856 39.2032C38.72 39.3184 38.8032 39.4784 38.816 39.6576C38.8288 39.8336 38.7744 40.0032 38.6592 40.1376C37.696 41.2704 36.7616 41.36 35.728 41.36C35.6192 41.36 35.5104 41.36 35.4016 41.36H35.12C34.9984 41.36 34.8128 41.3856 34.5792 41.6256C33.1264 43.1008 32.9472 48.9216 32.9312 49.5808C32.9312 49.6672 32.9632 49.7536 33.024 49.8144C33.0848 49.8784 33.168 49.9136 33.2544 49.9136H36.1952C36.3744 49.9136 36.5184 49.7696 36.5184 49.5904V45.6384C36.5184 45.2736 36.816 44.976 37.1776 44.976C37.5392 44.976 37.8368 45.2736 37.8368 45.6384V49.5904C37.8368 49.7696 37.9808 49.9136 38.16 49.9136H46.0192C46.1984 49.9136 46.3424 49.7696 46.3424 49.5904V45.6384C46.3424 45.2736 46.64 44.976 47.0016 44.976C47.3632 44.976 47.6608 45.2736 47.6608 45.6384V49.5904C47.6608 49.7696 47.8048 49.9136 47.984 49.9136H50.9248C51.0112 49.9136 51.0944 49.8784 51.1552 49.8144C51.216 49.7536 51.248 49.6672 51.248 49.5808C51.2224 48.5056 51.0272 43.072 49.6 41.6256C49.3664 41.3888 49.1808 41.36 49.0624 41.36H48.7808C48.656 41.36 48.5376 41.3632 48.4192 41.3632C47.4016 41.3632 46.4832 41.2704 45.52 40.1376C45.4048 40.0032 45.3504 39.8336 45.3632 39.6544C45.376 39.4784 45.4592 39.3184 45.5936 39.2C45.7152 39.0976 45.8656 39.04 46.0224 39.04C46.2144 39.04 46.3968 39.1232 46.5216 39.2704C47.1136 39.9616 47.552 40.0288 48.4832 40.0288C48.5728 40.0288 49.0624 40.0288 49.0624 40.0288C49.6032 40.0288 50.1152 40.256 50.5376 40.688C50.8 40.9536 51.0432 41.3248 51.2736 41.8208C51.328 41.9328 51.44 42.0064 51.5648 42.0064H55.8432C56.0224 42.0064 56.1664 41.8624 56.1664 41.6832V37.7312C56.1664 37.3664 56.464 37.0688 56.8256 37.0688C57.1872 37.0688 57.4848 37.3664 57.4848 37.7312V41.6832C57.4848 41.8624 57.6288 42.0064 57.808 42.0064H60.752C60.8384 42.0064 60.9216 41.9712 60.9824 41.9104C61.0432 41.8496 61.0752 41.7632 61.0752 41.6768C61.0112 38.2912 60.4256 34.496 59.4656 34.1344C59.4304 34.1216 59.392 34.112 59.3504 34.112L58.9984 34.1184C58.8832 34.1184 58.768 34.1248 58.6528 34.1248C57.936 34.1248 57.1616 34.0416 56.3232 33.0624C56.0864 32.784 56.1184 32.3648 56.3936 32.1248C56.512 32.0224 56.6656 31.9648 56.8256 31.9648C57.0176 31.9648 57.2 32.048 57.3248 32.1952C57.7664 32.7104 58.0416 32.7968 58.6496 32.7968C58.7456 32.7968 58.8544 32.7968 58.976 32.7936H59.36C59.6736 32.7904 60.144 32.8864 60.5952 33.344C61.9712 34.7424 62.4256 39.2448 62.3936 42.6784C62.3936 43.04 62.096 43.3376 61.7344 43.3376H52.2272C52.128 43.3376 52.0352 43.3824 51.9744 43.4624C51.9136 43.5424 51.8912 43.6416 51.9136 43.7376C52.576 46.4928 52.5728 49.9232 52.5664 50.5824C52.5632 50.944 52.2656 51.2384 51.9072 51.2384H32.2624V51.2384Z" fill="white"/>
</g>
<defs>
<filter id="filter0_d_7381_20356" x="0" y="9" width="95" height="95" filterUnits="userSpaceOnUse" color-interpolation-filters="sRGB">
<feFlood flood-opacity="0" result="BackgroundImageFix"/>
<feColorMatrix in="SourceAlpha" type="matrix" values="0 0 0 0 0 0 0 0 0 0 0 0 0 0 0 0 0 0 127 0" result="hardAlpha"/>
<feOffset dy="13"/>
<feGaussianBlur stdDeviation="10.5"/>
<feColorMatrix type="matrix" values="0 0 0 0 0.494118 0 0 0 0 0.227451 0 0 0 0 0.466667 0 0 0 0.49 0"/>
<feBlend mode="normal" in2="BackgroundImageFix" result="effect1_dropShadow_7381_20356"/>
<feBlend mode="normal" in="SourceGraphic" in2="effect1_dropShadow_7381_20356" result="shape"/>
</filter>
<linearGradient id="paint0_linear_7381_20356" x1="33.5352" y1="16" x2="75" y2="71" gradientUnits="userSpaceOnUse">
<stop stop-color="#008FBF"/>
<stop offset="1" stop-color="#7E3A77"/>
</linearGradient>
<linearGradient id="paint1_linear_7381_20356" x1="28.7187" y1="2.33128e-06" x2="83" y2="72" gradientUnits="userSpaceOnUse">
<stop stop-color="#008FBF"/>
<stop offset="1" stop-color="#7E3A77"/>
</linearGradient>
<clipPath id="clip0_7381_20356">
<rect width="32" height="32" fill="white" transform="translate(31 20)"/>
</clipPath>
</defs>
</svg>
