<svg xmlns="http://www.w3.org/2000/svg" width="72" height="72" viewBox="0 0 72 72" fill="none"><path fill-rule="evenodd" clip-rule="evenodd" d="M31 0.999936H40.9999C57.5685 0.999936 70.9999 14.4311 70.9999 30.9999V40.9999C70.9999 57.5682 57.5685 70.9998 40.9999 70.9998H31C14.4315 70.9998 0.999936 57.5682 0.999936 40.9999V30.9999C0.999936 14.4311 14.4315 0.999936 31 0.999936Z" fill="url(#paint0_linear_6388_22393)"></path><path d="M28.33 47.36C34 47.36 35.83 42.5 35.83 36.38C35.83 30.29 34 25.46 28.33 25.46C22.69 25.46 20.83 30.29 20.83 36.38C20.83 42.5 22.69 47.36 28.33 47.36ZM28.33 44.63C24.88 44.63 23.89 41 23.89 36.38C23.89 31.79 24.88 28.19 28.33 28.19C31.81 28.19 32.77 31.79 32.77 36.38C32.77 41 31.81 44.63 28.33 44.63ZM39.1021 46.01C39.1021 46.67 39.5521 47 40.1521 47H51.9121C52.5421 47 52.9021 46.67 52.9021 46.01V45.41C52.9021 44.75 52.5421 44.42 51.9121 44.42H42.3421C42.4321 39.59 52.5721 38.51 52.5721 31.55C52.5721 27.89 49.7521 25.46 45.8821 25.46C42.4621 25.46 40.5121 27.5 39.7021 28.64C39.3421 29.15 39.4621 29.6 39.9721 29.99L40.5121 30.41C41.0221 30.83 41.5021 30.65 41.9221 30.2C42.4921 29.48 43.7521 28.25 45.6721 28.25C47.8921 28.25 49.4821 29.66 49.4821 31.76C49.4821 36.74 39.1021 37.82 39.1021 45.38V46.01Z" fill="white"></path><defs><linearGradient id="paint0_linear_6388_22393" x1="17.7187" y1="2.33128e-06" x2="72" y2="72" gradientUnits="userSpaceOnUse"><stop stop-color="#008FBF"></stop><stop offset="1" stop-color="#7E3A77"></stop></linearGradient></defs></svg>