<svg width="95" height="104" viewBox="0 0 95 104" fill="none" xmlns="http://www.w3.org/2000/svg">
<g filter="url(#filter0_d_7381_20346)">
<path fill-rule="evenodd" clip-rule="evenodd" d="M47.5 16.9999C62.1355 16.9999 73.9999 28.8644 73.9999 43.4999C73.9999 58.1353 62.1355 69.9999 47.5 69.9999C32.8644 69.9999 21 58.1353 21 43.4999C21 28.8644 32.8644 16.9999 47.5 16.9999Z" fill="url(#paint0_linear_7381_20346)"/>
</g>
<path fill-rule="evenodd" clip-rule="evenodd" d="M42 0.999936H51.9999C68.5685 0.999936 81.9999 14.4311 81.9999 30.9999V40.9999C81.9999 57.5682 68.5685 70.9998 51.9999 70.9998H42C25.4315 70.9998 11.9999 57.5682 11.9999 40.9999V30.9999C11.9999 14.4311 25.4315 0.999936 42 0.999936Z" fill="url(#paint1_linear_7381_20346)"/>
<path d="M41.6399 44.0994C42.0367 44.0994 42.3599 44.4226 42.3599 44.8226V49.1266C42.3599 49.3218 42.5167 49.4786 42.7119 49.4786H51.2687C51.3775 49.4786 51.4703 49.4274 51.5343 49.3474C51.4703 49.4082 51.3871 49.4466 51.2943 49.4466H42.7375C42.5423 49.4466 42.3855 49.2898 42.3855 49.0946V44.7906C42.3855 44.3938 42.0623 44.0674 41.6655 44.0674C41.4159 44.0674 41.1983 44.1954 41.0703 44.3874C41.2015 44.2146 41.4063 44.0994 41.6399 44.0994V44.0994Z" fill="white"/>
<path d="M52.3384 44.0994C52.7352 44.0994 53.0584 44.4226 53.0584 44.8226V49.1266C53.0584 49.3218 53.2152 49.4786 53.4104 49.4786H56.6104C56.7064 49.4786 56.796 49.4402 56.86 49.373C56.8664 49.3666 56.8696 49.357 56.876 49.3474C56.812 49.4114 56.7256 49.4466 56.6328 49.4466H53.4328C53.2376 49.4466 53.0808 49.2898 53.0808 49.0946V44.7906C53.0808 44.3938 52.7576 44.0674 52.3608 44.0674C52.1112 44.0674 51.8936 44.1954 51.7656 44.3874C51.8968 44.2146 52.1016 44.0994 52.3352 44.0994H52.3384Z" fill="white"/>
<path d="M37.0156 49.1141C37.0156 49.2101 37.0476 49.2997 37.1148 49.3701C37.182 49.4373 37.2716 49.4757 37.3644 49.4757H40.5644C40.6732 49.4757 40.766 49.4245 40.83 49.3445C40.766 49.4053 40.6828 49.4437 40.59 49.4437H37.39C37.2972 49.4437 37.2044 49.4053 37.1404 49.3381C37.0732 49.2709 37.038 49.1781 37.0412 49.0821C37.0668 47.9973 37.2524 42.8453 38.5132 40.8389H38.51C37.2044 42.8869 37.0316 48.4453 37.0156 49.1141V49.1141Z" fill="white"/>
<path d="M51.2659 37.645C51.4739 37.645 51.6724 37.7378 51.81 37.8978C52.4532 38.6498 52.93 38.7234 53.9476 38.7234C54.0468 38.7234 54.5811 38.7234 54.5811 38.7234C55.1699 38.7234 55.7268 38.9698 56.1876 39.4402C56.4756 39.7314 56.738 40.1346 56.9908 40.6722C57.0132 40.7202 57.0483 40.7586 57.0835 40.7906C56.8339 40.2242 56.546 39.7474 56.2132 39.4082C55.7524 38.9378 55.1956 38.6914 54.6067 38.6914H54.29C54.1524 38.6914 54.0243 38.6946 53.9059 38.6946C52.9811 38.6946 52.4755 38.6146 51.8387 37.869C51.7011 37.709 51.5027 37.6162 51.2947 37.6162C51.1219 37.6162 50.9588 37.677 50.8276 37.789C50.786 37.8242 50.7508 37.8658 50.7188 37.9074C50.7444 37.8786 50.7699 37.8466 50.8019 37.821C50.9331 37.709 51.0995 37.645 51.2691 37.645H51.2659Z" fill="white"/>
<path d="M36.8976 40.8574C36.8496 40.9694 36.7952 41.1038 36.7344 41.2574C36.7856 41.1198 36.8432 40.9886 36.8976 40.8574Z" fill="white"/>
<path d="M58.4062 50.2046C58.4062 50.3518 58.3582 50.4894 58.2814 50.6014C58.3742 50.483 58.4286 50.3326 58.4318 50.1726C58.4574 47.7726 58.2526 44.8894 57.6926 42.627C57.6894 42.6686 57.683 42.7102 57.6926 42.7486C58.4126 45.747 58.4126 49.4846 58.403 50.2014L58.4062 50.2046Z" fill="white"/>
<path d="M36.3125 42.6239C36.3125 42.6239 36.3125 42.6527 36.3125 42.6655C36.4309 42.1919 36.5621 41.7407 36.7125 41.3311C36.5749 41.6959 36.4213 42.1471 36.3125 42.6239Z" fill="white"/>
<path d="M37.3906 39.9455C37.3906 39.9455 37.4002 39.9295 37.4066 39.9199C37.4002 39.9295 37.397 39.9359 37.3906 39.9455Z" fill="white"/>
<path d="M39.3997 38.7198H39.7165C39.8541 38.7198 39.9821 38.723 40.1005 38.723C41.0253 38.723 41.5309 38.643 42.1677 37.8974C42.3053 37.7374 42.5037 37.6446 42.7117 37.6446C42.8813 37.6446 43.0477 37.7054 43.1789 37.8174C43.3261 37.9422 43.4157 38.1182 43.4285 38.3102C43.4413 38.4958 43.3837 38.6782 43.2653 38.8222C43.2717 38.8158 43.2749 38.8094 43.2813 38.803C43.4061 38.6558 43.4669 38.4702 43.4541 38.2782C43.4381 38.0862 43.3517 37.9102 43.2045 37.7854C43.0733 37.6734 42.9069 37.6094 42.7373 37.6094C42.5261 37.6094 42.3309 37.7022 42.1933 37.8622C41.5501 38.6142 41.0733 38.6878 40.0557 38.6878C39.9565 38.6878 39.4253 38.6878 39.4253 38.6878C38.8365 38.6878 38.2797 38.9342 37.8189 39.4046C37.7261 39.5006 37.6365 39.6094 37.5469 39.7278C37.6269 39.6254 37.7069 39.523 37.7933 39.4366C38.2541 38.9662 38.8109 38.7198 39.3997 38.7198V38.7198Z" fill="white"/>
<path d="M38.511 40.8413C38.5782 40.7325 38.6518 40.6365 38.7254 40.5469C38.6486 40.6333 38.575 40.7325 38.5078 40.8413H38.511V40.8413Z" fill="white"/>
<path d="M51.6432 49.091V44.787C51.6432 44.6366 51.688 44.499 51.7648 44.3838C51.672 44.5054 51.6176 44.6558 51.6176 44.819V49.123C51.6176 49.2094 51.5825 49.2862 51.5312 49.347C51.5985 49.283 51.6432 49.1934 51.6432 49.091Z" fill="white"/>
<path d="M40.9479 49.091V44.787C40.9479 44.6398 40.9927 44.499 41.0695 44.3838C40.9767 44.5054 40.9223 44.6526 40.9223 44.819V49.123C40.9223 49.2094 40.8871 49.2862 40.8359 49.347C40.9031 49.283 40.9479 49.1934 40.9479 49.091Z" fill="white"/>
<path d="M57.7082 50.8893H36.313C35.9194 50.8893 35.5994 50.5693 35.593 50.1725C35.5866 49.4525 35.5834 45.7181 36.3034 42.7197C36.3066 42.7005 36.3034 42.6813 36.3034 42.6621C35.7434 44.9213 35.5418 47.8045 35.5642 50.2045C35.5674 50.5981 35.8906 50.9213 36.2842 50.9213H57.6826C57.929 50.9213 58.1466 50.7933 58.2778 50.6045C58.1466 50.7773 57.9418 50.8925 57.7082 50.8925V50.8893Z" fill="white"/>
<path d="M40.1186 40.1372C39.9906 40.1372 39.8594 40.1372 39.725 40.134H39.4178C39.2866 40.134 39.085 40.1628 38.8322 40.422C38.7938 40.4604 38.7618 40.5052 38.7266 40.5468C38.7522 40.5148 38.781 40.4828 38.8066 40.454C39.0594 40.1948 39.2642 40.166 39.3922 40.166H39.6994C39.8178 40.166 39.9394 40.1692 40.0578 40.1692C41.1842 40.1692 42.2018 40.07 43.2514 38.838C43.2546 38.8348 43.2578 38.8284 43.261 38.8252C42.2178 40.0412 41.2194 40.1404 40.1186 40.1404V40.1372Z" fill="white"/>
<path d="M37.4062 39.9202C37.451 39.853 37.4958 39.7922 37.5406 39.7314C37.4958 39.7922 37.451 39.8562 37.4062 39.9202Z" fill="white"/>
<path d="M37.0104 40.6368C37.1352 40.3744 37.2599 40.144 37.3912 39.9424C37.2439 40.1632 37.1064 40.4064 36.9784 40.6784C36.9784 40.6848 36.972 40.6912 36.9688 40.6976C36.9848 40.6784 37.0008 40.6592 37.0104 40.6336V40.6368Z" fill="white"/>
<path d="M56.9878 49.0848C56.9718 48.368 56.7766 42.032 55.1958 40.4224C54.9398 40.1632 54.7382 40.1344 54.607 40.1344H54.2998C54.1814 40.1344 54.0598 40.1376 53.9414 40.1376C52.815 40.1376 51.7974 40.0384 50.7478 38.8064C50.623 38.6592 50.5622 38.4736 50.575 38.2816C50.5846 38.144 50.6358 38.016 50.7158 37.9072C50.6198 38.0224 50.559 38.1632 50.5494 38.3136C50.5334 38.5056 50.5942 38.6912 50.7222 38.8384C51.7718 40.0704 52.7734 40.1728 53.8806 40.1728C54.0086 40.1728 54.1398 40.1728 54.2742 40.1696H54.5814C54.7126 40.1696 54.9142 40.1984 55.167 40.4576C56.719 42.032 56.9334 47.9488 56.959 49.12C56.959 49.2032 56.927 49.2832 56.8758 49.3504C56.8758 49.3504 56.8822 49.3472 56.8854 49.344C56.9526 49.2768 56.9878 49.184 56.9846 49.088L56.9878 49.0848Z" fill="white"/>
<path d="M57.6913 42.752C57.6817 42.7104 57.6849 42.6688 57.6913 42.6304C57.5217 41.9488 57.3201 41.3248 57.0833 40.7872C57.0449 40.7552 57.0129 40.7168 56.9905 40.6688C56.7377 40.1312 56.4753 39.728 56.1873 39.4368C55.7265 38.9696 55.1697 38.72 54.5809 38.72C54.5809 38.72 54.0465 38.72 53.9473 38.72C52.9297 38.72 52.4529 38.6464 51.8097 37.8944C51.6753 37.7344 51.4769 37.6416 51.2657 37.6416C51.0929 37.6416 50.9265 37.7024 50.7985 37.8176C50.7665 37.8432 50.7409 37.872 50.7153 37.904C50.6353 38.0128 50.5841 38.1408 50.5745 38.2784C50.5585 38.4704 50.6193 38.656 50.7473 38.8032C51.7969 40.0352 52.8145 40.1344 53.9409 40.1344C54.0593 40.1344 54.1777 40.1344 54.2993 40.1344H54.6065C54.7377 40.1344 54.9393 40.1632 55.1953 40.4224C56.7761 42.0288 56.9713 48.3648 56.9873 49.0848C56.9873 49.1808 56.9553 49.2704 56.8881 49.3408C56.8881 49.3408 56.8817 49.344 56.8785 49.3472C56.8721 49.3536 56.8689 49.3664 56.8625 49.3728C56.7953 49.44 56.7057 49.4784 56.6129 49.4784H53.4129C53.2177 49.4784 53.0609 49.3216 53.0609 49.1264V44.8224C53.0609 44.4256 52.7377 44.0992 52.3409 44.0992C52.1073 44.0992 51.9025 44.2144 51.7713 44.3872C51.6945 44.5024 51.6497 44.64 51.6497 44.7904V49.0944C51.6497 49.1968 51.6049 49.2864 51.5377 49.3504C51.4737 49.4272 51.3809 49.4816 51.2721 49.4816H42.7153C42.5201 49.4816 42.3633 49.3248 42.3633 49.1296V44.8256C42.3633 44.4288 42.0401 44.1024 41.6433 44.1024C41.4097 44.1024 41.2049 44.2176 41.0737 44.3904C40.9969 44.5056 40.9521 44.6432 40.9521 44.7936V49.0976C40.9521 49.2 40.9105 49.2896 40.8401 49.3536C40.7761 49.4304 40.6833 49.4848 40.5745 49.4848H37.3745C37.2785 49.4848 37.1889 49.4464 37.1249 49.3792C37.0577 49.312 37.0225 49.2192 37.0257 49.1232C37.0417 48.4544 37.2113 42.896 38.5201 40.848C38.5905 40.7392 38.6609 40.6432 38.7377 40.5536C38.7729 40.512 38.8081 40.4672 38.8433 40.4288C39.0993 40.1696 39.3009 40.1408 39.4289 40.1408H39.7361C39.8705 40.1408 40.0017 40.144 40.1297 40.144C41.2305 40.144 42.2257 40.0448 43.2721 38.8288C43.3905 38.6848 43.4481 38.5056 43.4353 38.3168C43.4193 38.1248 43.3329 37.9488 43.1857 37.824C43.0545 37.712 42.8913 37.6512 42.7185 37.6512C42.5073 37.6512 42.3089 37.744 42.1745 37.904C41.5377 38.6496 41.0321 38.7296 40.1073 38.7296C39.9889 38.7296 39.8577 38.7296 39.7233 38.7296H39.4065C38.8177 38.7296 38.2609 38.976 37.8001 39.4464C37.7137 39.5328 37.6337 39.6352 37.5537 39.7376C37.5089 39.7984 37.4641 39.8592 37.4193 39.9264C37.4129 39.936 37.4097 39.9424 37.4033 39.952C37.2721 40.1536 37.1473 40.384 37.0225 40.6464C37.0129 40.6688 36.9969 40.6912 36.9809 40.7104C36.9617 40.752 36.9425 40.7968 36.9201 40.848C36.9201 40.8544 36.9137 40.8608 36.9137 40.8672C36.8593 40.9952 36.8017 41.1264 36.7505 41.2672C36.7409 41.2896 36.7313 41.3152 36.7217 41.3408C36.5713 41.7504 36.4401 42.1984 36.3217 42.6752C36.3217 42.6944 36.3249 42.7136 36.3217 42.7328C35.6017 45.7312 35.6017 49.4688 35.6113 50.1856C35.6145 50.5792 35.9377 50.9024 36.3313 50.9024H57.7105C57.9409 50.9024 58.1457 50.7872 58.2801 50.6144C58.3569 50.4992 58.4017 50.3648 58.4049 50.2176C58.4113 49.4976 58.4113 45.7632 57.6945 42.7648L57.6913 42.752Z" fill="white"/>
<path d="M37.6625 36.3812C38.3281 36.7204 39.2497 37.0276 40.3953 37.2932C40.8209 37.3924 41.2241 37.434 41.6017 37.434C43.1537 37.434 44.2801 36.714 44.8369 36.2564C46.7409 37.274 48.4241 36.5636 49.2049 36.0964C49.7777 36.5508 50.9105 37.2164 52.7089 37.306C54.6065 37.3956 56.0561 36.7044 56.7505 36.2852C57.0737 36.09 57.2561 35.7348 57.2273 35.3604C57.1985 34.9828 56.9617 34.6596 56.6097 34.5156C56.1457 34.3268 55.7905 34.042 55.7873 34.042C55.7713 34.0292 55.7457 34.01 55.7265 33.9972C55.6497 33.946 53.8353 32.6948 53.8609 29.3124C53.8897 25.4756 52.7185 23.8564 52.4721 23.5588C52.1905 23.1684 49.6721 19.898 45.3489 20.9572C40.8465 22.058 40.3633 25.9332 40.3473 26.0772C40.3409 26.122 40.1905 27.2228 39.8033 31.2804C39.6337 33.066 38.9329 34.2276 37.8321 34.5508C37.4385 34.666 37.1601 35.0052 37.1217 35.4148C37.0833 35.8212 37.2945 36.2052 37.6593 36.3908L37.6625 36.3812ZM47.0033 35.2388C45.0641 35.2388 43.4225 32.4164 43.4225 29.0788C43.4225 28.954 43.4225 28.8292 43.4289 28.7076C43.4449 28.33 43.6657 27.994 43.9985 27.818C44.7793 27.4052 45.5857 26.8804 46.3025 26.2308C46.7377 25.8372 47.4065 25.8724 47.8065 26.3012C48.4145 26.954 49.1345 27.5588 49.9473 27.9556C50.3217 28.138 50.5745 28.5028 50.5809 28.9188C50.5809 28.97 50.5809 29.0244 50.5809 29.0788C50.5809 32.4196 48.9425 35.2388 47.0033 35.2388V35.2388ZM41.2529 31.4116C41.6369 27.402 41.7905 26.2788 41.7937 26.25C41.7969 26.2212 42.1681 23.226 45.6945 22.3652C49.2049 21.5076 51.2145 24.298 51.2977 24.4164C51.3137 24.4388 51.3329 24.4644 51.3521 24.4836C51.3617 24.4964 52.4305 25.7988 52.4049 29.2964C52.3729 33.2932 54.5681 34.9604 54.8977 35.1908C54.9489 35.2324 55.0641 35.3188 55.2241 35.4212C54.6065 35.674 53.7649 35.898 52.7761 35.8468C51.4257 35.7796 50.6033 35.3284 50.1777 35.0052C51.3073 33.6228 52.0209 31.5012 52.0209 29.0788C52.0209 28.8548 52.0113 28.6404 52.0017 28.4324C51.9889 28.2052 51.9697 27.9876 51.9441 27.7796C51.8897 27.3444 51.5825 26.9892 51.1633 26.8708C50.7761 26.7652 50.4081 26.5828 50.0593 26.3492C49.4801 25.962 48.9585 25.4436 48.5137 24.9028C48.4241 24.7972 48.3409 24.6884 48.2577 24.5796L47.8929 24.1668C47.4577 23.6708 46.6833 23.6836 46.2577 24.1892C46.0817 24.4004 45.8833 24.6244 45.6785 24.8324C45.5665 24.9476 45.4513 25.0564 45.3393 25.1588C45.3073 25.1876 45.2785 25.2132 45.2497 25.2356C45.2113 25.2708 45.1729 25.3028 45.1313 25.3348C45.1121 25.3508 45.0993 25.3604 45.0865 25.37C45.0289 25.4148 44.9681 25.4596 44.9105 25.5012C44.6481 25.706 44.3761 25.898 44.1009 26.0708C43.6305 26.3652 43.1505 26.618 42.6929 26.8292C42.3665 26.9796 42.1329 27.2804 42.0849 27.6388C42.0401 27.9652 42.0081 28.3172 41.9953 28.6948C41.9921 28.8196 41.9889 28.9476 41.9889 29.0788C41.9889 31.5684 42.7441 33.738 43.9281 35.1172C43.4097 35.5588 42.3057 36.2436 40.7249 35.8756C40.1201 35.7348 39.6369 35.594 39.2561 35.466C40.1233 34.8772 41.0353 33.7156 41.2561 31.4148L41.2529 31.4116Z" fill="white"/>
<path d="M36.9641 40.7008C36.9641 40.7008 36.9705 40.688 36.9737 40.6816C36.9705 40.6912 36.9641 40.6976 36.9609 40.7072C36.9609 40.7072 36.9609 40.704 36.9641 40.7008V40.7008Z" fill="white"/>
<path d="M36.7397 41.2578C36.7301 41.2834 36.7205 41.3058 36.7109 41.3314C36.7205 41.3058 36.7301 41.2802 36.7397 41.2578Z" fill="white"/>
<path d="M36.8984 40.8581C36.8984 40.8581 36.9048 40.8453 36.9048 40.8389C36.9048 40.8389 36.9016 40.8517 36.8984 40.8581Z" fill="white"/>
<path d="M36.9639 40.7076C36.9447 40.7492 36.9254 40.7972 36.9062 40.8388C36.9286 40.7876 36.9479 40.7396 36.9671 40.7012C36.9671 40.7012 36.967 40.7044 36.9639 40.7076V40.7076Z" fill="white"/>
<defs>
<filter id="filter0_d_7381_20346" x="0" y="9" width="95" height="95" filterUnits="userSpaceOnUse" color-interpolation-filters="sRGB">
<feFlood flood-opacity="0" result="BackgroundImageFix"/>
<feColorMatrix in="SourceAlpha" type="matrix" values="0 0 0 0 0 0 0 0 0 0 0 0 0 0 0 0 0 0 127 0" result="hardAlpha"/>
<feOffset dy="13"/>
<feGaussianBlur stdDeviation="10.5"/>
<feColorMatrix type="matrix" values="0 0 0 0 0.494118 0 0 0 0 0.227451 0 0 0 0 0.466667 0 0 0 0.49 0"/>
<feBlend mode="normal" in2="BackgroundImageFix" result="effect1_dropShadow_7381_20346"/>
<feBlend mode="normal" in="SourceGraphic" in2="effect1_dropShadow_7381_20346" result="shape"/>
</filter>
<linearGradient id="paint0_linear_7381_20346" x1="33.5352" y1="16" x2="75" y2="71" gradientUnits="userSpaceOnUse">
<stop stop-color="#008FBF"/>
<stop offset="1" stop-color="#7E3A77"/>
</linearGradient>
<linearGradient id="paint1_linear_7381_20346" x1="28.7187" y1="2.33128e-06" x2="83" y2="72" gradientUnits="userSpaceOnUse">
<stop stop-color="#008FBF"/>
<stop offset="1" stop-color="#7E3A77"/>
</linearGradient>
</defs>
</svg>
