<svg xmlns="http://www.w3.org/2000/svg" width="72" height="72" viewBox="0 0 72 72" fill="none"><path fill-rule="evenodd" clip-rule="evenodd" d="M31 0.999936H40.9999C57.5685 0.999936 70.9999 14.4311 70.9999 30.9999V40.9999C70.9999 57.5682 57.5685 70.9998 40.9999 70.9998H31C14.4315 70.9998 0.999936 57.5682 0.999936 40.9999V30.9999C0.999936 14.4311 14.4315 0.999936 31 0.999936Z" fill="url(#paint0_linear_6388_22405)"></path><path d="M28.33 47.36C34 47.36 35.83 42.5 35.83 36.38C35.83 30.29 34 25.46 28.33 25.46C22.69 25.46 20.83 30.29 20.83 36.38C20.83 42.5 22.69 47.36 28.33 47.36ZM28.33 44.63C24.88 44.63 23.89 41 23.89 36.38C23.89 31.79 24.88 28.19 28.33 28.19C31.81 28.19 32.77 31.79 32.77 36.38C32.77 41 31.81 44.63 28.33 44.63ZM39.3421 41.33H48.6121V46.01C48.6121 46.67 48.9721 47 49.6021 47H50.5621C51.1921 47 51.5521 46.67 51.5521 46.01V41.33H53.5921C54.1321 41.33 54.4321 41 54.4321 40.34V39.8C54.4321 39.17 54.0721 38.81 53.4421 38.81H51.5521V26.81C51.5521 26.15 51.1921 25.82 50.5621 25.82H48.9121C48.4021 25.82 48.0421 26 47.7421 26.45L38.7421 38.93C38.4721 39.32 38.3521 39.65 38.3521 40.16V40.34C38.3521 41 38.7121 41.33 39.3421 41.33ZM41.6521 38.81V38.75L47.6521 30.74C48.1921 29.99 48.7021 29 48.7021 29H48.7621C48.7621 29 48.6121 30.11 48.6121 31.1V38.81H41.6521Z" fill="white"></path><defs><linearGradient id="paint0_linear_6388_22405" x1="17.7187" y1="2.33128e-06" x2="72" y2="72" gradientUnits="userSpaceOnUse"><stop stop-color="#008FBF"></stop><stop offset="1" stop-color="#7E3A77"></stop></linearGradient></defs></svg>