<?xml version="1.0" standalone="no"?>
<!DOCTYPE svg PUBLIC "-//W3C//DTD SVG 20010904//EN"
 "http://www.w3.org/TR/2001/REC-SVG-20010904/DTD/svg10.dtd">
<svg version="1.0" xmlns="http://www.w3.org/2000/svg"
 width="1009.000000pt" height="579.000000pt" viewBox="0 0 1009.000000 579.000000"
 preserveAspectRatio="xMidYMid meet">

<g transform="translate(0.000000,579.000000) scale(0.100000,-0.100000)"
fill="#000000" stroke="none">
<path d="M3745 5040 c3 -5 13 -10 21 -10 8 0 14 5 14 10 0 6 -9 10 -21 10 -11
0 -17 -4 -14 -10z"/>
<path d="M4025 5040 c3 -5 13 -10 21 -10 8 0 14 5 14 10 0 6 -9 10 -21 10 -11
0 -17 -4 -14 -10z"/>
<path d="M4280 4995 c0 -8 2 -15 4 -15 2 0 11 -3 20 -6 10 -4 16 -1 16 9 0 8
-7 18 -16 21 -22 9 -24 8 -24 -9z"/>
<path d="M3813 4963 c-7 -2 -13 -9 -13 -14 0 -14 26 -10 40 6 10 12 10 15 -1
14 -8 0 -20 -3 -26 -6z"/>
<path d="M4085 4940 c3 -5 13 -10 21 -10 8 0 14 5 14 10 0 6 -9 10 -21 10 -11
0 -17 -4 -14 -10z"/>
<path d="M4404 4935 c26 -19 42 -19 26 0 -7 8 -20 15 -29 15 -13 -1 -13 -3 3
-15z"/>
<path d="M4210 4900 c0 -5 12 -10 26 -10 14 0 23 4 19 10 -3 6 -15 10 -26 10
-10 0 -19 -4 -19 -10z"/>
<path d="M4520 4875 c0 -8 2 -15 4 -15 2 0 11 -3 20 -6 10 -4 16 -1 16 9 0 8
-7 18 -16 21 -22 9 -24 8 -24 -9z"/>
<path d="M4335 4860 c-9 -15 4 -30 26 -30 23 0 26 25 3 34 -21 8 -22 8 -29 -4z"/>
<path d="M3043 4838 c-23 -11 -31 -28 -14 -28 10 0 41 28 41 36 0 5 0 5 -27
-8z"/>
<path d="M3685 4840 c3 -5 13 -10 21 -10 8 0 14 5 14 10 0 6 -9 10 -21 10 -11
0 -17 -4 -14 -10z"/>
<path d="M3825 4840 c3 -5 13 -10 21 -10 8 0 14 5 14 10 0 6 -9 10 -21 10 -11
0 -17 -4 -14 -10z"/>
<path d="M3973 4843 c-23 -9 -15 -35 10 -31 12 2 22 9 22 17 0 16 -14 22 -32
14z"/>
<path d="M3525 4820 c3 -5 13 -10 21 -10 8 0 14 5 14 10 0 6 -9 10 -21 10 -11
0 -17 -4 -14 -10z"/>
<path d="M3365 4800 c3 -5 13 -10 21 -10 8 0 14 5 14 10 0 6 -9 10 -21 10 -11
0 -17 -4 -14 -10z"/>
<path d="M4090 4800 c0 -5 12 -10 26 -10 14 0 23 4 19 10 -3 6 -15 10 -26 10
-10 0 -19 -4 -19 -10z"/>
<path d="M4455 4800 c-9 -15 4 -30 26 -30 23 0 26 25 3 34 -21 8 -22 8 -29 -4z"/>
<path d="M4649 4786 c14 -15 26 -26 28 -26 9 0 -24 40 -37 45 -8 4 -4 -5 9
-19z"/>
<path d="M3213 4783 c-7 -2 -13 -9 -13 -14 0 -14 26 -10 40 6 10 12 10 15 -1
14 -8 0 -20 -3 -26 -6z"/>
<path d="M4214 4759 c-6 -10 11 -29 26 -29 3 0 11 4 19 9 17 11 5 31 -19 31
-10 0 -22 -5 -26 -11z"/>
<path d="M3531 4714 c-19 -8 -31 -17 -28 -20 10 -11 54 5 61 21 3 8 4 15 3 15
-1 -1 -17 -7 -36 -16z"/>
<path d="M3673 4723 c-13 -5 -19 -33 -8 -33 10 0 65 30 65 35 0 6 -41 5 -57
-2z"/>
<path d="M3813 4723 c-18 -7 -16 -33 1 -33 25 0 46 12 46 26 0 14 -23 17 -47
7z"/>
<path d="M4570 4711 c0 -6 10 -17 22 -25 30 -21 52 -2 24 20 -23 16 -46 19
-46 5z"/>
<path d="M3355 4693 c-39 -21 -16 -29 24 -8 17 8 31 18 31 20 0 10 -26 4 -55
-12z"/>
<path d="M3963 4697 c-13 -5 -23 -14 -23 -19 0 -12 48 -10 56 3 11 18 -9 28
-33 16z"/>
<path d="M4335 4700 c-10 -16 4 -30 30 -30 29 0 43 19 24 31 -19 12 -46 11
-54 -1z"/>
<path d="M4752 4694 c1 -9 9 -19 16 -22 9 -3 13 2 10 14 -1 9 -9 19 -16 22 -9
3 -13 -2 -10 -14z"/>
<path d="M3223 4678 c-23 -11 -31 -28 -14 -28 10 0 41 28 41 36 0 5 0 5 -27
-8z"/>
<path d="M4060 4641 c0 -5 7 -14 15 -21 12 -10 18 -10 30 0 23 19 18 30 -15
30 -16 0 -30 -4 -30 -9z"/>
<path d="M4460 4622 c0 -12 34 -42 48 -42 16 0 15 23 0 38 -14 14 -48 16 -48
4z"/>
<path d="M4690 4612 c0 -10 33 -42 43 -42 15 0 6 30 -12 40 -24 12 -31 13 -31
2z"/>
<path d="M2873 4603 c-7 -2 -13 -9 -13 -14 0 -14 26 -10 40 6 10 12 10 15 -1
14 -8 0 -20 -3 -26 -6z"/>
<path d="M4869 4586 c14 -15 26 -26 28 -26 9 0 -24 40 -37 45 -8 4 -4 -5 9
-19z"/>
<path d="M3473 4583 c-13 -5 -19 -33 -8 -33 10 0 65 30 65 35 0 6 -41 5 -57
-2z"/>
<path d="M3615 4572 c-29 -16 -29 -17 -7 -20 23 -4 52 13 52 29 0 13 -11 11
-45 -9z"/>
<path d="M4194 4579 c-7 -12 13 -29 36 -29 23 0 43 17 36 29 -4 6 -20 11 -36
11 -16 0 -32 -5 -36 -11z"/>
<path d="M2713 4563 c-7 -2 -13 -9 -13 -14 0 -14 26 -10 40 6 10 12 10 15 -1
14 -8 0 -20 -3 -26 -6z"/>
<path d="M3165 4544 c-31 -27 -28 -28 18 -5 15 8 27 18 27 23 0 14 -14 8 -45
-18z"/>
<path d="M3313 4563 c-7 -2 -13 -9 -13 -14 0 -14 26 -10 40 6 10 12 10 15 -1
14 -8 0 -20 -3 -26 -6z"/>
<path d="M3751 4561 c-19 -12 -5 -31 23 -31 25 0 51 22 39 33 -9 10 -45 8 -62
-2z"/>
<path d="M4584 4528 c-8 -12 21 -38 43 -38 18 0 16 14 -5 33 -22 20 -28 21
-38 5z"/>
<path d="M2993 4523 c-7 -2 -13 -9 -13 -15 0 -12 50 -2 65 13 10 10 -30 12
-52 2z"/>
<path d="M3891 4521 c-19 -12 -5 -31 23 -31 25 0 51 22 39 33 -9 10 -45 8 -62
-2z"/>
<path d="M4323 4514 c-4 -11 1 -22 12 -30 38 -28 70 -7 39 27 -21 23 -42 25
-51 3z"/>
<path d="M4800 4517 c0 -22 26 -51 39 -43 7 5 8 13 1 25 -12 23 -40 35 -40 18z"/>
<path d="M2863 4498 c-23 -11 -31 -28 -14 -28 10 0 41 28 41 36 0 5 0 5 -27
-8z"/>
<path d="M4970 4482 c0 -18 12 -42 21 -42 14 0 10 26 -6 40 -9 8 -15 8 -15 2z"/>
<path d="M2683 4458 c-23 -11 -31 -28 -14 -28 10 0 41 28 41 36 0 5 0 5 -27
-8z"/>
<path d="M4014 4459 c-7 -12 13 -29 36 -29 23 0 43 17 36 29 -4 6 -20 11 -36
11 -16 0 -32 -5 -36 -11z"/>
<path d="M3411 4428 c-19 -12 -29 -24 -23 -26 14 -4 72 26 72 38 0 15 -11 12
-49 -12z"/>
<path d="M3095 4412 c-29 -16 -29 -17 -7 -20 23 -4 52 13 52 29 0 13 -11 11
-45 -9z"/>
<path d="M3238 4423 c-16 -4 -27 -33 -13 -33 12 0 75 29 75 34 0 7 -36 6 -62
-1z"/>
<path d="M3543 4418 c-31 -15 -29 -28 5 -28 27 0 52 15 52 32 0 11 -30 9 -57
-4z"/>
<path d="M4455 4420 c-8 -13 13 -40 31 -40 22 0 28 22 9 37 -23 16 -32 16 -40
3z"/>
<path d="M4719 4399 c25 -23 36 -28 45 -19 14 15 -26 50 -58 50 -19 -1 -18 -4
13 -31z"/>
<path d="M2951 4394 c-19 -8 -31 -17 -28 -20 10 -11 54 5 61 21 3 8 4 15 3 15
-1 -1 -17 -7 -36 -16z"/>
<path d="M4153 4384 c-7 -19 13 -34 44 -34 28 0 38 17 23 35 -17 20 -59 19
-67 -1z"/>
<path d="M4910 4392 c0 -10 33 -42 43 -42 15 0 6 30 -12 40 -24 12 -31 13 -31
2z"/>
<path d="M3681 4381 c-16 -10 -6 -31 14 -31 20 0 65 22 65 32 0 11 -61 10 -79
-1z"/>
<path d="M2773 4363 c-7 -2 -13 -9 -13 -14 0 -14 26 -10 40 6 10 12 10 15 -1
14 -8 0 -20 -3 -26 -6z"/>
<path d="M3833 4343 c-21 -8 -15 -33 12 -45 19 -8 28 -8 40 2 36 30 -4 63 -52
43z"/>
<path d="M4575 4320 c-9 -14 3 -30 32 -41 48 -18 54 18 7 40 -30 13 -31 13
-39 1z"/>
<path d="M4295 4300 c-8 -13 13 -40 31 -40 22 0 28 22 9 37 -23 16 -32 16 -40
3z"/>
<path d="M4820 4297 c0 -16 32 -47 48 -47 18 0 14 25 -6 43 -22 20 -42 22 -42
4z"/>
<path d="M3031 4268 c-19 -12 -29 -24 -23 -26 14 -4 72 26 72 38 0 15 -11 12
-49 -12z"/>
<path d="M3180 4273 c-19 -8 -29 -17 -23 -20 15 -6 80 15 88 28 9 14 -26 10
-65 -8z"/>
<path d="M3338 4274 c-30 -16 -37 -34 -13 -34 23 0 66 23 62 34 -5 16 -20 16
-49 0z"/>
<path d="M2875 4253 c-39 -21 -16 -29 24 -8 17 8 31 18 31 20 0 10 -26 4 -55
-12z"/>
<path d="M3960 4260 c-13 -9 -13 -11 0 -20 8 -5 26 -10 40 -10 14 0 32 5 40
10 13 9 13 11 0 20 -8 5 -26 10 -40 10 -14 0 -32 -5 -40 -10z"/>
<path d="M5020 4264 c0 -16 23 -44 35 -44 20 0 19 13 -3 33 -19 17 -32 22 -32
11z"/>
<path d="M2715 4233 c-39 -21 -16 -29 24 -8 17 8 31 18 31 20 0 10 -26 4 -55
-12z"/>
<path d="M3461 4241 c-20 -13 -4 -31 28 -31 29 0 57 21 44 33 -9 10 -56 8 -72
-2z"/>
<path d="M5170 4217 c0 -8 11 -24 25 -37 29 -27 32 -20 8 21 -18 31 -33 38
-33 16z"/>
<path d="M2553 4203 c-7 -2 -13 -9 -13 -14 0 -14 26 -10 40 6 10 12 10 15 -1
14 -8 0 -20 -3 -26 -6z"/>
<path d="M3614 4199 c-7 -12 13 -29 36 -29 23 0 43 17 36 29 -4 6 -20 11 -36
11 -16 0 -32 -5 -36 -11z"/>
<path d="M4414 4199 c-4 -7 2 -20 16 -31 25 -21 29 -21 50 -8 12 7 12 13 4 27
-13 21 -59 29 -70 12z"/>
<path d="M4695 4200 c-8 -14 15 -47 42 -59 19 -9 25 -8 29 4 14 35 -52 86 -71
55z"/>
<path d="M4113 4183 c-33 -13 1 -53 46 -53 31 0 37 21 11 42 -22 18 -35 21
-57 11z"/>
<path d="M4930 4176 c0 -7 12 -26 27 -42 24 -25 28 -27 31 -11 2 10 -4 29 -12
42 -18 27 -46 34 -46 11z"/>
<path d="M3773 4143 c-33 -13 1 -53 46 -53 31 0 37 21 11 42 -22 18 -35 21
-57 11z"/>
<path d="M5130 4121 c0 -20 25 -51 41 -51 14 0 11 23 -7 48 -19 27 -34 28 -34
3z"/>
<path d="M2795 4112 c-29 -16 -29 -17 -7 -20 23 -4 52 13 52 29 0 13 -11 11
-45 -9z"/>
<path d="M2953 4123 c-7 -2 -13 -9 -13 -15 0 -12 50 -2 65 13 10 10 -30 12
-52 2z"/>
<path d="M3094 4119 c-12 -20 11 -31 39 -18 15 7 27 16 27 21 0 12 -58 10 -66
-3z"/>
<path d="M2635 4093 c-39 -21 -16 -29 24 -8 17 8 31 18 31 20 0 10 -26 4 -55
-12z"/>
<path d="M3261 4101 c-16 -10 -6 -31 14 -31 20 0 65 22 65 32 0 11 -61 10 -79
-1z"/>
<path d="M2073 4083 c-7 -2 -13 -9 -13 -14 0 -14 26 -10 40 6 10 12 10 15 -1
14 -8 0 -20 -3 -26 -6z"/>
<path d="M2503 4078 c-23 -11 -31 -28 -14 -28 10 0 41 28 41 36 0 5 0 5 -27
-8z"/>
<path d="M4253 4083 c-33 -13 1 -53 46 -53 31 0 37 21 11 42 -22 18 -35 21
-57 11z"/>
<path d="M4555 4080 c-9 -14 3 -30 32 -41 48 -18 54 18 7 40 -30 13 -31 13
-39 1z"/>
<path d="M5270 4077 c0 -8 11 -24 25 -37 29 -27 32 -20 8 21 -18 31 -33 38
-33 16z"/>
<path d="M4820 4066 c0 -18 49 -58 61 -50 10 6 5 19 -19 47 -18 21 -42 22 -42
3z"/>
<path d="M3421 4061 c-20 -13 -4 -31 28 -31 29 0 57 21 44 33 -9 10 -56 8 -72
-2z"/>
<path d="M3920 4050 c-15 -27 -5 -40 30 -40 63 0 77 21 30 45 -38 20 -47 19
-60 -5z"/>
<path d="M2333 4043 c-7 -2 -13 -9 -13 -14 0 -14 26 -10 40 6 10 12 10 15 -1
14 -8 0 -20 -3 -26 -6z"/>
<path d="M5054 4035 c-7 -17 21 -65 36 -65 13 0 13 36 0 61 -13 23 -28 25 -36
4z"/>
<path d="M3574 3999 c-9 -15 14 -29 47 -29 32 0 42 9 28 27 -14 16 -65 17 -75
2z"/>
<path d="M5230 4000 c0 -18 23 -59 36 -64 19 -7 17 3 -6 42 -20 32 -30 40 -30
22z"/>
<path d="M2615 3973 c-39 -21 -16 -29 24 -8 17 8 31 18 31 20 0 10 -26 4 -55
-12z"/>
<path d="M2765 3980 c3 -5 13 -10 21 -10 8 0 14 5 14 10 0 6 -9 10 -21 10 -11
0 -17 -4 -14 -10z"/>
<path d="M2930 3980 c0 -5 12 -10 26 -10 14 0 23 4 19 10 -3 6 -15 10 -26 10
-10 0 -19 -4 -19 -10z"/>
<path d="M3090 3980 c-11 -7 -12 -12 -4 -20 16 -16 59 -8 59 10 0 18 -34 24
-55 10z"/>
<path d="M2013 3963 c-7 -2 -13 -9 -13 -14 0 -14 26 -10 40 6 10 12 10 15 -1
14 -8 0 -20 -3 -26 -6z"/>
<path d="M2455 3953 c-39 -21 -16 -29 24 -8 17 8 31 18 31 20 0 10 -26 4 -55
-12z"/>
<path d="M4078 3963 c-26 -7 -22 -28 9 -53 48 -37 86 -3 44 39 -21 21 -23 22
-53 14z"/>
<path d="M4403 3963 c-20 -8 -15 -41 8 -53 28 -16 49 -5 49 24 0 29 -25 42
-57 29z"/>
<path d="M4683 3955 c-8 -21 25 -55 54 -55 29 0 30 23 3 50 -24 24 -48 26 -57
5z"/>
<path d="M3234 3939 c-9 -15 14 -29 47 -29 32 0 42 9 28 27 -14 16 -65 17 -75
2z"/>
<path d="M4940 3926 c0 -18 49 -58 61 -50 10 6 5 19 -19 47 -18 21 -42 22 -42
3z"/>
<path d="M3735 3920 c-10 -16 14 -40 41 -40 25 0 41 17 28 30 -16 15 -62 22
-69 10z"/>
<path d="M5380 3915 c0 -18 19 -40 26 -32 4 4 0 15 -9 24 -9 10 -17 13 -17 8z"/>
<path d="M2143 3898 c-23 -11 -31 -28 -14 -28 10 0 41 28 41 36 0 5 0 5 -27
-8z"/>
<path d="M5160 3896 c0 -16 38 -66 51 -66 16 0 10 26 -12 54 -22 28 -39 34
-39 12z"/>
<path d="M2798 3874 c-34 -18 -36 -34 -5 -34 30 0 62 24 53 38 -9 15 -15 15
-48 -4z"/>
<path d="M3407 3883 c-11 -11 14 -33 38 -33 29 0 38 10 24 27 -12 14 -51 18
-62 6z"/>
<path d="M1993 3863 c-7 -2 -13 -9 -13 -14 0 -14 26 -10 40 6 10 12 10 15 -1
14 -8 0 -20 -3 -26 -6z"/>
<path d="M2612 3858 c-28 -28 -3 -37 43 -16 14 6 25 15 25 20 0 12 -54 10 -68
-4z"/>
<path d="M2934 3859 c-7 -12 13 -29 36 -29 23 0 43 17 36 29 -4 6 -20 11 -36
11 -16 0 -32 -5 -36 -11z"/>
<path d="M2457 3843 c-14 -13 -6 -24 15 -21 27 4 36 28 11 28 -11 0 -23 -3
-26 -7z"/>
<path d="M4215 3839 c-9 -14 34 -59 56 -59 9 0 23 7 30 16 11 14 10 19 -10 35
-25 21 -66 25 -76 8z"/>
<path d="M4533 3833 c-4 -11 3 -24 21 -40 47 -40 76 -12 32 32 -29 29 -44 32
-53 8z"/>
<path d="M5340 3836 c0 -8 9 -24 20 -37 17 -21 19 -22 20 -6 0 23 -18 57 -30
57 -6 0 -10 -6 -10 -14z"/>
<path d="M2293 3823 c-13 -5 -19 -33 -8 -33 10 0 65 30 65 35 0 6 -41 5 -57
-2z"/>
<path d="M3107 3823 c-13 -12 15 -33 44 -33 32 0 48 18 28 31 -16 10 -63 12
-72 2z"/>
<path d="M3895 3820 c-10 -16 14 -37 52 -45 37 -7 49 6 25 28 -24 22 -68 31
-77 17z"/>
<path d="M4813 3813 c-4 -11 3 -24 21 -40 47 -40 76 -12 32 32 -29 29 -44 32
-53 8z"/>
<path d="M2163 3798 c-23 -11 -31 -28 -14 -28 10 0 41 28 41 36 0 5 0 5 -27
-8z"/>
<path d="M3577 3803 c-12 -12 -7 -20 18 -31 39 -18 65 -15 65 7 0 26 -63 45
-83 24z"/>
<path d="M5065 3773 c8 -34 39 -68 54 -59 17 11 13 30 -10 60 -28 36 -53 35
-44 -1z"/>
<path d="M3293 3783 c-33 -13 1 -53 46 -53 31 0 37 21 11 42 -22 18 -35 21
-57 11z"/>
<path d="M5470 3782 c0 -18 12 -42 21 -42 14 0 10 26 -6 40 -9 8 -15 8 -15 2z"/>
<path d="M1993 3763 c-7 -2 -13 -12 -13 -20 0 -10 6 -13 16 -9 9 3 18 6 20 6
2 0 4 7 4 15 0 15 -6 17 -27 8z"/>
<path d="M5270 3746 c0 -16 38 -66 51 -66 16 0 10 26 -12 54 -22 28 -39 34
-39 12z"/>
<path d="M1843 3718 c-23 -11 -31 -28 -14 -28 10 0 41 28 41 36 0 5 0 5 -27
-8z"/>
<path d="M4054 3718 c-8 -13 49 -68 71 -68 24 0 17 37 -11 59 -30 24 -49 27
-60 9z"/>
<path d="M4374 3716 c-14 -37 52 -84 79 -57 9 10 4 19 -21 42 -36 32 -50 36
-58 15z"/>
<path d="M3742 3703 c4 -20 73 -62 83 -51 13 12 -5 45 -31 56 -36 17 -56 15
-52 -5z"/>
<path d="M2485 3690 c-11 -12 -15 -24 -9 -30 13 -12 77 16 72 32 -7 21 -43 20
-63 -2z"/>
<path d="M2645 3690 c-11 -12 -15 -24 -9 -30 13 -12 77 16 72 32 -7 21 -43 20
-63 -2z"/>
<path d="M2822 3690 c-23 -22 -29 -40 -12 -40 25 0 81 31 78 42 -7 21 -42 20
-66 -2z"/>
<path d="M3455 3700 c-10 -16 14 -37 52 -45 37 -7 49 6 25 28 -24 22 -68 31
-77 17z"/>
<path d="M4673 3693 c-4 -11 3 -24 21 -40 47 -40 76 -12 32 32 -29 29 -44 32
-53 8z"/>
<path d="M5430 3693 c0 -11 44 -73 53 -73 14 0 7 27 -14 54 -19 25 -39 34 -39
19z"/>
<path d="M2332 3674 c-12 -8 -22 -19 -22 -25 0 -17 29 -9 57 16 25 22 26 24 8
25 -11 0 -31 -7 -43 -16z"/>
<path d="M4943 3674 c-4 -10 7 -29 31 -52 34 -34 36 -35 36 -14 0 55 -52 106
-67 66z"/>
<path d="M1673 3663 c-7 -2 -13 -9 -13 -14 0 -14 26 -10 40 6 10 12 10 15 -1
14 -8 0 -20 -3 -26 -6z"/>
<path d="M2166 3654 c-19 -19 -21 -34 -3 -34 22 0 51 26 43 38 -10 16 -22 15
-40 -4z"/>
<path d="M2993 3663 c-21 -8 -14 -33 12 -45 22 -10 29 -9 47 9 11 12 17 26 14
32 -7 11 -50 14 -73 4z"/>
<path d="M5177 3643 c-11 -10 -8 -18 13 -41 24 -25 50 -29 50 -7 0 14 -37 55
-50 55 -4 0 -10 -3 -13 -7z"/>
<path d="M2013 3623 c-7 -2 -13 -12 -13 -20 0 -10 6 -13 16 -9 9 3 18 6 20 6
2 0 4 7 4 15 0 15 -6 17 -27 8z"/>
<path d="M3172 3621 c-18 -11 -11 -51 11 -65 22 -14 51 2 55 31 2 13 -6 23
-23 31 -31 14 -27 14 -43 3z"/>
<path d="M5570 3622 c0 -18 12 -42 21 -42 14 0 10 26 -6 40 -9 8 -15 8 -15 2z"/>
<path d="M3635 3600 c-10 -16 14 -37 52 -45 37 -7 49 6 25 28 -24 22 -68 31
-77 17z"/>
<path d="M3915 3599 c-9 -14 21 -46 56 -58 39 -13 44 1 13 38 -26 31 -57 40
-69 20z"/>
<path d="M5370 3597 c0 -21 43 -81 55 -76 13 5 8 29 -14 58 -21 29 -41 38 -41
18z"/>
<path d="M4220 3587 c0 -17 46 -57 66 -57 23 0 27 21 8 40 -27 26 -74 37 -74
17z"/>
<path d="M1853 3583 c-7 -2 -13 -12 -13 -20 0 -10 6 -13 16 -9 9 3 18 6 20 6
2 0 4 7 4 15 0 15 -6 17 -27 8z"/>
<path d="M4514 3578 c-8 -13 49 -68 71 -68 24 0 17 37 -11 59 -30 24 -49 27
-60 9z"/>
<path d="M4816 3563 c-21 -22 21 -83 58 -83 13 0 16 5 10 23 -11 38 -53 75
-68 60z"/>
<path d="M1693 3543 c-7 -2 -13 -12 -13 -20 0 -10 6 -13 16 -9 9 3 18 6 20 6
2 0 4 7 4 15 0 15 -6 17 -27 8z"/>
<path d="M3340 3529 c-22 -41 49 -81 79 -45 15 18 5 41 -25 55 -34 15 -42 14
-54 -10z"/>
<path d="M5541 3535 c-1 -15 37 -61 44 -54 3 4 -5 20 -19 35 -14 16 -25 25
-25 19z"/>
<path d="M5074 3515 c-9 -23 3 -44 31 -57 41 -18 51 3 20 41 -30 34 -43 39
-51 16z"/>
<path d="M1536 3488 c-9 -12 -14 -24 -12 -26 9 -8 46 19 46 33 0 22 -17 18
-34 -7z"/>
<path d="M2535 3498 c-24 -13 -35 -28 -35 -47 0 -18 49 -6 74 19 32 31 3 52
-39 28z"/>
<path d="M3816 3495 c-9 -25 4 -43 40 -55 56 -19 69 1 29 44 -27 29 -60 34
-69 11z"/>
<path d="M2352 3473 l-27 -28 23 -3 c25 -4 62 23 62 45 0 22 -29 15 -58 -14z"/>
<path d="M2685 3470 c-14 -27 -14 -31 0 -36 21 -9 65 22 65 46 0 34 -46 26
-65 -10z"/>
<path d="M2203 3478 c-28 -13 -37 -37 -18 -44 19 -8 65 22 65 41 0 17 -16 18
-47 3z"/>
<path d="M4090 3477 c0 -16 37 -51 62 -60 32 -11 32 16 -1 45 -33 30 -61 37
-61 15z"/>
<path d="M5297 3483 c-11 -10 -8 -18 13 -41 24 -25 50 -29 50 -7 0 14 -37 55
-50 55 -4 0 -10 -3 -13 -7z"/>
<path d="M2043 3458 c-28 -13 -37 -37 -18 -44 19 -8 65 22 65 41 0 17 -16 18
-47 3z"/>
<path d="M2873 3463 c-16 -6 -17 -49 -2 -58 18 -12 57 4 64 26 10 31 -24 48
-62 32z"/>
<path d="M4383 3453 c-8 -20 39 -63 68 -63 26 0 24 22 -6 54 -27 30 -53 34
-62 9z"/>
<path d="M5670 3462 c0 -18 12 -42 21 -42 14 0 10 26 -6 40 -9 8 -15 8 -15 2z"/>
<path d="M3514 3435 c-8 -21 21 -51 58 -60 36 -9 49 18 22 45 -28 28 -72 36
-80 15z"/>
<path d="M4677 3443 c-23 -22 24 -88 59 -81 28 5 27 23 -5 57 -29 31 -42 37
-54 24z"/>
<path d="M5490 3431 c0 -24 45 -79 56 -69 6 7 -40 88 -51 88 -3 0 -5 -9 -5
-19z"/>
<path d="M1872 3414 c-12 -8 -22 -19 -22 -25 0 -17 29 -9 57 16 25 22 26 24 8
25 -11 0 -31 -7 -43 -16z"/>
<path d="M3038 3405 c-14 -32 3 -55 42 -55 53 0 63 46 14 69 -36 16 -43 14
-56 -14z"/>
<path d="M4954 3395 c-9 -23 3 -44 31 -57 41 -18 51 3 20 41 -30 34 -43 39
-51 16z"/>
<path d="M1233 3383 c-7 -2 -13 -9 -13 -14 0 -14 26 -10 40 6 10 12 10 15 -1
14 -8 0 -20 -3 -26 -6z"/>
<path d="M1713 3383 c-23 -9 -15 -35 10 -31 12 2 22 9 22 17 0 16 -14 22 -32
14z"/>
<path d="M3994 3358 c-10 -16 42 -58 72 -58 17 0 24 5 24 19 0 37 -78 69 -96
39z"/>
<path d="M5195 3360 c-8 -14 15 -47 42 -59 19 -9 25 -8 29 4 14 35 -52 86 -71
55z"/>
<path d="M5650 3351 c0 -11 29 -35 35 -29 10 9 -7 38 -21 38 -8 0 -14 -4 -14
-9z"/>
<path d="M1565 3338 c-21 -12 -36 -30 -30 -36 6 -6 65 28 65 38 0 13 -10 12
-35 -2z"/>
<path d="M3233 3343 c-20 -7 -15 -51 6 -63 29 -15 58 -12 65 6 7 17 -9 54 -24
54 -4 0 -14 2 -22 4 -7 3 -19 2 -25 -1z"/>
<path d="M4270 3337 c0 -29 71 -80 88 -63 8 8 -59 76 -75 76 -7 0 -13 -6 -13
-13z"/>
<path d="M3707 3333 c-26 -26 16 -76 60 -71 41 4 41 32 0 57 -36 22 -49 25
-60 14z"/>
<path d="M1073 3323 c-7 -2 -13 -12 -13 -20 0 -10 6 -13 16 -9 9 3 18 6 20 6
2 0 4 7 4 15 0 15 -6 17 -27 8z"/>
<path d="M5418 3324 c-3 -3 -1 -21 5 -40 8 -26 16 -34 34 -34 29 0 30 19 2 54
-20 26 -31 31 -41 20z"/>
<path d="M4550 3310 c0 -20 29 -68 46 -74 39 -15 46 23 9 59 -25 26 -55 33
-55 15z"/>
<path d="M1400 3285 c-13 -14 -20 -28 -17 -32 8 -7 57 35 57 49 0 15 -16 8
-40 -17z"/>
<path d="M5770 3302 c0 -18 12 -42 21 -42 14 0 10 26 -6 40 -9 8 -15 8 -15 2z"/>
<path d="M4836 3283 c-21 -22 21 -83 58 -83 13 0 16 5 10 23 -11 38 -53 75
-68 60z"/>
<path d="M5590 3273 c0 -5 12 -26 27 -48 22 -32 28 -36 31 -21 2 10 -5 30 -15
44 -20 27 -43 40 -43 25z"/>
<path d="M2226 3254 c-20 -19 -21 -54 -2 -54 23 0 70 45 62 58 -10 17 -42 15
-60 -4z"/>
<path d="M2392 3261 c-18 -11 -11 -55 9 -59 22 -4 74 41 65 56 -8 14 -55 16
-74 3z"/>
<path d="M2583 3258 c-26 -13 -40 -45 -25 -60 24 -24 81 24 68 58 -6 16 -13
17 -43 2z"/>
<path d="M2063 3236 c-22 -20 -26 -27 -16 -37 11 -10 18 -9 40 8 32 23 42 53
19 53 -8 0 -28 -11 -43 -24z"/>
<path d="M1253 3243 c-7 -2 -13 -12 -13 -20 0 -10 6 -13 16 -9 9 3 18 6 20 6
2 0 4 7 4 15 0 15 -6 17 -27 8z"/>
<path d="M3400 3229 c-19 -34 29 -75 74 -63 35 9 39 29 9 58 -31 31 -68 34
-83 5z"/>
<path d="M5094 3235 c-12 -29 52 -92 73 -72 9 9 -8 47 -30 67 -25 24 -36 25
-43 5z"/>
<path d="M1892 3213 l-27 -28 23 -3 c25 -4 62 23 62 45 0 22 -29 15 -58 -14z"/>
<path d="M2758 3233 c-22 -6 -30 -30 -18 -54 14 -26 33 -24 67 6 27 24 28 25
9 40 -20 15 -28 16 -58 8z"/>
<path d="M4183 3223 c-8 -20 48 -73 77 -73 30 0 25 34 -11 64 -35 30 -57 33
-66 9z"/>
<path d="M1734 3183 c-22 -23 -23 -29 -10 -31 22 -5 68 26 63 41 -7 22 -27 18
-53 -10z"/>
<path d="M3894 3195 c-14 -36 63 -102 88 -77 16 16 -8 60 -44 78 -34 18 -37
17 -44 -1z"/>
<path d="M5334 3196 c-7 -19 22 -66 46 -74 19 -7 4 48 -20 72 -18 18 -20 19
-26 2z"/>
<path d="M4450 3185 c0 -9 11 -27 25 -40 23 -24 55 -34 55 -17 0 10 -63 72
-73 72 -4 0 -7 -7 -7 -15z"/>
<path d="M5750 3191 c0 -11 29 -35 35 -29 10 9 -7 38 -21 38 -8 0 -14 -4 -14
-9z"/>
<path d="M1093 3183 c-7 -2 -13 -12 -13 -20 0 -10 6 -13 16 -9 9 3 18 6 20 6
2 0 4 7 4 15 0 15 -6 17 -27 8z"/>
<path d="M2928 3179 c-37 -21 -14 -69 33 -69 35 0 54 22 40 48 -16 31 -44 38
-73 21z"/>
<path d="M1586 3154 c-20 -19 -20 -34 -1 -34 12 0 35 28 35 44 0 11 -19 6 -34
-10z"/>
<path d="M4713 3154 c-8 -20 5 -42 39 -67 50 -37 57 3 11 57 -26 30 -41 33
-50 10z"/>
<path d="M5530 3158 c0 -19 38 -78 50 -78 15 0 12 27 -5 60 -15 30 -45 41 -45
18z"/>
<path d="M5870 3142 c0 -18 12 -42 21 -42 14 0 10 26 -6 40 -9 8 -15 8 -15 2z"/>
<path d="M3596 3114 c-13 -48 53 -87 83 -50 22 26 -20 76 -62 76 -8 0 -18 -12
-21 -26z"/>
<path d="M1426 3114 c-20 -19 -20 -34 -1 -34 12 0 35 28 35 44 0 11 -19 6 -34
-10z"/>
<path d="M4970 3114 c0 -9 15 -31 34 -50 36 -36 66 -44 66 -18 0 9 -15 31 -34
50 -36 36 -66 44 -66 18z"/>
<path d="M3111 3101 c-21 -14 -5 -60 23 -67 35 -8 66 4 66 26 0 39 -53 64 -89
41z"/>
<path d="M5710 3100 c0 -18 23 -59 36 -64 19 -7 17 3 -6 42 -20 32 -30 40 -30
22z"/>
<path d="M1276 3068 c-9 -12 -14 -24 -12 -26 9 -8 46 19 46 33 0 22 -17 18
-34 -7z"/>
<path d="M4383 3083 c-36 -12 17 -83 62 -83 30 0 32 18 5 52 -20 26 -46 38
-67 31z"/>
<path d="M5237 3083 c-14 -13 -6 -38 20 -65 15 -15 30 -28 35 -28 16 0 8 48
-13 74 -21 27 -31 31 -42 19z"/>
<path d="M4075 3060 c-16 -25 60 -98 90 -86 23 9 18 35 -14 67 -30 29 -64 38
-76 19z"/>
<path d="M5850 3060 c0 -19 33 -75 37 -63 2 6 -3 25 -12 42 -16 32 -25 39 -25
21z"/>
<path d="M4620 3034 c0 -8 13 -29 29 -45 28 -28 61 -39 61 -20 0 9 -76 81 -85
81 -3 0 -5 -7 -5 -16z"/>
<path d="M5455 3040 c-8 -14 22 -68 45 -80 17 -9 20 -8 20 13 0 25 -34 77 -50
77 -5 0 -12 -4 -15 -10z"/>
<path d="M2107 3012 c-19 -21 -22 -48 -7 -57 14 -8 75 50 66 63 -11 18 -41 14
-59 -6z"/>
<path d="M2280 3010 c-27 -27 -26 -50 3 -50 29 0 62 34 54 55 -9 21 -33 19
-57 -5z"/>
<path d="M3300 3004 c-13 -34 -13 -38 8 -57 33 -30 82 -16 82 24 0 19 -45 59
-67 59 -7 0 -18 -12 -23 -26z"/>
<path d="M1938 2995 c-9 -19 -9 -28 0 -37 9 -9 18 -6 37 12 32 30 32 50 0 50
-17 0 -29 -8 -37 -25z"/>
<path d="M2452 3001 c-18 -11 -11 -55 9 -59 22 -4 74 41 65 56 -8 14 -55 16
-74 3z"/>
<path d="M3787 3003 c-28 -27 26 -96 71 -91 37 4 41 40 8 73 -24 24 -65 33
-79 18z"/>
<path d="M4870 2994 c0 -9 15 -31 34 -50 35 -35 66 -45 66 -21 0 16 -72 87
-88 87 -7 0 -12 -7 -12 -16z"/>
<path d="M1779 2981 c-19 -16 -21 -22 -12 -32 10 -10 18 -8 38 11 14 13 25 27
25 32 0 14 -27 9 -51 -11z"/>
<path d="M5650 2993 c0 -5 12 -26 27 -48 22 -32 28 -36 31 -21 2 10 -5 30 -15
44 -20 27 -43 40 -43 25z"/>
<path d="M5960 2994 c0 -7 9 -22 20 -35 10 -13 19 -19 20 -13 0 7 -9 22 -20
35 -10 13 -19 19 -20 13z"/>
<path d="M2626 2974 c-22 -21 -20 -31 9 -50 23 -15 27 -15 50 0 14 9 25 22 25
29 0 35 -56 50 -84 21z"/>
<path d="M1609 2951 c-18 -15 -21 -22 -13 -31 9 -9 20 -4 45 19 31 27 32 30
13 31 -12 0 -32 -9 -45 -19z"/>
<path d="M5136 2963 c-21 -22 21 -83 58 -83 13 0 16 5 10 23 -11 38 -53 75
-68 60z"/>
<path d="M1454 2923 c-22 -23 -23 -29 -10 -31 22 -5 68 26 63 41 -7 22 -27 18
-53 -10z"/>
<path d="M2822 2930 c-28 -27 -28 -36 3 -56 21 -14 31 -15 50 -6 30 14 32 35
5 62 -25 25 -31 25 -58 0z"/>
<path d="M5820 2936 c0 -8 9 -24 20 -37 17 -21 19 -22 20 -6 0 23 -18 57 -30
57 -6 0 -10 -6 -10 -14z"/>
<path d="M835 2922 c-5 -4 -17 -16 -25 -27 -11 -15 -7 -14 13 4 24 22 32 31
25 31 -2 0 -7 -4 -13 -8z"/>
<path d="M4274 2915 c-11 -28 6 -65 39 -85 40 -25 57 -25 57 -1 0 22 -42 76
-71 92 -15 7 -21 6 -25 -6z"/>
<path d="M4550 2916 c0 -17 75 -86 94 -86 33 0 28 25 -12 62 -41 38 -82 50
-82 24z"/>
<path d="M5370 2905 c0 -8 13 -29 29 -47 22 -25 33 -30 41 -22 9 9 4 21 -20
48 -34 38 -50 45 -50 21z"/>
<path d="M3487 2903 c-28 -27 26 -96 71 -91 37 4 41 40 8 73 -24 24 -65 33
-79 18z"/>
<path d="M5950 2900 c0 -19 33 -75 37 -63 2 6 -3 25 -12 42 -16 32 -25 39 -25
21z"/>
<path d="M1305 2884 c-25 -25 -2 -43 25 -19 11 10 20 22 20 27 0 14 -28 9 -45
-8z"/>
<path d="M4806 2860 c29 -49 84 -88 84 -59 0 13 -54 65 -83 80 -19 11 -19 10
-1 -21z"/>
<path d="M5588 2884 c-10 -9 11 -60 33 -80 26 -23 35 -12 19 25 -13 33 -43 64
-52 55z"/>
<path d="M663 2855 c-3 -9 -3 -18 0 -21 9 -9 27 6 27 22 0 19 -19 18 -27 -1z"/>
<path d="M2994 2855 c-8 -21 21 -51 58 -60 36 -9 49 18 22 45 -28 28 -72 36
-80 15z"/>
<path d="M3974 2855 c-13 -32 56 -100 93 -93 31 6 26 37 -10 73 -37 37 -74 45
-83 20z"/>
<path d="M1150 2839 c-7 -11 -9 -23 -6 -26 7 -7 46 26 46 39 0 17 -30 7 -40
-13z"/>
<path d="M5770 2831 c0 -24 45 -79 56 -69 6 7 -40 88 -51 88 -3 0 -5 -9 -5
-19z"/>
<path d="M6060 2835 c0 -18 19 -40 26 -32 4 4 0 15 -9 24 -9 10 -17 13 -17 8z"/>
<path d="M5040 2820 c0 -16 61 -80 76 -80 17 0 18 11 3 43 -15 33 -79 63 -79
37z"/>
<path d="M5280 2781 c0 -23 37 -71 55 -71 26 0 27 21 0 55 -28 38 -55 46 -55
16z"/>
<path d="M1825 2770 c-14 -16 -16 -23 -6 -33 15 -15 66 11 66 33 0 23 -39 23
-60 0z"/>
<path d="M2002 2778 c-15 -15 -15 -35 -1 -43 11 -7 59 31 59 47 0 12 -44 10
-58 -4z"/>
<path d="M2180 2782 c-29 -10 -38 -37 -15 -46 19 -7 65 10 65 23 0 15 -32 29
-50 23z"/>
<path d="M3206 2768 c-21 -29 -20 -41 2 -61 34 -31 82 -17 82 22 0 11 -50 61
-61 61 -4 0 -15 -10 -23 -22z"/>
<path d="M3693 2783 c-37 -14 17 -103 63 -103 45 0 38 49 -12 89 -28 22 -31
23 -51 14z"/>
<path d="M5930 2780 c0 -18 23 -59 36 -64 19 -7 17 3 -6 42 -20 32 -30 40 -30
22z"/>
<path d="M1669 2751 c-18 -15 -21 -22 -13 -31 9 -9 20 -4 45 19 31 27 32 30
13 31 -12 0 -32 -9 -45 -19z"/>
<path d="M2360 2762 c-29 -10 -38 -37 -15 -46 19 -7 65 10 65 23 0 15 -32 29
-50 23z"/>
<path d="M4754 2756 c-8 -20 11 -51 46 -76 56 -40 62 4 8 59 -34 34 -46 38
-54 17z"/>
<path d="M4460 2739 c0 -24 61 -89 83 -89 39 0 22 61 -25 90 -42 26 -58 25
-58 -1z"/>
<path d="M5510 2741 c0 -11 11 -33 24 -48 19 -22 27 -25 37 -16 9 10 6 20 -15
48 -30 39 -46 45 -46 16z"/>
<path d="M835 2739 c-4 -6 -4 -13 -1 -16 8 -8 36 5 36 17 0 13 -27 13 -35 -1z"/>
<path d="M1505 2730 c-14 -16 -16 -23 -7 -32 10 -10 17 -7 33 9 12 11 18 26
15 32 -10 16 -21 14 -41 -9z"/>
<path d="M2533 2743 c-18 -7 -16 -48 2 -63 16 -14 48 -6 66 17 11 13 10 18
-10 34 -23 19 -35 22 -58 12z"/>
<path d="M6060 2734 c0 -7 9 -22 20 -35 10 -13 19 -19 20 -13 0 7 -9 22 -20
35 -10 13 -19 19 -20 13z"/>
<path d="M1350 2699 c-7 -11 -9 -23 -6 -26 7 -7 46 26 46 39 0 17 -30 7 -40
-13z"/>
<path d="M4182 2703 c-19 -36 27 -93 75 -93 29 0 37 14 22 42 -31 62 -79 86
-97 51z"/>
<path d="M5710 2706 c0 -16 38 -66 51 -66 16 0 10 26 -12 54 -22 28 -39 34
-39 12z"/>
<path d="M715 2702 c-5 -4 -17 -16 -25 -27 -11 -15 -7 -14 13 4 24 22 32 31
25 31 -2 0 -7 -4 -13 -8z"/>
<path d="M2725 2694 c-25 -25 -15 -58 18 -62 27 -3 57 12 57 29 0 10 -41 49
-51 49 -4 0 -15 -7 -24 -16z"/>
<path d="M4980 2702 c0 -12 69 -82 80 -82 16 0 12 8 -26 50 -35 38 -54 50 -54
32z"/>
<path d="M1190 2659 c-7 -11 -9 -23 -6 -26 7 -7 46 26 46 39 0 17 -30 7 -40
-13z"/>
<path d="M5890 2666 c0 -16 38 -66 50 -66 11 0 2 25 -20 58 -17 25 -30 29 -30
8z"/>
<path d="M3387 2663 c-28 -27 26 -96 71 -91 37 4 41 40 8 73 -24 24 -65 33
-79 18z"/>
<path d="M5217 2663 c-4 -3 -7 -10 -7 -14 0 -12 51 -69 61 -69 16 0 10 37 -12
64 -21 27 -31 31 -42 19z"/>
<path d="M3886 2634 c-23 -22 -20 -32 18 -70 76 -76 116 -17 43 64 -24 26 -40
28 -61 6z"/>
<path d="M6030 2634 c0 -13 42 -74 51 -74 13 0 11 9 -12 46 -18 30 -39 45 -39
28z"/>
<path d="M1033 2623 c-7 -2 -13 -12 -13 -20 0 -10 6 -13 16 -9 9 3 18 6 20 6
2 0 4 7 4 15 0 15 -6 17 -27 8z"/>
<path d="M2918 2623 c-26 -7 -22 -28 9 -53 48 -37 86 -3 44 39 -21 21 -23 22
-53 14z"/>
<path d="M5434 2619 c-7 -12 62 -87 72 -77 10 10 -6 47 -29 68 -24 23 -33 25
-43 9z"/>
<path d="M893 2583 c-7 -2 -13 -12 -13 -20 0 -10 6 -13 16 -9 9 3 18 6 20 6 2
0 4 7 4 15 0 15 -6 17 -27 8z"/>
<path d="M1753 2583 c-23 -9 -15 -35 10 -31 12 2 22 9 22 17 0 16 -14 22 -32
14z"/>
<path d="M1910 2580 c-11 -7 -12 -12 -4 -20 16 -16 59 -8 59 10 0 18 -34 24
-55 10z"/>
<path d="M2091 2581 c-16 -11 -8 -41 12 -41 21 0 51 26 43 38 -8 14 -35 15
-55 3z"/>
<path d="M4650 2575 c0 -22 70 -95 91 -95 33 0 23 44 -16 79 -38 33 -75 41
-75 16z"/>
<path d="M4940 2574 c0 -20 63 -84 83 -84 32 0 28 22 -11 60 -41 42 -72 52
-72 24z"/>
<path d="M5657 2583 c-14 -13 -6 -40 16 -61 13 -12 26 -22 30 -22 12 0 8 30
-8 60 -15 30 -26 36 -38 23z"/>
<path d="M6170 2582 c0 -18 12 -42 21 -42 14 0 10 26 -6 40 -9 8 -15 8 -15 2z"/>
<path d="M1573 2563 c-18 -7 -16 -33 1 -33 25 0 46 12 46 26 0 14 -23 17 -47
7z"/>
<path d="M2254 2559 c-7 -12 13 -29 36 -29 23 0 43 17 36 29 -4 6 -20 11 -36
11 -16 0 -32 -5 -36 -11z"/>
<path d="M5830 2551 c0 -14 44 -74 58 -79 20 -6 14 19 -14 55 -24 31 -44 43
-44 24z"/>
<path d="M743 2538 c-25 -32 -26 -40 -4 -26 22 13 36 38 22 38 -5 0 -13 -6
-18 -12z"/>
<path d="M1413 2543 c-18 -7 -16 -33 1 -33 25 0 46 12 46 26 0 14 -23 17 -47
7z"/>
<path d="M2453 2543 c-33 -13 1 -53 46 -53 31 0 37 21 11 42 -22 18 -35 21
-57 11z"/>
<path d="M3106 2528 c-13 -19 -14 -25 -2 -43 18 -27 62 -43 77 -28 21 21 -22
93 -55 93 -3 0 -12 -10 -20 -22z"/>
<path d="M3587 2543 c-16 -16 -5 -51 26 -81 51 -49 88 -38 73 23 -9 36 -80 78
-99 58z"/>
<path d="M4381 2541 c-22 -14 0 -56 41 -81 38 -23 52 -21 56 7 2 13 -10 31
-33 52 -39 34 -43 35 -64 22z"/>
<path d="M5167 2519 c19 -32 59 -69 75 -69 14 0 -23 59 -51 81 -35 28 -45 23
-24 -12z"/>
<path d="M1244 2506 c-10 -8 -16 -18 -12 -22 10 -9 58 12 58 26 0 14 -23 12
-46 -4z"/>
<path d="M6010 2506 c0 -16 38 -66 50 -66 11 0 2 25 -20 58 -17 25 -30 29 -30
8z"/>
<path d="M5370 2490 c0 -18 56 -73 70 -68 9 3 3 15 -20 41 -32 36 -50 46 -50
27z"/>
<path d="M1095 2472 c-29 -16 -30 -17 -6 -20 25 -4 46 10 40 26 -3 6 -16 4
-34 -6z"/>
<path d="M2635 2480 c-10 -16 14 -40 41 -40 25 0 41 17 28 30 -16 15 -62 22
-69 10z"/>
<path d="M4087 2483 c-23 -23 38 -113 77 -113 38 0 22 98 -19 114 -22 8 -50 8
-58 -1z"/>
<path d="M6150 2477 c0 -15 31 -67 40 -67 6 0 10 4 10 9 0 12 -49 69 -50 58z"/>
<path d="M5587 2439 c19 -32 59 -69 75 -69 14 0 -23 59 -51 81 -35 28 -45 23
-24 -12z"/>
<path d="M943 2435 c-3 -9 -3 -18 0 -21 9 -9 27 6 27 22 0 19 -19 18 -27 -1z"/>
<path d="M6270 2442 c0 -18 12 -42 21 -42 14 0 10 26 -6 40 -9 8 -15 8 -15 2z"/>
<path d="M2831 2421 c-20 -13 -4 -47 29 -61 16 -7 34 -9 39 -5 21 12 11 44
-19 60 -34 17 -31 17 -49 6z"/>
<path d="M3297 2423 c-14 -14 -6 -41 19 -67 35 -34 62 -34 70 1 6 21 2 31 -20
50 -27 23 -56 30 -69 16z"/>
<path d="M4855 2420 c-11 -18 5 -48 41 -80 36 -31 64 -36 72 -12 4 14 -78 102
-96 102 -6 0 -14 -5 -17 -10z"/>
<path d="M5135 2420 c-11 -18 5 -48 41 -79 40 -36 54 -39 54 -12 0 37 -81 114
-95 91z"/>
<path d="M5780 2419 c0 -21 41 -79 56 -79 8 0 14 5 14 10 0 20 -29 68 -45 74
-23 8 -25 8 -25 -5z"/>
<path d="M6360 2414 c0 -7 9 -22 20 -35 10 -13 19 -19 20 -13 0 7 -9 22 -20
35 -10 13 -19 19 -20 13z"/>
<path d="M3797 2403 c-22 -22 6 -88 44 -103 33 -14 49 -7 49 21 0 31 -18 57
-50 74 -33 17 -34 17 -43 8z"/>
<path d="M5970 2391 c0 -24 45 -79 56 -69 6 7 -40 88 -51 88 -3 0 -5 -9 -5
-19z"/>
<path d="M775 2379 c-4 -6 -4 -13 -1 -16 8 -8 36 5 36 17 0 13 -27 13 -35 -1z"/>
<path d="M4575 2380 c-11 -18 4 -47 41 -80 64 -56 101 -18 42 44 -35 37 -72
53 -83 36z"/>
<path d="M5340 2362 c0 -12 69 -82 80 -82 16 0 12 8 -26 50 -35 38 -54 50 -54
32z"/>
<path d="M6130 2360 c0 -18 23 -59 36 -64 19 -7 17 3 -6 42 -20 32 -30 40 -30
22z"/>
<path d="M633 2343 c-7 -2 -13 -12 -13 -20 0 -10 6 -13 16 -9 9 3 18 6 20 6 2
0 4 7 4 15 0 15 -6 17 -27 8z"/>
<path d="M6260 2334 c0 -7 9 -22 20 -35 10 -13 19 -19 20 -13 0 7 -9 22 -20
35 -10 13 -19 19 -20 13z"/>
<path d="M3014 2318 c-8 -13 49 -68 71 -68 24 0 17 37 -11 59 -30 24 -49 27
-60 9z"/>
<path d="M4303 2323 c-20 -7 -15 -47 8 -77 15 -19 30 -26 55 -26 45 0 46 26 0
74 -33 36 -40 39 -63 29z"/>
<path d="M5540 2320 c0 -16 61 -80 76 -80 23 0 16 14 -24 53 -38 38 -52 45
-52 27z"/>
<path d="M3494 2296 c-9 -23 23 -85 50 -97 20 -9 29 -9 41 1 23 19 18 35 -25
74 -43 39 -58 44 -66 22z"/>
<path d="M5730 2297 c0 -13 60 -77 73 -77 15 0 6 21 -24 55 -32 37 -49 44 -49
22z"/>
<path d="M6380 2295 c0 -18 19 -40 26 -32 4 4 0 15 -9 24 -9 10 -17 13 -17 8z"/>
<path d="M473 2283 c-7 -2 -13 -9 -13 -14 0 -14 26 -10 40 6 10 12 10 15 -1
14 -8 0 -20 -3 -26 -6z"/>
<path d="M5920 2261 c0 -13 50 -71 61 -71 18 0 9 28 -17 54 -27 27 -44 33 -44
17z"/>
<path d="M4003 2243 c-31 -12 -4 -86 38 -103 70 -29 89 12 31 70 -40 40 -46
43 -69 33z"/>
<path d="M5055 2240 c-9 -14 21 -65 51 -89 51 -40 77 -20 44 34 -33 53 -79 80
-95 55z"/>
<path d="M5320 2234 c0 -20 63 -84 83 -84 32 0 28 22 -11 60 -41 42 -72 52
-72 24z"/>
<path d="M6090 2232 c0 -14 49 -56 57 -49 3 4 -4 18 -17 32 -24 25 -40 32 -40
17z"/>
<path d="M4787 2213 c-21 -20 18 -89 65 -114 48 -26 46 40 -2 91 -27 29 -49
37 -63 23z"/>
<path d="M3216 2195 c-9 -25 4 -43 40 -55 56 -19 69 1 29 44 -27 29 -60 34
-69 11z"/>
<path d="M6370 2197 c0 -8 11 -24 25 -37 29 -27 32 -20 8 21 -18 31 -33 38
-33 16z"/>
<path d="M5550 2160 c31 -39 50 -50 50 -29 0 14 -55 69 -70 69 -6 0 3 -18 20
-40z"/>
<path d="M6250 2192 c0 -10 33 -42 43 -42 15 0 6 30 -12 40 -24 12 -31 13 -31
2z"/>
<path d="M6489 2166 c14 -15 26 -26 28 -26 9 0 -24 40 -37 45 -8 4 -4 -5 9
-19z"/>
<path d="M5700 2162 c0 -12 69 -82 80 -82 16 0 12 8 -26 50 -35 38 -54 50 -54
32z"/>
<path d="M3697 2141 c-12 -45 55 -108 90 -85 24 16 18 44 -18 77 -34 32 -65
35 -72 8z"/>
<path d="M4507 2153 c-16 -15 -5 -57 22 -84 34 -34 56 -37 71 -10 15 28 -6 67
-45 86 -38 17 -39 17 -48 8z"/>
<path d="M5890 2133 c1 -10 38 -52 64 -73 18 -14 19 -14 6 10 -23 46 -71 88
-70 63z"/>
<path d="M6060 2118 c0 -18 46 -78 61 -78 18 0 8 21 -26 58 -24 26 -35 32 -35
20z"/>
<path d="M6223 2083 c18 -33 45 -59 53 -50 8 8 -19 45 -46 64 -22 15 -22 15
-7 -14z"/>
<path d="M3407 2083 c-26 -25 23 -93 67 -93 41 0 41 19 0 61 -37 38 -54 46
-67 32z"/>
<path d="M4207 2083 c-16 -15 -5 -47 28 -80 38 -38 68 -40 73 -5 6 39 -77 109
-101 85z"/>
<path d="M6370 2063 c21 -27 60 -59 60 -49 0 3 -14 21 -31 41 -36 41 -61 48
-29 8z"/>
<path d="M5510 2070 c0 -16 71 -90 86 -90 24 0 15 31 -20 66 -33 33 -66 45
-66 24z"/>
<path d="M5254 2058 c-7 -12 76 -98 95 -98 22 0 10 40 -23 74 -34 37 -59 45
-72 24z"/>
<path d="M6689 2046 c14 -15 26 -26 28 -26 9 0 -24 40 -37 45 -8 4 -4 -5 9
-19z"/>
<path d="M6490 2051 c0 -11 29 -35 35 -29 10 9 -7 38 -21 38 -8 0 -14 -4 -14
-9z"/>
<path d="M6590 2051 c0 -11 29 -35 35 -29 10 9 -7 38 -21 38 -8 0 -14 -4 -14
-9z"/>
<path d="M4997 2043 c-29 -28 32 -118 75 -111 34 5 31 21 -13 71 -41 47 -50
53 -62 40z"/>
<path d="M5700 2026 c0 -15 55 -66 72 -66 11 0 -37 61 -58 73 -9 5 -14 3 -14
-7z"/>
<path d="M3912 1998 c-20 -20 -14 -42 22 -77 38 -37 69 -38 74 -3 2 15 -8 34
-31 57 -38 38 -47 41 -65 23z"/>
<path d="M5870 1991 c0 -11 50 -61 61 -61 16 0 9 16 -19 43 -29 28 -42 33 -42
18z"/>
<path d="M4714 1976 c-8 -22 3 -61 22 -80 28 -29 94 -34 94 -7 0 5 -15 29 -33
53 -35 45 -73 61 -83 34z"/>
<path d="M6040 1981 c0 -11 50 -61 61 -61 16 0 9 16 -19 43 -29 28 -42 33 -42
18z"/>
<path d="M6210 1952 c0 -14 49 -56 57 -49 3 4 -4 18 -17 32 -24 25 -40 32 -40
17z"/>
<path d="M6350 1952 c0 -14 49 -56 57 -49 3 4 -4 18 -17 32 -24 25 -40 32 -40
17z"/>
<path d="M6505 1921 c16 -32 42 -44 31 -15 -3 9 -6 17 -6 19 0 3 -9 9 -21 15
-20 11 -20 11 -4 -19z"/>
<path d="M6610 1931 c0 -11 29 -35 35 -29 10 9 -7 38 -21 38 -8 0 -14 -4 -14
-9z"/>
<path d="M3600 1919 c0 -36 82 -101 102 -81 16 16 -8 67 -38 81 -31 14 -64 14
-64 0z"/>
<path d="M4420 1892 c0 -65 88 -135 105 -82 12 38 -44 110 -87 110 -13 0 -18
-8 -18 -28z"/>
<path d="M5450 1894 c0 -22 82 -104 104 -104 28 0 17 31 -28 76 -45 45 -76 56
-76 28z"/>
<path d="M5710 1896 c0 -19 57 -76 76 -76 23 0 16 24 -17 58 -33 34 -59 42
-59 18z"/>
<path d="M5915 1840 c27 -27 51 -50 54 -50 3 0 -17 23 -44 50 -27 28 -51 50
-54 50 -3 0 17 -22 44 -50z"/>
<path d="M5193 1854 c-8 -22 79 -109 101 -101 26 10 18 37 -23 78 -41 41 -68
49 -78 23z"/>
<path d="M6039 1843 c13 -25 60 -67 67 -61 3 3 -9 22 -26 42 -34 38 -58 49
-41 19z"/>
<path d="M6345 1829 c10 -14 30 -34 44 -44 l25 -19 -19 25 c-10 14 -30 34 -44
44 l-25 19 19 -25z"/>
<path d="M6729 1826 c14 -15 26 -26 28 -26 9 0 -24 40 -37 45 -8 4 -4 -5 9
-19z"/>
<path d="M4120 1809 c0 -54 90 -126 106 -85 8 20 -24 83 -50 101 -35 25 -56
19 -56 -16z"/>
<path d="M6190 1831 c0 -11 50 -61 61 -61 16 0 9 16 -19 43 -29 28 -42 33 -42
18z"/>
<path d="M6616 1815 c6 -16 44 -41 44 -30 0 4 -5 15 -10 26 -13 23 -42 26 -34
4z"/>
<path d="M4923 1804 c-8 -22 23 -78 52 -94 59 -32 79 21 27 71 -36 36 -70 46
-79 23z"/>
<path d="M6490 1812 c0 -10 33 -42 43 -42 15 0 6 30 -12 40 -24 12 -31 13 -31
2z"/>
<path d="M3815 1759 c-11 -17 15 -66 41 -78 80 -36 97 23 21 69 -36 22 -53 25
-62 9z"/>
<path d="M6944 1755 c26 -19 42 -19 26 0 -7 8 -20 15 -29 15 -13 -1 -13 -3 3
-15z"/>
<path d="M4637 1743 c-21 -20 18 -89 65 -114 22 -12 48 3 48 27 0 34 -94 107
-113 87z"/>
<path d="M5900 1732 c0 -25 66 -82 94 -82 16 0 2 33 -28 64 -36 39 -66 47 -66
18z"/>
<path d="M6852 1734 c1 -9 9 -19 16 -22 9 -3 13 2 10 14 -1 9 -9 19 -16 22 -9
3 -13 -2 -10 -14z"/>
<path d="M5660 1714 c0 -20 63 -84 83 -84 32 0 28 22 -11 60 -41 42 -72 52
-72 24z"/>
<path d="M6065 1709 c10 -14 30 -34 44 -44 l25 -19 -19 25 c-10 14 -30 34 -44
44 l-25 19 19 -25z"/>
<path d="M6740 1724 c0 -16 23 -44 35 -44 20 0 19 13 -3 33 -19 17 -32 22 -32
11z"/>
<path d="M6190 1711 c0 -11 50 -61 61 -61 16 0 9 16 -19 43 -29 28 -42 33 -42
18z"/>
<path d="M6610 1712 c0 -10 33 -42 43 -42 15 0 6 30 -12 40 -24 12 -31 13 -31
2z"/>
<path d="M5414 1696 c-9 -22 23 -74 56 -91 63 -33 67 -8 9 59 -43 48 -56 55
-65 32z"/>
<path d="M6509 1686 c14 -15 26 -26 28 -26 9 0 -24 40 -37 45 -8 4 -4 -5 9
-19z"/>
<path d="M7060 1695 c0 -8 2 -15 4 -15 2 0 11 -3 20 -6 10 -4 16 -1 16 9 0 8
-7 18 -16 21 -22 9 -24 8 -24 -9z"/>
<path d="M7284 1695 c26 -19 42 -19 26 0 -7 8 -20 15 -29 15 -13 -1 -13 -3 3
-15z"/>
<path d="M6350 1692 c0 -10 33 -42 43 -42 15 0 6 30 -12 40 -24 12 -31 13 -31
2z"/>
<path d="M7685 1680 c3 -5 13 -10 21 -10 8 0 14 5 14 10 0 6 -9 10 -21 10 -11
0 -17 -4 -14 -10z"/>
<path d="M4337 1663 c-27 -26 43 -117 85 -111 37 5 35 43 -5 83 -33 33 -65 44
-80 28z"/>
<path d="M5130 1631 c0 -45 96 -119 121 -94 15 15 -1 42 -46 82 -41 36 -75 41
-75 12z"/>
<path d="M6856 1635 c6 -14 34 -35 48 -35 17 0 2 22 -24 35 -26 14 -29 14 -24
0z"/>
<path d="M6750 1612 c0 -10 33 -42 43 -42 15 0 6 30 -12 40 -24 12 -31 13 -31
2z"/>
<path d="M4015 1600 c-3 -5 -1 -18 4 -28 15 -28 81 -84 94 -79 32 10 11 87
-29 106 -31 14 -61 14 -69 1z"/>
<path d="M6620 1602 c0 -14 49 -56 57 -49 3 4 -4 18 -17 32 -24 25 -40 32 -40
17z"/>
<path d="M6090 1590 c0 -43 68 -96 92 -72 8 8 1 21 -24 47 -34 33 -68 46 -68
25z"/>
<path d="M7113 1583 c9 -9 20 -13 24 -9 4 4 1 11 -7 16 -25 16 -35 11 -17 -7z"/>
<path d="M6245 1569 c10 -14 30 -34 44 -44 l25 -19 -19 25 c-10 14 -30 34 -44
44 l-25 19 19 -25z"/>
<path d="M6360 1581 c0 -11 50 -61 61 -61 16 0 9 16 -19 43 -29 28 -42 33 -42
18z"/>
<path d="M6500 1582 c0 -14 49 -56 57 -49 3 4 -4 18 -17 32 -24 25 -40 32 -40
17z"/>
<path d="M4867 1573 c-4 -3 -7 -18 -7 -33 0 -38 49 -83 86 -78 43 5 42 33 -4
78 -38 38 -61 48 -75 33z"/>
<path d="M5865 1570 c-7 -12 63 -90 81 -90 26 0 14 27 -26 64 -44 39 -46 40
-55 26z"/>
<path d="M8995 1559 c-4 -6 -4 -13 -1 -16 8 -8 36 5 36 17 0 13 -27 13 -35 -1z"/>
<path d="M7013 1543 c9 -9 20 -13 24 -9 4 4 1 11 -7 16 -25 16 -35 11 -17 -7z"/>
<path d="M5620 1519 c0 -24 61 -89 83 -89 39 0 22 61 -25 90 -42 26 -58 25
-58 -1z"/>
<path d="M7365 1520 c3 -5 13 -10 21 -10 8 0 14 5 14 10 0 6 -9 10 -21 10 -11
0 -17 -4 -14 -10z"/>
<path d="M4556 1503 c-18 -19 -3 -59 36 -95 65 -60 102 -43 64 31 -20 37 -85
79 -100 64z"/>
<path d="M6770 1495 c0 -14 37 -41 46 -33 6 6 -26 48 -37 48 -5 0 -9 -7 -9
-15z"/>
<path d="M7124 1495 c26 -19 42 -19 26 0 -7 8 -20 15 -29 15 -13 -1 -13 -3 3
-15z"/>
<path d="M5365 1470 c-9 -14 10 -43 50 -79 40 -35 65 -40 65 -12 0 25 -35 68
-70 86 -34 18 -37 18 -45 5z"/>
<path d="M6650 1472 c0 -10 33 -42 43 -42 15 0 6 30 -12 40 -24 12 -31 13 -31
2z"/>
<path d="M6510 1462 c0 -8 53 -42 66 -42 4 0 -3 11 -16 25 -23 24 -50 33 -50
17z"/>
<path d="M7033 1443 c9 -9 20 -13 24 -9 4 4 1 11 -7 16 -25 16 -35 11 -17 -7z"/>
<path d="M6280 1441 c0 -5 16 -23 36 -41 27 -24 39 -29 48 -20 8 8 3 19 -22
41 -31 28 -62 38 -62 20z"/>
<path d="M7405 1440 c3 -5 13 -10 21 -10 8 0 14 5 14 10 0 6 -9 10 -21 10 -11
0 -17 -4 -14 -10z"/>
<path d="M7545 1440 c3 -5 13 -10 21 -10 8 0 14 5 14 10 0 6 -9 10 -21 10 -11
0 -17 -4 -14 -10z"/>
<path d="M4241 1426 c-9 -11 -9 -20 -2 -34 15 -29 81 -84 94 -79 24 8 8 62
-27 95 -40 36 -48 38 -65 18z"/>
<path d="M6442 1413 c15 -15 31 -23 35 -19 4 4 -3 16 -17 26 -37 29 -49 24
-18 -7z"/>
<path d="M6077 1423 c-13 -12 -7 -30 19 -57 28 -27 64 -35 64 -13 0 12 -60 77
-71 77 -3 0 -9 -3 -12 -7z"/>
<path d="M9005 1420 c3 -5 13 -10 21 -10 8 0 14 5 14 10 0 6 -9 10 -21 10 -11
0 -17 -4 -14 -10z"/>
<path d="M9473 1423 c-7 -2 -13 -12 -13 -20 0 -10 6 -13 16 -9 9 3 18 6 20 6
2 0 4 7 4 15 0 15 -6 17 -27 8z"/>
<path d="M6933 1403 c9 -9 20 -13 24 -9 4 4 1 11 -7 16 -25 16 -35 11 -17 -7z"/>
<path d="M5070 1398 c0 -46 87 -119 124 -105 22 9 20 21 -10 57 -41 48 -114
79 -114 48z"/>
<path d="M5830 1373 c0 -20 84 -103 105 -103 28 0 15 32 -29 76 -45 45 -76 56
-76 27z"/>
<path d="M6790 1382 c0 -8 53 -42 66 -42 4 0 -3 11 -16 25 -23 24 -50 33 -50
17z"/>
<path d="M9173 1383 c-7 -2 -13 -12 -13 -20 0 -10 6 -13 16 -9 9 3 18 6 20 6
2 0 4 7 4 15 0 15 -6 17 -27 8z"/>
<path d="M9895 1379 c-4 -6 -4 -13 -1 -16 8 -8 36 5 36 17 0 13 -27 13 -35 -1z"/>
<path d="M7313 1363 c9 -9 20 -13 24 -9 4 4 1 11 -7 16 -25 16 -35 11 -17 -7z"/>
<path d="M6670 1362 c0 -8 53 -42 66 -42 4 0 -3 11 -16 25 -23 24 -50 33 -50
17z"/>
<path d="M7445 1360 c3 -5 13 -10 21 -10 8 0 14 5 14 10 0 6 -9 10 -21 10 -11
0 -17 -4 -14 -10z"/>
<path d="M8493 1363 c-7 -2 -13 -9 -13 -14 0 -14 26 -10 40 6 10 12 10 15 -1
14 -8 0 -20 -3 -26 -6z"/>
<path d="M9623 1355 c-3 -9 -3 -18 0 -21 9 -9 27 6 27 22 0 19 -19 18 -27 -1z"/>
<path d="M7073 1343 c9 -9 20 -13 24 -9 4 4 1 11 -7 16 -25 16 -35 11 -17 -7z"/>
<path d="M8877 1343 c-14 -13 -6 -24 15 -21 27 4 36 28 11 28 -11 0 -23 -3
-26 -7z"/>
<path d="M6580 1334 c0 -9 27 -30 65 -51 29 -15 30 -15 13 3 -20 22 -78 58
-78 48z"/>
<path d="M4774 1316 c-7 -18 35 -80 67 -97 26 -14 69 -4 69 16 0 9 -15 31 -32
50 -38 41 -94 57 -104 31z"/>
<path d="M5597 1323 c-27 -26 40 -113 87 -113 38 0 32 20 -22 73 -49 49 -54
52 -65 40z"/>
<path d="M6470 1317 c0 -29 71 -80 88 -63 8 8 -59 76 -75 76 -7 0 -13 -6 -13
-13z"/>
<path d="M9335 1319 c-4 -6 -4 -13 -1 -16 8 -8 36 5 36 17 0 13 -27 13 -35 -1z"/>
<path d="M6964 1295 c26 -19 42 -19 26 0 -7 8 -20 15 -29 15 -13 -1 -13 -3 3
-15z"/>
<path d="M6274 1278 c-5 -7 8 -25 31 -45 65 -56 91 -37 31 23 -36 36 -50 41
-62 22z"/>
<path d="M7505 1280 c3 -5 13 -10 21 -10 8 0 14 5 14 10 0 6 -9 10 -21 10 -11
0 -17 -4 -14 -10z"/>
<path d="M7865 1280 c3 -5 13 -10 21 -10 8 0 14 5 14 10 0 6 -9 10 -21 10 -11
0 -17 -4 -14 -10z"/>
<path d="M8113 1283 c-7 -2 -13 -9 -13 -14 0 -14 26 -10 40 6 10 12 10 15 -1
14 -8 0 -20 -3 -26 -6z"/>
<path d="M8345 1280 c3 -5 13 -10 21 -10 8 0 14 5 14 10 0 6 -9 10 -21 10 -11
0 -17 -4 -14 -10z"/>
<path d="M9045 1280 c3 -5 13 -10 21 -10 8 0 14 5 14 10 0 6 -9 10 -21 10 -11
0 -17 -4 -14 -10z"/>
<path d="M4470 1255 c-17 -21 -4 -50 40 -85 78 -61 108 -15 37 55 -48 49 -58
53 -77 30z"/>
<path d="M6860 1255 c0 -8 2 -15 4 -15 2 0 11 -3 20 -6 10 -4 16 -1 16 9 0 8
-7 18 -16 21 -22 9 -24 8 -24 -9z"/>
<path d="M8753 1263 c-7 -2 -13 -12 -13 -20 0 -10 6 -13 16 -9 9 3 18 6 20 6
2 0 4 7 4 15 0 15 -6 17 -27 8z"/>
<path d="M9494 1259 c-3 -6 -2 -15 3 -20 13 -13 43 -1 43 17 0 16 -36 19 -46
3z"/>
<path d="M7113 1243 c9 -9 20 -13 24 -9 4 4 1 11 -7 16 -25 16 -35 11 -17 -7z"/>
<path d="M5314 1235 c-12 -31 68 -109 105 -103 28 6 21 27 -22 72 -45 47 -73
58 -83 31z"/>
<path d="M7725 1240 c3 -5 13 -10 21 -10 8 0 14 5 14 10 0 6 -9 10 -21 10 -11
0 -17 -4 -14 -10z"/>
<path d="M6050 1224 c0 -20 61 -79 89 -87 35 -9 25 27 -19 67 -43 38 -70 46
-70 20z"/>
<path d="M6779 1216 c14 -14 29 -26 34 -26 13 0 -12 29 -37 42 -19 10 -18 8 3
-16z"/>
<path d="M7260 1215 c0 -8 2 -15 4 -15 2 0 11 -3 20 -6 10 -4 16 -1 16 9 0 8
-7 18 -16 21 -22 9 -24 8 -24 -9z"/>
<path d="M7565 1220 c3 -5 13 -10 21 -10 8 0 14 5 14 10 0 6 -9 10 -21 10 -11
0 -17 -4 -14 -10z"/>
<path d="M7965 1220 c3 -5 13 -10 21 -10 8 0 14 5 14 10 0 6 -9 10 -21 10 -11
0 -17 -4 -14 -10z"/>
<path d="M8205 1220 c3 -5 13 -10 21 -10 8 0 14 5 14 10 0 6 -9 10 -21 10 -11
0 -17 -4 -14 -10z"/>
<path d="M8465 1220 c3 -5 13 -10 21 -10 8 0 14 5 14 10 0 6 -9 10 -21 10 -11
0 -17 -4 -14 -10z"/>
<path d="M9205 1220 c3 -5 13 -10 21 -10 8 0 14 5 14 10 0 6 -9 10 -21 10 -11
0 -17 -4 -14 -10z"/>
<path d="M6660 1201 c0 -14 59 -61 77 -61 23 0 10 22 -27 48 -35 24 -50 27
-50 13z"/>
<path d="M7410 1200 c0 -5 12 -10 26 -10 14 0 23 4 19 10 -3 6 -15 10 -26 10
-10 0 -19 -4 -19 -10z"/>
<path d="M8917 1203 c-14 -13 -6 -24 15 -21 27 4 36 28 11 28 -11 0 -23 -3
-26 -7z"/>
<path d="M7033 1183 c9 -9 20 -13 24 -9 4 4 1 11 -7 16 -25 16 -35 11 -17 -7z"/>
<path d="M7805 1180 c3 -5 13 -10 21 -10 8 0 14 5 14 10 0 6 -9 10 -21 10 -11
0 -17 -4 -14 -10z"/>
<path d="M8633 1183 c-7 -2 -13 -12 -13 -20 0 -10 6 -13 16 -9 9 3 18 6 20 6
2 0 4 7 4 15 0 15 -6 17 -27 8z"/>
<path d="M9645 1180 c3 -5 13 -10 21 -10 8 0 14 5 14 10 0 6 -9 10 -21 10 -11
0 -17 -4 -14 -10z"/>
<path d="M5015 1159 c-21 -33 50 -122 94 -117 44 5 40 43 -9 89 -40 38 -73 49
-85 28z"/>
<path d="M5814 1159 c-10 -16 66 -89 93 -89 33 0 29 17 -16 61 -39 39 -64 48
-77 28z"/>
<path d="M6475 1159 c-8 -12 30 -56 56 -64 50 -16 41 33 -11 60 -35 18 -37 18
-45 4z"/>
<path d="M8065 1160 c3 -5 13 -10 21 -10 8 0 14 5 14 10 0 6 -9 10 -21 10 -11
0 -17 -4 -14 -10z"/>
<path d="M8333 1163 c-7 -2 -13 -12 -13 -20 0 -10 6 -13 16 -9 9 3 18 6 20 6
2 0 4 7 4 15 0 15 -6 17 -27 8z"/>
<path d="M9377 1163 c-14 -13 -6 -24 15 -21 27 4 36 28 11 28 -11 0 -23 -3
-26 -7z"/>
<path d="M6944 1135 c26 -19 42 -19 26 0 -7 8 -20 15 -29 15 -13 -1 -13 -3 3
-15z"/>
<path d="M7185 1140 c3 -5 13 -10 21 -10 8 0 14 5 14 10 0 6 -9 10 -21 10 -11
0 -17 -4 -14 -10z"/>
<path d="M7650 1140 c0 -5 12 -10 26 -10 14 0 23 4 19 10 -3 6 -15 10 -26 10
-10 0 -19 -4 -19 -10z"/>
<path d="M9093 1143 c-7 -2 -13 -12 -13 -20 0 -10 6 -13 16 -9 9 3 18 6 20 6
2 0 4 7 4 15 0 15 -6 17 -27 8z"/>
<path d="M7345 1120 c3 -5 13 -10 21 -10 8 0 14 5 14 10 0 6 -9 10 -21 10 -11
0 -17 -4 -14 -10z"/>
<path d="M7490 1120 c0 -5 12 -10 26 -10 14 0 23 4 19 10 -3 6 -15 10 -26 10
-10 0 -19 -4 -19 -10z"/>
<path d="M7915 1112 c-29 -16 -29 -17 -7 -20 23 -4 52 13 52 29 0 13 -11 11
-45 -9z"/>
<path d="M8793 1123 c-7 -2 -13 -12 -13 -20 0 -10 6 -13 16 -9 9 3 18 6 20 6
2 0 4 7 4 15 0 15 -6 17 -27 8z"/>
<path d="M6270 1095 c0 -31 97 -92 116 -72 8 8 -37 57 -66 72 -36 19 -50 19
-50 0z"/>
<path d="M6830 1105 c0 -11 81 -57 88 -51 10 11 -45 56 -69 56 -10 0 -19 -2
-19 -5z"/>
<path d="M8193 1103 c-23 -9 -15 -35 10 -31 12 2 22 9 22 17 0 16 -14 22 -32
14z"/>
<path d="M8477 1103 c-14 -13 -6 -24 15 -21 27 4 36 28 11 28 -11 0 -23 -3
-26 -7z"/>
<path d="M4695 1080 c-17 -27 55 -110 96 -110 48 0 26 64 -34 100 -36 22 -53
25 -62 10z"/>
<path d="M5557 1083 c-16 -16 -4 -44 30 -72 35 -29 71 -39 86 -25 11 11 -23
58 -57 82 -34 23 -48 27 -59 15z"/>
<path d="M7090 1085 c0 -9 61 -36 73 -32 7 2 -2 11 -20 20 -32 17 -53 22 -53
12z"/>
<path d="M9263 1075 c-3 -9 -3 -18 0 -21 9 -9 27 6 27 22 0 19 -19 18 -27 -1z"/>
<path d="M9525 1080 c3 -5 13 -10 21 -10 8 0 14 5 14 10 0 6 -9 10 -21 10 -11
0 -17 -4 -14 -10z"/>
<path d="M7765 1060 c3 -5 13 -10 21 -10 8 0 14 5 14 10 0 6 -9 10 -21 10 -11
0 -17 -4 -14 -10z"/>
<path d="M8973 1063 c-23 -9 -15 -35 10 -31 12 2 22 9 22 17 0 16 -14 22 -32
14z"/>
<path d="M6675 1051 c-10 -18 77 -72 92 -57 9 8 -17 35 -48 52 -33 17 -36 17
-44 5z"/>
<path d="M7256 1041 c5 -5 23 -13 39 -17 27 -7 29 -6 16 9 -7 10 -25 17 -39
17 -16 0 -22 -4 -16 -9z"/>
<path d="M7605 1040 c3 -5 13 -10 21 -10 8 0 14 5 14 10 0 6 -9 10 -21 10 -11
0 -17 -4 -14 -10z"/>
<path d="M8037 1043 c-14 -13 -6 -24 15 -21 27 4 36 28 11 28 -11 0 -23 -3
-26 -7z"/>
<path d="M8353 1043 c-23 -9 -15 -35 10 -31 12 2 22 9 22 17 0 16 -14 22 -32
14z"/>
<path d="M8653 1043 c-18 -7 -16 -33 1 -33 25 0 46 12 46 26 0 14 -23 17 -47
7z"/>
<path d="M6050 1016 c0 -17 75 -86 94 -86 33 0 28 25 -12 62 -41 38 -82 50
-82 24z"/>
<path d="M7040 1015 c0 -15 40 -30 62 -23 8 3 0 12 -19 21 -39 21 -43 21 -43
2z"/>
<path d="M7445 1020 c3 -5 13 -10 21 -10 8 0 14 5 14 10 0 6 -9 10 -21 10 -11
0 -17 -4 -14 -10z"/>
<path d="M5267 1003 c-15 -14 -6 -61 16 -81 27 -25 75 -45 94 -38 25 10 13 39
-32 83 -43 41 -64 51 -78 36z"/>
<path d="M9413 1003 c-23 -9 -15 -35 10 -31 12 2 22 9 22 17 0 16 -14 22 -32
14z"/>
<path d="M9635 999 c-4 -6 -4 -13 -1 -16 8 -8 36 5 36 17 0 13 -27 13 -35 -1z"/>
<path d="M6490 977 c0 -19 30 -45 69 -58 47 -17 51 -2 9 37 -38 34 -78 45 -78
21z"/>
<path d="M7890 980 c0 -5 12 -10 26 -10 14 0 23 4 19 10 -3 6 -15 10 -26 10
-10 0 -19 -4 -19 -10z"/>
<path d="M8203 978 c-28 -13 -30 -28 -4 -28 30 0 51 11 51 26 0 16 -16 17 -47
2z"/>
<path d="M9133 983 c-23 -9 -15 -35 10 -31 12 2 22 9 22 17 0 16 -14 22 -32
14z"/>
<path d="M6870 965 c0 -11 81 -57 88 -51 10 11 -45 56 -69 56 -10 0 -19 -2
-19 -5z"/>
<path d="M7210 965 c0 -8 62 -37 67 -31 11 11 -20 36 -43 36 -13 0 -24 -2 -24
-5z"/>
<path d="M8510 960 c0 -5 12 -10 26 -10 14 0 23 4 19 10 -3 6 -15 10 -26 10
-10 0 -19 -4 -19 -10z"/>
<path d="M8825 960 c3 -5 13 -10 21 -10 8 0 14 5 14 10 0 6 -9 10 -21 10 -11
0 -17 -4 -14 -10z"/>
<path d="M5800 921 c0 -22 9 -34 38 -54 20 -14 47 -28 60 -32 54 -16 0 70 -65
104 -31 16 -33 14 -33 -18z"/>
<path d="M7380 935 c0 -8 14 -17 35 -21 49 -9 56 3 12 21 -45 19 -47 19 -47 0z"/>
<path d="M7745 940 c3 -5 13 -10 21 -10 8 0 14 5 14 10 0 6 -9 10 -21 10 -11
0 -17 -4 -14 -10z"/>
<path d="M4937 923 c-25 -25 9 -88 59 -109 38 -16 64 -10 64 16 0 45 -98 119
-123 93z"/>
<path d="M7570 920 c0 -5 12 -10 26 -10 14 0 23 4 19 10 -3 6 -15 10 -26 10
-10 0 -19 -4 -19 -10z"/>
<path d="M8050 920 c0 -5 12 -10 26 -10 14 0 23 4 19 10 -3 6 -15 10 -26 10
-10 0 -19 -4 -19 -10z"/>
<path d="M6294 896 c-3 -8 -1 -23 5 -34 13 -24 77 -56 98 -48 14 6 14 9 1 29
-16 23 -74 67 -90 67 -5 0 -11 -6 -14 -14z"/>
<path d="M8355 900 c-9 -14 3 -30 24 -30 18 0 41 18 41 32 0 12 -58 10 -65 -2z"/>
<path d="M8703 897 c-13 -5 -23 -14 -23 -19 0 -12 48 -10 56 3 11 18 -9 28
-33 16z"/>
<path d="M9013 903 c-23 -9 -15 -35 10 -31 12 2 22 9 22 17 0 16 -14 22 -32
14z"/>
<path d="M9293 903 c-7 -2 -13 -12 -13 -20 0 -10 6 -13 16 -9 9 3 18 6 20 6 2
0 4 7 4 15 0 15 -6 17 -27 8z"/>
<path d="M9515 899 c-4 -6 -4 -13 -1 -16 8 -8 36 5 36 17 0 13 -27 13 -35 -1z"/>
<path d="M6720 881 c0 -14 81 -72 94 -68 19 6 12 29 -14 48 -32 23 -80 35 -80
20z"/>
<path d="M7095 881 c8 -13 73 -34 88 -28 6 3 -5 12 -25 21 -41 18 -72 21 -63
7z"/>
<path d="M7890 880 c-11 -7 -12 -12 -4 -20 16 -16 59 -8 59 10 0 18 -34 24
-55 10z"/>
<path d="M5510 835 c-10 -13 -5 -22 32 -60 48 -47 68 -54 87 -31 16 19 3 44
-40 80 -35 29 -61 33 -79 11z"/>
<path d="M7295 841 c8 -13 73 -34 88 -28 6 3 -5 12 -25 21 -41 18 -72 21 -63
7z"/>
<path d="M7700 842 c0 -16 28 -34 47 -30 31 6 21 33 -14 36 -18 2 -33 -1 -33
-6z"/>
<path d="M8214 839 c-12 -20 11 -31 39 -18 15 7 27 16 27 21 0 12 -58 10 -66
-3z"/>
<path d="M7525 820 c3 -5 15 -10 26 -10 10 0 19 5 19 10 0 6 -12 10 -26 10
-14 0 -23 -4 -19 -10z"/>
<path d="M8535 820 c-9 -14 3 -30 24 -30 18 0 41 18 41 32 0 12 -58 10 -65 -2z"/>
<path d="M9396 804 c-4 -9 -4 -19 -1 -22 6 -6 35 18 35 29 0 16 -28 10 -34 -7z"/>
<path d="M6044 799 c-18 -30 92 -107 117 -82 16 16 -5 50 -44 73 -36 22 -62
25 -73 9z"/>
<path d="M6940 800 c0 -10 71 -50 90 -50 23 0 8 21 -30 40 -43 22 -60 25 -60
10z"/>
<path d="M8870 800 c0 -5 12 -10 26 -10 14 0 23 4 19 10 -3 6 -15 10 -26 10
-10 0 -19 -4 -19 -10z"/>
<path d="M9157 803 c-14 -13 -6 -24 15 -21 27 4 36 28 11 28 -11 0 -23 -3 -26
-7z"/>
<path d="M6520 781 c0 -18 82 -72 105 -69 50 7 -1 64 -68 75 -24 4 -37 2 -37
-6z"/>
<path d="M8070 780 c0 -5 12 -10 26 -10 14 0 23 4 19 10 -3 6 -15 10 -26 10
-10 0 -19 -4 -19 -10z"/>
<path d="M5192 758 c-45 -45 51 -134 107 -99 21 14 4 49 -41 82 -46 33 -49 34
-66 17z"/>
<path d="M8394 759 c-7 -12 13 -29 36 -29 23 0 43 17 36 29 -4 6 -20 11 -36
11 -16 0 -32 -5 -36 -11z"/>
<path d="M7187 743 c-11 -11 14 -33 38 -33 29 0 38 10 24 27 -12 14 -51 18
-62 6z"/>
<path d="M7885 740 c3 -5 20 -10 36 -10 18 0 28 4 24 10 -3 6 -20 10 -36 10
-18 0 -28 -4 -24 -10z"/>
<path d="M8725 740 c-9 -15 4 -30 25 -30 24 0 36 20 19 31 -19 12 -36 11 -44
-1z"/>
<path d="M7400 721 c0 -17 39 -32 73 -29 29 3 30 4 12 14 -31 18 -85 27 -85
15z"/>
<path d="M7634 719 c-9 -15 14 -29 47 -29 32 0 42 9 28 27 -14 16 -65 17 -75
2z"/>
<path d="M9014 719 c-6 -10 11 -29 26 -29 3 0 11 4 19 9 17 11 5 31 -19 31
-10 0 -22 -5 -26 -11z"/>
<path d="M9283 715 c-3 -9 -3 -18 0 -21 9 -9 27 6 27 22 0 19 -19 18 -27 -1z"/>
<path d="M5773 703 c-23 -9 -13 -42 20 -67 39 -30 91 -43 102 -27 10 17 -20
58 -58 81 -33 20 -42 22 -64 13z"/>
<path d="M6775 700 c-3 -5 -3 -15 1 -21 9 -15 68 -39 94 -39 31 0 10 33 -34
54 -39 19 -52 20 -61 6z"/>
<path d="M8234 699 c-7 -12 13 -29 36 -29 23 0 43 17 36 29 -4 6 -20 11 -36
11 -16 0 -32 -5 -36 -11z"/>
<path d="M6294 679 c-14 -23 88 -78 121 -65 23 8 6 35 -36 56 -43 22 -74 25
-85 9z"/>
<path d="M8575 660 c-9 -14 3 -30 24 -30 18 0 41 18 41 32 0 12 -58 10 -65 -2z"/>
<path d="M8085 640 c3 -5 15 -10 26 -10 10 0 19 5 19 10 0 6 -12 10 -26 10
-14 0 -23 -4 -19 -10z"/>
<path d="M8893 643 c-23 -9 -15 -35 10 -31 12 2 22 9 22 17 0 16 -14 22 -32
14z"/>
<path d="M7010 630 c0 -15 35 -30 87 -36 43 -6 46 -5 33 8 -28 28 -120 50
-120 28z"/>
<path d="M9153 623 c-7 -2 -13 -12 -13 -20 0 -10 6 -13 16 -9 9 3 18 6 20 6 2
0 4 7 4 15 0 15 -6 17 -27 8z"/>
<path d="M5434 597 c-12 -32 42 -88 99 -102 31 -8 43 10 33 50 -8 30 -42 54
-90 62 -27 4 -37 2 -42 -10z"/>
<path d="M7800 600 c-13 -9 -13 -11 0 -20 19 -13 81 -13 100 0 13 9 13 11 0
20 -8 5 -31 10 -50 10 -19 0 -42 -5 -50 -10z"/>
<path d="M8414 599 c-7 -12 13 -29 36 -29 23 0 43 17 36 29 -4 6 -20 11 -36
11 -16 0 -32 -5 -36 -11z"/>
<path d="M7270 589 c0 -14 67 -41 93 -37 31 5 32 27 2 38 -35 13 -95 13 -95
-1z"/>
<path d="M6023 573 c-10 -26 59 -83 102 -83 41 0 46 17 12 48 -19 18 -85 52
-102 52 -3 0 -8 -7 -12 -17z"/>
<path d="M6560 581 c0 -18 82 -72 105 -69 50 7 -1 64 -68 75 -24 4 -37 2 -37
-6z"/>
<path d="M7525 581 c-8 -15 29 -31 69 -31 41 0 55 15 27 29 -25 14 -88 14 -96
2z"/>
<path d="M8734 559 c-6 -10 11 -29 26 -29 3 0 11 4 19 9 17 11 5 31 -19 31
-10 0 -22 -5 -26 -11z"/>
<path d="M8250 534 c15 -17 61 -15 68 4 2 8 -9 12 -38 12 -37 0 -41 -2 -30
-16z"/>
<path d="M9005 530 c-14 -16 -16 -23 -7 -32 10 -10 17 -7 33 9 12 11 18 26 15
32 -10 16 -21 14 -41 -9z"/>
<path d="M6820 501 c0 -16 77 -50 113 -51 62 0 9 48 -62 57 -36 4 -51 2 -51
-6z"/>
<path d="M8587 503 c-15 -14 -7 -43 12 -43 22 0 45 25 36 40 -7 11 -38 14 -48
3z"/>
<path d="M7977 479 c-44 -25 29 -40 92 -18 17 6 31 15 31 20 0 12 -101 11
-123 -2z"/>
<path d="M5695 459 c-15 -24 71 -89 119 -89 35 0 39 13 14 45 -34 43 -117 71
-133 44z"/>
<path d="M6290 457 c0 -28 49 -60 100 -65 55 -5 62 3 28 36 -41 38 -128 58
-128 29z"/>
<path d="M7095 460 c-10 -16 3 -29 43 -40 50 -14 115 -13 106 1 -19 32 -135
62 -149 39z"/>
<path d="M8854 443 c-22 -23 -23 -29 -10 -31 22 -5 68 26 63 41 -7 22 -27 18
-53 -10z"/>
<path d="M7393 439 c-19 -19 -16 -26 18 -38 38 -13 89 -14 108 -2 11 7 9 12
-10 24 -34 23 -101 32 -116 16z"/>
<path d="M7680 440 c-8 -5 -11 -13 -6 -17 10 -10 122 -10 132 0 14 14 -19 27
-66 27 -25 0 -52 -4 -60 -10z"/>
<path d="M8423 438 c-27 -13 -29 -26 -8 -34 22 -9 65 4 65 20 0 11 -24 29 -33
25 -1 0 -12 -5 -24 -11z"/>
<path d="M6593 383 c-20 -8 -15 -31 10 -47 27 -18 91 -30 113 -22 23 9 1 34
-51 57 -41 19 -51 21 -72 12z"/>
<path d="M8217 379 c-95 -22 -106 -55 -15 -45 68 7 120 32 97 47 -17 10 -31
10 -82 -2z"/>
<path d="M8705 370 c-14 -16 -16 -23 -7 -32 10 -10 17 -7 33 9 12 11 18 26 15
32 -10 16 -21 14 -41 -9z"/>
<path d="M5975 341 c-16 -26 84 -95 128 -89 31 4 29 46 -3 69 -31 23 -114 36
-125 20z"/>
<path d="M6884 315 c-14 -36 25 -65 89 -65 76 1 62 34 -27 64 -60 19 -55 19
-62 1z"/>
<path d="M7816 299 c-28 -17 -2 -29 64 -29 59 0 87 11 76 29 -9 14 -115 14
-140 0z"/>
<path d="M8530 300 c-11 -7 -12 -12 -4 -20 16 -16 59 -8 59 10 0 18 -34 24
-55 10z"/>
<path d="M7175 280 c-18 -29 107 -64 144 -41 11 7 8 12 -11 25 -34 22 -123 33
-133 16z"/>
<path d="M7513 277 c-18 -5 -33 -14 -33 -18 0 -28 111 -40 145 -15 18 13 18
14 -1 23 -32 17 -77 21 -111 10z"/>
<path d="M8332 245 c-48 -21 -31 -38 30 -33 55 6 63 11 55 33 -8 19 -42 19
-85 0z"/>
<path d="M6271 236 c-6 -7 -9 -21 -5 -30 11 -28 120 -47 154 -26 32 20 -50 70
-116 70 -12 0 -27 -6 -33 -14z"/>
<path d="M6584 156 c-18 -14 -18 -16 -2 -32 21 -22 112 -31 133 -14 23 19 18
30 -20 46 -44 18 -86 18 -111 0z"/>
<path d="M7965 159 c-22 -5 -44 -14 -50 -20 -14 -14 12 -29 50 -29 54 0 138
31 123 45 -12 12 -82 14 -123 4z"/>
<path d="M6902 118 c-29 -15 -24 -29 19 -50 40 -21 92 -23 107 -5 16 19 2 35
-47 52 -50 17 -49 17 -79 3z"/>
<path d="M7583 100 c-53 -22 -5 -46 73 -37 24 2 51 11 60 18 14 12 14 14 -3
20 -25 10 -104 10 -130 -1z"/>
<path d="M7225 86 c-17 -14 -18 -17 -5 -26 20 -14 162 -8 167 6 5 15 -19 24
-86 30 -42 4 -61 2 -76 -10z"/>
</g>
</svg>
